<?xml version="1.0" encoding="UTF-8" standalone="no"?>
<svg
   xmlns:svg="http://www.w3.org/2000/svg"
   xmlns="http://www.w3.org/2000/svg"
   width="800.0"
   height="600.0"

>
    <g transform="scale(2.4999999972222224, -2.4999999972222224)   translate(88.00000010888891,-108.0000001088889)" stroke-width="0.4"  fill="none">
       <!-- hidden lines -->
       <g  stroke="rgb(180,180,180)" fill="none" stroke-dasharray="0.4,0.4" >

       </g>

       <!-- solid lines -->
       <g  stroke="rgb(40,40,40)" fill="none">
			<path d="M-74.5,-35.0 L-40.0,-35.0 " />
			<path d="M-36.0,-35.0 L0.0,-35.0 " />
			<path d="M0.0,-20.0 L0.0,-35.0 " />
			<path d="M-80.0,35.0 L-78.5,35.0 " />
			<path d="M-80.0,35.0 L-80.0,-35.0 " />
			<path d="M-80.0,-35.0 L-78.5,-35.0 " />
			<path d="M3.0,-20.0 L3.0,-35.0 " />
			<path d="M0.0,-35.0 L3.0,-35.0 " />
			<path d="M-78.5,10.0 L-78.5,-0.07680284929770664 L-78.5,-10.026884056068294 L-78.5,-19.725115575965038 L-78.5,-29.049536520580233 L-78.5,-37.88288688638029 L-78.5,-46.114082167286014 L-78.5,-53.63961030678927 L-78.5,-60.364833422122686 L-78.5,-66.20517793054557 L-78.5,-71.08719811121772 L-78.5,-74.94949972775308 L-78.5,-77.74351209636413 L-78.5,-79.43409889039184 L-78.5,-79.99999999999999 " />
			<path d="M-78.5,100.0 L-78.5,99.43409889039184 L-78.5,97.74351209636413 L-78.5,94.94949972775308 L-78.5,91.08719811121773 L-78.5,86.20517793054559 L-78.5,80.36483342212269 L-78.5,73.6396103067893 L-78.5,66.11408216728603 L-78.5,57.88288688638031 L-78.5,49.049536520580254 L-78.5,39.72511557596506 L-78.5,30.02688405606832 L-78.5,20.076802849297728 L-78.5,10.000000000000817 " />
			<path d="M-74.5,10.0 L-74.5,-0.07680284929770664 L-74.5,-10.026884056068294 L-74.5,-19.725115575965038 L-74.5,-29.049536520580233 L-74.5,-37.88288688638029 L-74.5,-46.114082167286014 L-74.5,-53.63961030678927 L-74.5,-60.364833422122686 L-74.5,-66.20517793054557 L-74.5,-71.08719811121772 L-74.5,-74.94949972775308 L-74.5,-77.74351209636413 L-74.5,-79.43409889039184 L-74.5,-79.99999999999999 " />
			<path d="M-74.5,100.0 L-74.5,99.43409889039184 L-74.5,97.74351209636413 L-74.5,94.94949972775308 L-74.5,91.08719811121773 L-74.5,86.20517793054559 L-74.5,80.36483342212269 L-74.5,73.6396103067893 L-74.5,66.11408216728603 L-74.5,57.88288688638031 L-74.5,49.049536520580254 L-74.5,39.72511557596506 L-74.5,30.02688405606832 L-74.5,20.076802849297728 L-74.5,10.000000000000817 " />
			<path d="M7.5,99.80702740892508 L7.5,99.74807177309728 L7.5,99.68128145099789 L7.5,99.60666227318362 L7.5,99.5242207536423 L7.5,99.43396408922426 L7.5,99.33590015901413 L7.5,99.23003752364292 L7.5,99.11638542454075 L7.5,98.99495378313017 L7.5,98.86575319995995 L7.5,98.72879495377981 L7.5,98.58409100055567 L7.5,98.43165397242606 L7.5,98.27149717659962 " />
			<path d="M7.5,-78.27149717659947 L7.5,-78.43165397242616 L7.5,-78.58409100055573 L7.5,-78.72879495377987 L7.5,-78.86575319996003 L7.5,-78.99495378313021 L7.5,-79.11638542454078 L7.5,-79.23003752364295 L7.5,-79.33590015901416 L7.5,-79.43396408922429 L7.5,-79.52422075364231 L7.5,-79.60666227318363 L7.5,-79.6812814509979 L7.5,-79.74807177309728 L7.5,-79.80702740892507 " />
			<path d="M7.5,-76.04307982036198 L7.5,-78.27149717659947 " />
			<path d="M7.5,-75.22235713646245 L7.5,-76.04307982036198 " />
			<path d="M7.5,-70.72041028723491 L7.5,-71.08876509375212 L7.5,-71.45004114055774 L7.5,-71.80420688954264 L7.5,-72.15123142330128 L7.5,-72.4910844478307 L7.5,-72.82373629517511 L7.5,-73.1491579260158 L7.5,-73.46732093220612 L7.5,-73.77819753925144 L7.5,-74.08176060873377 L7.5,-74.37798364068087 L7.5,-74.66684077587952 L7.5,-74.94830679813303 L7.5,-75.22235713646239 " />
			<path d="M7.5,-68.72246594387882 L7.5,-70.72041028723493 " />
			<path d="M7.5,-64.82992406175406 L7.5,-68.72246594387883 " />
			<path d="M7.5,-57.668360833580536 L7.5,-58.2198108794592 L7.5,-58.76530557938797 L7.5,-59.30479731362689 L7.5,-59.83823898647351 L7.5,-60.365584030374166 L7.5,-60.886786409989085 L7.5,-61.40180062621117 L7.5,-61.910581720137955 L7.5,-62.41308527699621 L7.5,-62.90926743001933 L7.5,-63.399084864276716 L7.5,-63.88249482045494 L7.5,-64.35945509859059 L7.5,-64.82992406175401 " />
			<path d="M7.5,-56.037046108346374 L7.5,-57.668360833580536 " />
			<path d="M7.5,-49.337955324533596 L7.5,-56.037046108346374 " />
			<path d="M7.5,-40.00482441637127 L7.5,-40.701789292299075 L7.5,-41.39432808302344 L7.5,-42.08238033238024 L7.5,-42.765885975864414 L7.5,-43.44478534587335 L7.5,-44.11901917691566 L7.5,-44.788528610784866 L7.5,-45.4532552016975 L7.5,-46.11314092139519 L7.5,-46.76812816421036 L7.5,-47.41815975209497 L7.5,-48.06317893961195 L7.5,-48.70312941888893 L7.5,-49.337955324533525 " />
			<path d="M7.5,-38.851310711908724 L7.5,-40.004824416371264 " />
			<path d="M7.5,-29.802202992553788 L7.5,-38.85131071190874 " />
			<path d="M7.5,-18.933541852065858 L7.5,-19.728524553537227 L7.5,-20.520912060943786 L7.5,-21.310635201684914 L7.5,-22.097625035749665 L7.5,-22.88181286173503 L7.5,-23.663130222843293 L7.5,-24.441508912858083 L7.5,-25.216880982098502 L7.5,-25.989178743350948 L7.5,-26.758334777777904 L7.5,-27.52428194080339 L7.5,-28.286953367974462 L7.5,-29.046282480798197 L7.5,-29.80220299255374 " />
			<path d="M7.5,-18.336439221062534 L7.5,-18.933541852065865 " />
			<path d="M7.5,-7.553996302881914 L7.5,-18.336439221062545 " />
			<path d="M7.5,4.1095137745191375 L7.5,3.270690004838446 L7.5,2.4324536798971756 L7.5,1.5948779747340485 L7.5,0.7580360067180418 L7.5,-0.07799917083450758 L7.5,-0.9131545750371792 L7.5,-1.7473572998046336 L7.5,-2.5805345222170466 L7.5,-3.41261350887728 L7.5,-4.243521622260266 L7.5,-5.073186327053984 L7.5,-5.901535196491551 L7.5,-6.728495918673811 L7.5,-7.553996302881888 " />
			<path d="M7.5,15.890486225480862 L7.5,4.109513774519137 " />
			<path d="M7.5,27.553996302881906 L7.5,26.728495918673843 L7.5,25.901535196491622 L7.5,25.07318632705409 L7.5,24.24352162226041 L7.5,23.412613508877463 L7.5,22.580534522217263 L7.5,21.74735729980489 L7.5,20.91315457503747 L7.5,20.077999170834836 L7.5,19.241963993282322 L7.5,18.40512202526635 L7.5,17.56754632010326 L7.5,16.729309995162026 L7.5,15.89048622548169 " />
			<path d="M7.5,38.33643922106254 L7.5,27.553996302881913 " />
			<path d="M7.5,38.933541852065865 L7.5,38.336439221062534 " />
			<path d="M7.5,49.80220299255391 L7.5,49.046282480798254 L7.5,48.28695336797448 L7.5,47.52428194080337 L7.5,46.758334777777854 L7.5,45.98917874335086 L7.5,45.21688098209838 L7.5,44.44150891285791 L7.5,43.66313022284309 L7.5,42.88181286173479 L7.5,42.09762503574939 L7.5,41.31063520168459 L7.5,40.52091206094343 L7.5,39.72852455353683 L7.5,38.93354185206663 " />
			<path d="M7.5,58.85131071190877 L7.5,49.802202992553845 " />
			<path d="M7.5,60.00482441637132 L7.5,58.85131071190878 " />
			<path d="M7.5,69.33795532453372 L7.5,68.703129418889 L7.5,68.06317893961207 L7.5,67.41815975209511 L7.5,66.76812816421054 L7.5,66.1131409213954 L7.5,65.45325520169774 L7.5,64.78852861078514 L7.5,64.11901917691597 L7.5,63.44478534587368 L7.5,62.765885975864784 L7.5,62.08238033238065 L7.5,61.39432808302388 L7.5,60.70178929229956 L7.5,60.00482441637205 " />
			<path d="M7.5,76.03704610834639 L7.5,69.33795532453362 " />
			<path d="M7.5,77.66836083358055 L7.5,76.03704610834639 " />
			<path d="M7.5,84.82992406175404 L7.5,84.35945509859057 L7.5,83.88249482045495 L7.5,83.39908486427676 L7.5,82.9092674300194 L7.5,82.4130852769963 L7.5,81.91058172013807 L7.5,81.40180062621131 L7.5,80.88678640998924 L7.5,80.36558403037435 L7.5,79.83823898647373 L7.5,79.30479731362713 L7.5,78.76530557938824 L7.5,78.21981087945952 L7.5,77.66836083358112 " />
			<path d="M7.5,88.72246594387884 L7.5,84.82992406175406 " />
			<path d="M7.5,90.72041028723491 L7.5,88.72246594387883 " />
			<path d="M7.5,95.22235713646243 L7.5,94.94830679813299 L7.5,94.6668407758795 L7.5,94.37798364068087 L7.5,94.08176060873379 L7.5,93.77819753925147 L7.5,93.46732093220616 L7.5,93.14915792601586 L7.5,92.8237362951752 L7.5,92.49108444783079 L7.5,92.15123142330138 L7.5,91.80420688954277 L7.5,91.45004114055789 L7.5,91.08876509375229 L7.5,90.72041028723524 " />
			<path d="M7.5,96.043079820362 L7.5,95.22235713646246 " />
			<path d="M7.5,98.27149717659947 L7.5,96.04307982036198 " />
			<path d="M11.5,98.27149717659948 L7.5,98.27149717659948 " />
			<path d="M11.5,99.80702740892508 L11.5,99.74807177309728 L11.5,99.68128145099789 L11.5,99.60666227318362 L11.5,99.5242207536423 L11.5,99.43396408922426 L11.5,99.33590015901413 L11.5,99.23003752364292 L11.5,99.11638542454075 L11.5,98.99495378313017 L11.5,98.86575319995995 L11.5,98.72879495377981 L11.5,98.58409100055567 L11.5,98.43165397242606 L11.5,98.27149717659962 " />
			<path d="M11.5,99.80702740892508 L7.5,99.80702740892508 " />
			<path d="M11.5,-79.80702740892508 L7.5,-79.80702740892508 " />
			<path d="M11.5,-78.27149717659947 L11.5,-78.43165397242616 L11.5,-78.58409100055573 L11.5,-78.72879495377987 L11.5,-78.86575319996003 L11.5,-78.99495378313021 L11.5,-79.11638542454078 L11.5,-79.23003752364295 L11.5,-79.33590015901416 L11.5,-79.43396408922429 L11.5,-79.52422075364231 L11.5,-79.60666227318363 L11.5,-79.6812814509979 L11.5,-79.74807177309728 L11.5,-79.80702740892507 " />
			<path d="M11.5,-78.27149717659947 L7.5,-78.27149717659947 " />
			<path d="M7.5,-76.04307982036198 L11.5,-76.04307982036198 " />
			<path d="M11.5,-76.04307982036198 L11.5,-78.27149717659947 " />
			<path d="M11.5,-75.22235713646245 L11.5,-76.04307982036198 " />
			<path d="M11.5,-75.22235713646245 L7.5,-75.22235713646245 " />
			<path d="M11.5,-70.72041028723491 L11.5,-71.08876509375212 L11.5,-71.45004114055774 L11.5,-71.80420688954264 L11.5,-72.15123142330128 L11.5,-72.4910844478307 L11.5,-72.82373629517511 L11.5,-73.1491579260158 L11.5,-73.46732093220612 L11.5,-73.77819753925144 L11.5,-74.08176060873377 L11.5,-74.37798364068087 L11.5,-74.66684077587952 L11.5,-74.94830679813303 L11.5,-75.22235713646239 " />
			<path d="M11.5,-70.72041028723491 L7.5,-70.72041028723491 " />
			<path d="M7.5,-68.72246594387883 L11.5,-68.72246594387883 " />
			<path d="M11.5,-68.72246594387882 L11.5,-70.72041028723493 " />
			<path d="M11.5,-64.82992406175406 L11.5,-68.72246594387883 " />
			<path d="M11.5,-64.82992406175406 L7.5,-64.82992406175406 " />
			<path d="M11.5,-57.668360833580536 L11.5,-58.2198108794592 L11.5,-58.76530557938797 L11.5,-59.30479731362689 L11.5,-59.83823898647351 L11.5,-60.365584030374166 L11.5,-60.886786409989085 L11.5,-61.40180062621117 L11.5,-61.910581720137955 L11.5,-62.41308527699621 L11.5,-62.90926743001933 L11.5,-63.399084864276716 L11.5,-63.88249482045494 L11.5,-64.35945509859059 L11.5,-64.82992406175401 " />
			<path d="M11.5,-57.668360833580536 L7.5,-57.668360833580536 " />
			<path d="M7.5,-56.037046108346374 L11.5,-56.037046108346374 " />
			<path d="M11.5,-56.037046108346374 L11.5,-57.668360833580536 " />
			<path d="M11.5,-49.337955324533596 L11.5,-56.037046108346374 " />
			<path d="M11.5,-49.337955324533596 L7.5,-49.337955324533596 " />
			<path d="M11.5,-40.00482441637127 L11.5,-40.701789292299075 L11.5,-41.39432808302344 L11.5,-42.08238033238024 L11.5,-42.765885975864414 L11.5,-43.44478534587335 L11.5,-44.11901917691566 L11.5,-44.788528610784866 L11.5,-45.4532552016975 L11.5,-46.11314092139519 L11.5,-46.76812816421036 L11.5,-47.41815975209497 L11.5,-48.06317893961195 L11.5,-48.70312941888893 L11.5,-49.337955324533525 " />
			<path d="M11.5,-40.004824416371264 L7.5,-40.004824416371264 " />
			<path d="M7.5,-38.85131071190873 L11.5,-38.85131071190873 " />
			<path d="M11.5,-38.851310711908724 L11.5,-40.004824416371264 " />
			<path d="M11.5,-29.802202992553788 L11.5,-38.85131071190874 " />
			<path d="M11.5,-29.802202992553788 L7.5,-29.802202992553788 " />
			<path d="M11.5,-18.933541852065858 L11.5,-19.728524553537227 L11.5,-20.520912060943786 L11.5,-21.310635201684914 L11.5,-22.097625035749665 L11.5,-22.88181286173503 L11.5,-23.663130222843293 L11.5,-24.441508912858083 L11.5,-25.216880982098502 L11.5,-25.989178743350948 L11.5,-26.758334777777904 L11.5,-27.52428194080339 L11.5,-28.286953367974462 L11.5,-29.046282480798197 L11.5,-29.80220299255374 " />
			<path d="M11.5,-18.933541852065865 L7.5,-18.933541852065865 " />
			<path d="M7.5,-18.33643922106254 L11.5,-18.33643922106254 " />
			<path d="M11.5,-18.336439221062534 L11.5,-18.933541852065865 " />
			<path d="M11.5,-7.553996302881914 L11.5,-18.336439221062545 " />
			<path d="M11.5,-7.553996302881913 L7.5,-7.553996302881913 " />
			<path d="M11.5,4.1095137745191375 L11.5,3.270690004838446 L11.5,2.4324536798971756 L11.5,1.5948779747340485 L11.5,0.7580360067180418 L11.5,-0.07799917083450758 L11.5,-0.9131545750371792 L11.5,-1.7473572998046336 L11.5,-2.5805345222170466 L11.5,-3.41261350887728 L11.5,-4.243521622260266 L11.5,-5.073186327053984 L11.5,-5.901535196491551 L11.5,-6.728495918673811 L11.5,-7.553996302881888 " />
			<path d="M11.5,4.1095137745191375 L7.5,4.1095137745191375 " />
			<path d="M11.5,15.890486225480862 L11.5,4.109513774519137 " />
			<path d="M11.5,15.890486225480863 L7.5,15.890486225480863 " />
			<path d="M11.5,27.553996302881906 L11.5,26.728495918673843 L11.5,25.901535196491622 L11.5,25.07318632705409 L11.5,24.24352162226041 L11.5,23.412613508877463 L11.5,22.580534522217263 L11.5,21.74735729980489 L11.5,20.91315457503747 L11.5,20.077999170834836 L11.5,19.241963993282322 L11.5,18.40512202526635 L11.5,17.56754632010326 L11.5,16.729309995162026 L11.5,15.89048622548169 " />
			<path d="M11.5,27.553996302881913 L7.5,27.553996302881913 " />
			<path d="M7.5,38.336439221062534 L11.5,38.336439221062534 " />
			<path d="M11.5,38.33643922106254 L11.5,27.553996302881913 " />
			<path d="M11.5,38.93354185206587 L7.5,38.93354185206587 " />
			<path d="M11.5,38.933541852065865 L11.5,38.336439221062534 " />
			<path d="M11.5,49.80220299255391 L11.5,49.046282480798254 L11.5,48.28695336797448 L11.5,47.52428194080337 L11.5,46.758334777777854 L11.5,45.98917874335086 L11.5,45.21688098209838 L11.5,44.44150891285791 L11.5,43.66313022284309 L11.5,42.88181286173479 L11.5,42.09762503574939 L11.5,41.31063520168459 L11.5,40.52091206094343 L11.5,39.72852455353683 L11.5,38.93354185206663 " />
			<path d="M11.5,49.802202992553845 L7.5,49.802202992553845 " />
			<path d="M7.5,58.85131071190878 L11.5,58.85131071190878 " />
			<path d="M11.5,58.85131071190877 L11.5,49.802202992553845 " />
			<path d="M11.5,60.00482441637132 L7.5,60.00482441637132 " />
			<path d="M11.5,60.00482441637132 L11.5,58.85131071190878 " />
			<path d="M11.5,69.33795532453372 L11.5,68.703129418889 L11.5,68.06317893961207 L11.5,67.41815975209511 L11.5,66.76812816421054 L11.5,66.1131409213954 L11.5,65.45325520169774 L11.5,64.78852861078514 L11.5,64.11901917691597 L11.5,63.44478534587368 L11.5,62.765885975864784 L11.5,62.08238033238065 L11.5,61.39432808302388 L11.5,60.70178929229956 L11.5,60.00482441637205 " />
			<path d="M11.5,69.33795532453362 L7.5,69.33795532453362 " />
			<path d="M7.5,76.03704610834639 L11.5,76.03704610834639 " />
			<path d="M11.5,76.03704610834639 L11.5,69.33795532453362 " />
			<path d="M11.5,77.66836083358055 L7.5,77.66836083358055 " />
			<path d="M11.5,77.66836083358055 L11.5,76.03704610834639 " />
			<path d="M11.5,84.82992406175404 L11.5,84.35945509859057 L11.5,83.88249482045495 L11.5,83.39908486427676 L11.5,82.9092674300194 L11.5,82.4130852769963 L11.5,81.91058172013807 L11.5,81.40180062621131 L11.5,80.88678640998924 L11.5,80.36558403037435 L11.5,79.83823898647373 L11.5,79.30479731362713 L11.5,78.76530557938824 L11.5,78.21981087945952 L11.5,77.66836083358112 " />
			<path d="M11.5,84.82992406175406 L7.5,84.82992406175406 " />
			<path d="M7.5,88.72246594387883 L11.5,88.72246594387883 " />
			<path d="M11.5,88.72246594387884 L11.5,84.82992406175406 " />
			<path d="M11.5,90.72041028723491 L7.5,90.72041028723491 " />
			<path d="M11.5,90.72041028723491 L11.5,88.72246594387883 " />
			<path d="M11.5,95.22235713646243 L11.5,94.94830679813299 L11.5,94.6668407758795 L11.5,94.37798364068087 L11.5,94.08176060873379 L11.5,93.77819753925147 L11.5,93.46732093220616 L11.5,93.14915792601586 L11.5,92.8237362951752 L11.5,92.49108444783079 L11.5,92.15123142330138 L11.5,91.80420688954277 L11.5,91.45004114055789 L11.5,91.08876509375229 L11.5,90.72041028723524 " />
			<path d="M11.5,95.22235713646246 L7.5,95.22235713646246 " />
			<path d="M7.5,96.04307982036198 L11.5,96.04307982036198 " />
			<path d="M11.5,96.043079820362 L11.5,95.22235713646246 " />
			<path d="M11.5,98.27149717659947 L11.5,96.04307982036198 " />
			<path d="M-60.5,-66.0 L-55.5,-66.0 " />
			<path d="M-55.5,-66.0 L-55.5,-74.0 " />
			<path d="M-60.5,-74.0 L-55.5,-74.0 " />
			<path d="M-60.5,-66.0 L-60.5,-74.0 " />
			<path d="M-40.0,-35.0 L-40.0,-36.34357371323969 L-40.0,-37.67025120747577 L-40.0,-38.96334874346201 L-40.0,-40.2066048694107 L-40.0,-41.38438491818404 L-40.0,-42.4818776223048 L-40.0,-43.48528137423857 L-40.0,-44.38197778961636 L-40.0,-45.16069039073941 L-40.0,-45.81162641482903 L-40.0,-46.32659996370041 L-40.0,-46.699134946181886 L-40.0,-46.92454651871891 L-40.0,-47.0 " />
			<path d="M-40.0,-23.0 L-40.0,-23.075453481281087 L-40.0,-23.300865053818114 L-40.0,-23.67340003629959 L-40.0,-24.188373585170968 L-40.0,-24.83930960926059 L-40.0,-25.618022210383643 L-40.0,-26.51471862576143 L-40.0,-27.518122377695196 L-40.0,-28.61561508181596 L-40.0,-29.7933951305893 L-40.0,-31.036651256537994 L-40.0,-32.32974879252423 L-40.0,-33.6564262867603 L-40.0,-34.99999999999989 " />
			<path d="M-36.0,-35.0 L-36.0,-36.34357371323969 L-36.0,-37.67025120747577 L-36.0,-38.96334874346201 L-36.0,-40.2066048694107 L-36.0,-41.38438491818404 L-36.0,-42.4818776223048 L-36.0,-43.48528137423857 L-36.0,-44.38197778961636 L-36.0,-45.16069039073941 L-36.0,-45.81162641482903 L-36.0,-46.32659996370041 L-36.0,-46.699134946181886 L-36.0,-46.92454651871891 L-36.0,-47.0 " />
			<path d="M-36.0,-23.0 L-36.0,-23.075453481281087 L-36.0,-23.300865053818114 L-36.0,-23.67340003629959 L-36.0,-24.188373585170968 L-36.0,-24.83930960926059 L-36.0,-25.618022210383643 L-36.0,-26.51471862576143 L-36.0,-27.518122377695196 L-36.0,-28.61561508181596 L-36.0,-29.7933951305893 L-36.0,-31.036651256537994 L-36.0,-32.32974879252423 L-36.0,-33.6564262867603 L-36.0,-34.99999999999989 " />
			<path d="M-74.5,100.0 L-78.5,100.0 " />
			<path d="M-74.5,-80.0 L-78.5,-80.0 " />
			<path d="M7.5,40.0 L-74.5,40.0 " />
			<path d="M7.5,-20.0 L-74.5,-20.0 " />
			<path d="M-36.0,-23.0 L-40.0,-23.0 " />
			<path d="M-36.0,-47.0 L-40.0,-47.0 " />

       </g>
    </g>
    
</svg>
