<?xml version="1.0" encoding="UTF-8" standalone="no"?>
<svg
   xmlns:svg="http://www.w3.org/2000/svg"
   xmlns="http://www.w3.org/2000/svg"
   width="800.0"
   height="600.0"

>
    <g transform="scale(2.5, -2.5)   translate(73.0,-88.0)" stroke-width="0.4"  fill="none">
       <!-- hidden lines -->
       <g  stroke="rgb(180,180,180)" fill="none" stroke-dasharray="0.4,0.4" >

       </g>

       <!-- solid lines -->
       <g  stroke="rgb(40,40,40)" fill="none">
			<path d="M21.076990950813467,-8.499999999999808 L21.076990950813467,-11.500000000000192 " />
			<path d="M28.923009049186533,-8.499999999999801 L28.923009049186533,-11.500000000000192 " />
			<path d="M115.0,-10.0 L114.99606040444449,-9.157912308854685 L114.98424196267604,-8.315898339596602 L114.96454570935865,-7.474031807658882 L114.9369733688317,-6.632386415567026 L114.90152735495899,-5.7910358464865 L114.85821077091735,-4.9500537577720305 L114.80702740892508,-4.109513774519148 " />
			<path d="M113.27149717659947,7.553996302881885 L113.1033887519881,8.379142809610407 L112.92756717807114,9.202680285464997 L112.74404784742393,10.024536632566111 L112.55284682653398,10.844639900211252 L112.35398085439448,11.662918291174016 L112.14746734103878,12.479300167989681 L111.93332436601615,13.29371405922684 L111.71157067680913,14.106088665744466 L111.48222568719213,14.91635286693391 L111.24530947553184,15.724435726945263 L111.00084278302948,16.530266500897547 L110.74884701190494,17.333774641072203 L110.4893442235231,18.13488980308928 L110.22235713646246,18.933541852065844 " />
			<path d="M105.72041028723496,29.802202992553745 L105.34446638734491,30.55572365194343 L104.96148860517289,31.305693796918682 L104.5715104691093,32.05204777016727 L104.1745661204015,32.79472023096041 L103.77069031016487,33.53364616087308 L103.35991839634045,34.26876086947618 L102.9422863405995,34.99999999999997 L102.51783070519512,35.727299534968246 L102.08658864976145,36.45059580180289 L101.64859792806037,37.16982547839818 L101.2038968846763,37.88492559866436 L100.75252445165937,38.59583355804024 L100.2945201451169,39.302487118973865 L99.82992406175406,40.00482441637127 " />
			<path d="M92.66836083358054,49.33795532453358 L92.11020141391266,49.96849894889879 L91.54616672643989,50.593792536998905 L90.97630615046333,51.21378134652633 L90.40066957532055,51.828411099588685 L89.81930739601808,52.437627987460544 L89.23227050881941,53.041378675294276 L88.63961030678925,53.639610306789294 L88.04137867529425,54.23227050881944 L87.43762798746052,54.819307396018104 L86.82841109958866,55.40066957532056 L86.2137813465263,55.976306150463344 L85.59379253699888,56.54616672643992 L84.96849894889877,57.11020141391268 L84.33795532453357,57.66836083358055 " />
			<path d="M75.00482441637126,64.82992406175407 L74.30248711897386,65.2945201451169 L73.59583355804024,65.75252445165937 L72.88492559866438,66.2038968846763 L72.16982547839818,66.64859792806035 L71.4505958018029,67.08658864976145 L70.72729953496825,67.51783070519512 L69.99999999999997,67.9422863405995 L69.26876086947618,68.35991839634045 L68.53364616087308,68.77069031016487 L67.79472023096042,69.1745661204015 L67.05204777016728,69.57151046910928 L66.30569379691869,69.96148860517289 L65.55572365194344,70.34446638734491 L64.80220299255376,70.72041028723494 " />
			<path d="M53.933541852065865,75.22235713646246 L53.134889803089294,75.4893442235231 L52.33377464107221,75.74884701190494 L51.530266500897554,76.00084278302948 L50.72443572694526,76.24530947553184 L49.916352866933906,76.48222568719213 L49.10608866574445,76.71157067680913 L48.29371405922683,76.93332436601615 L47.47930016798966,77.14746734103878 L46.662918291173995,77.35398085439449 L45.84463990021123,77.55284682653398 L45.02453663256608,77.74404784742393 L44.202680285464965,77.92756717807114 L43.37914280961037,78.10338875198812 L42.553996302881856,78.27149717659948 " />
			<path d="M30.890486225480878,79.80702740892508 L30.04994624222799,79.85821077091735 L29.208964153513513,79.90152735495899 L28.367613584432984,79.9369733688317 L27.52596819234112,79.96454570935865 L26.684101660403396,79.98424196267604 L25.842087691145306,79.99606040444449 L24.999999999999986,80.0 L24.157912308854666,79.99606040444449 L23.315898339596576,79.98424196267604 L22.47403180765885,79.96454570935865 L21.632386415566987,79.9369733688317 L20.79103584648646,79.90152735495899 L19.950053757771983,79.85821077091735 L19.109513774519094,79.80702740892508 " />
			<path d="M7.44600369711808,78.27149717659947 L6.6208571903895574,78.1033887519881 L5.797319714534964,77.92756717807114 L4.975463367433846,77.74404784742391 L4.155360099788705,77.55284682653397 L3.3370817088259415,77.35398085439446 L2.520699832010269,77.14746734103876 L1.7062859407731032,76.93332436601614 L0.8939113342554741,76.71157067680912 L0.08364713306602667,76.48222568719211 L-0.7244357269453268,76.24530947553183 L-1.5302665008976213,76.00084278302946 L-2.3337746410722815,75.74884701190491 L-3.134889803089358,75.48934422352308 L-3.933541852065929,75.22235713646243 " />
			<path d="M-14.80220299255381,70.72041028723491 L-15.555723651943481,70.34446638734488 L-16.30569379691871,69.96148860517287 L-17.052047770167285,69.57151046910928 L-17.794720230960408,69.1745661204015 L-18.53364616087306,68.77069031016487 L-19.268760869476147,68.35991839634048 L-19.999999999999915,67.94228634059952 L-20.727299534968175,67.51783070519517 L-21.4505958018028,67.08658864976151 L-22.169825478398067,66.64859792806043 L-22.884925598664246,66.20389688467638 L-23.595833558040106,65.75252445165945 L-24.3024871189737,65.294520145117 L-25.0048244163711,64.82992406175418 " />
			<path d="M-34.33795532453358,57.668360833580536 L-34.96849894889878,57.11020141391268 L-35.59379253699886,56.546166726439935 L-36.21378134652629,55.97630615046337 L-36.82841109958862,55.400669575320606 L-37.437627987460466,54.81930739601815 L-38.04137867529418,54.2322705088195 L-38.63961030678918,53.63961030678937 L-39.23227050881931,53.041378675294375 L-39.819307396017976,52.43762798746066 L-40.400669575320435,51.82841109958881 L-40.9763061504632,51.21378134652647 L-41.546166726439765,50.593792536999054 L-42.110201413912506,49.96849894889896 L-42.66836083358038,49.33795532453377 " />
			<path d="M-49.829924061754056,40.00482441637128 L-50.294520145116905,39.302487118973886 L-50.75252445165934,38.59583355804028 L-51.203896884676254,37.884925598664424 L-51.64859792806031,37.169825478398245 L-52.086588649761396,36.45059580180299 L-52.51783070519505,35.72729953496835 L-52.94228634059942,35.0000000000001 L-53.35991839634036,34.26876086947633 L-53.77069031016477,33.533646160873246 L-54.174566120401394,32.7947202309606 L-54.571510469109185,32.052047770167476 L-54.961488605172775,31.305693796918902 L-55.34446638734478,30.555723651943673 L-55.72041028723483,29.802202992554008 " />
			<path d="M-60.222357136462435,18.933541852065904 L-60.48934422352308,18.134889803089358 L-60.748847011904914,17.33377464107226 L-61.00084278302947,16.53026650089758 L-61.24530947553184,15.724435726945266 L-61.48222568719214,14.916352866933892 L-61.711570676809146,14.106088665744426 L-61.933324366016166,13.293714059226776 L-62.14746734103879,12.479300167989592 L-62.35398085439451,11.662918291173902 L-62.55284682653402,10.844639900211117 L-62.74404784742396,10.024536632565955 L-62.927567178071186,9.202680285464815 L-63.10338875198816,8.379142809610205 L-63.271497176599524,7.553996302881661 " />
			<path d="M-64.80702740892508,-4.109513774519117 L-64.85821077091735,-4.950053757771986 L-64.90152735495899,-5.791035846486441 L-64.9369733688317,-6.632386415566952 L-64.96454570935865,-7.474031807658793 L-64.98424196267604,-8.3158983395965 L-64.99606040444449,-9.157912308854568 L-65.0,-9.999999999999869 L-64.99606040444449,-10.842087691145169 L-64.98424196267604,-11.68410166040324 L-64.96454570935865,-12.525968192340946 L-64.9369733688317,-13.367613584432787 L-64.90152735495899,-14.208964153513298 L-64.85821077091737,-15.049946242227753 L-64.8070274089251,-15.890486225480622 " />
			<path d="M-63.27149717659947,-27.553996302881913 L-63.103388751988106,-28.379142809610418 L-62.92756717807114,-29.202680285464993 L-62.74404784742393,-30.024536632566086 L-62.55284682653398,-30.844639900211213 L-62.35398085439451,-31.662918291173956 L-62.14746734103879,-32.47930016798961 L-61.93332436601618,-33.29371405922676 L-61.71157067680916,-34.106088665744366 L-61.482225687192155,-34.91635286693379 L-61.24530947553188,-35.72443572694513 L-61.00084278302951,-36.5302665008974 L-60.748847011904985,-37.333774641072054 L-60.48934422352316,-38.13488980308911 L-60.22235713646252,-38.93354185206566 " />
			<path d="M-55.72041028723493,-49.8022029925538 L-55.34446638734488,-50.555723651943474 L-54.961488605172875,-51.3056937969187 L-54.571510469109285,-52.05204777016728 L-54.174566120401494,-52.7947202309604 L-53.77069031016488,-53.533646160873054 L-53.359918396340476,-54.26876086947614 L-52.94228634059954,-54.99999999999991 L-52.51783070519518,-55.72729953496817 L-52.08658864976151,-56.4505958018028 L-51.648597928060425,-57.16982547839806 L-51.20389688467638,-57.884925598664246 L-50.752524451659454,-58.595833558040106 L-50.29452014511702,-59.3024871189737 L-49.829924061754184,-60.0048244163711 " />
			<path d="M-42.66836083358055,-69.33795532453358 L-42.11020141391268,-69.96849894889877 L-41.546166726439935,-70.59379253699886 L-40.97630615046337,-71.21378134652628 L-40.400669575320606,-71.82841109958862 L-39.81930739601815,-72.43762798746047 L-39.23227050881951,-73.04137867529418 L-38.63961030678937,-73.63961030678918 L-38.041378675294375,-74.23227050881931 L-37.43762798746066,-74.81930739601796 L-36.82841109958881,-75.40066957532044 L-36.21378134652648,-75.97630615046319 L-35.59379253699906,-76.54616672643975 L-34.96849894889896,-77.1102014139125 L-34.33795532453378,-77.66836083358037 " />
			<path d="M-25.00482441637132,-84.82992406175403 L-24.302487118973893,-85.29452014511689 L-23.595833558040255,-85.75252445165935 L-22.88492559866436,-86.2038968846763 L-22.16982547839816,-86.64859792806037 L-21.450595801802862,-87.08658864976148 L-20.727299534968196,-87.51783070519515 L-19.999999999999893,-87.94228634059954 L-19.268760869476097,-88.3599183963405 L-18.53364616087297,-88.77069031016492 L-17.79472023096028,-89.17456612040155 L-17.05204777016713,-89.57151046910937 L-16.30569379691852,-89.96148860517297 L-15.555723651943254,-90.34446638734501 L-14.802202992553546,-90.72041028723505 " />
			<path d="M-3.933541852065872,-95.22235713646245 L-3.1348898030892833,-95.4893442235231 L-2.333774641072189,-95.74884701190494 L-1.5302665008975076,-96.00084278302948 L-0.7244357269451918,-96.24530947553185 L0.08364713306618299,-96.48222568719216 L0.8939113342556482,-96.71157067680916 L1.7062859407732986,-96.9333243660162 L2.5206998320104823,-97.14746734103882 L3.337081708826169,-97.35398085439454 L4.1553600997889575,-97.55284682653402 L4.975463367434116,-97.74404784742397 L5.797319714535256,-97.9275671780712 L6.62085719038987,-98.10338875198818 L7.446003697118414,-98.27149717659954 " />
			<path d="M19.10951377451911,-99.80702740892508 L19.950053757772018,-99.85821077091735 L20.791035846486515,-99.90152735495899 L21.632386415567066,-99.9369733688317 L22.474031807658946,-99.96454570935865 L23.315898339596693,-99.98424196267604 L24.157912308854804,-99.99606040444449 L25.000000000000142,-100.0 L25.842087691145483,-99.99606040444449 L26.68410166040359,-99.98424196267604 L27.525968192341338,-99.96454570935863 L28.367613584433222,-99.93697336883169 L29.208964153513772,-99.90152735495897 L30.049946242228266,-99.85821077091734 L30.890486225481176,-99.80702740892505 " />
			<path d="M42.55399630288187,-98.27149717659947 L43.379142809610414,-98.1033887519881 L44.20268028546502,-97.92756717807114 L45.02453663256616,-97.7440478474239 L45.84463990021132,-97.55284682653397 L46.66291829117411,-97.35398085439446 L47.47930016798979,-97.14746734103875 L48.293714059226986,-96.93332436601612 L49.106088665744636,-96.71157067680909 L49.91635286693409,-96.48222568719208 L50.72443572694547,-96.24530947553178 L51.53026650089778,-96.00084278302941 L52.33377464107246,-95.74884701190486 L53.134889803089564,-95.489344223523 L53.93354185206614,-95.22235713646236 " />
			<path d="M64.8022029925538,-90.72041028723493 L65.55572365194351,-90.34446638734488 L66.30569379691877,-89.96148860517285 L67.05204777016738,-89.57151046910924 L67.79472023096054,-89.17456612040142 L68.53364616087322,-88.77069031016478 L69.26876086947635,-88.35991839634036 L70.00000000000014,-87.9422863405994 L70.72729953496844,-87.51783070519502 L71.4505958018031,-87.08658864976132 L72.1698254783984,-86.64859792806023 L72.88492559866461,-86.20389688467614 L73.59583355804051,-85.7525244516592 L74.30248711897414,-85.29452014511673 L75.00482441637155,-84.82992406175387 " />
			<path d="M84.33795532453357,-77.66836083358055 L84.9684989488988,-77.11020141391265 L85.5937925369989,-76.54616672643988 L86.21378134652636,-75.9763061504633 L86.82841109958873,-75.4006695753205 L87.43762798746062,-74.81930739601802 L88.04137867529435,-74.23227050881934 L88.63961030678938,-73.63961030678918 L89.23227050881954,-73.04137867529414 L89.81930739601822,-72.43762798746042 L90.4006695753207,-71.82841109958852 L90.97630615046349,-71.21378134652616 L91.54616672644006,-70.5937925369987 L92.11020141391285,-69.96849894889858 L92.66836083358073,-69.33795532453337 " />
			<path d="M99.82992406175403,-60.00482441637132 L100.29452014511689,-59.30248711897389 L100.75252445165935,-58.59583355804026 L101.2038968846763,-57.884925598664374 L101.64859792806037,-57.16982547839816 L102.08658864976148,-56.45059580180286 L102.51783070519515,-55.727299534968196 L102.94228634059954,-54.9999999999999 L103.35991839634049,-54.2687608694761 L103.77069031016492,-53.533646160872976 L104.17456612040155,-52.79472023096029 L104.57151046910937,-52.052047770167135 L104.96148860517297,-51.30569379691852 L105.34446638734501,-50.555723651943254 L105.72041028723504,-49.80220299255355 " />
			<path d="M110.22235713646245,-38.93354185206588 L110.4893442235231,-38.134889803089294 L110.74884701190494,-37.333774641072196 L111.00084278302948,-36.53026650089751 L111.24530947553185,-35.7244357269452 L111.48222568719216,-34.91635286693382 L111.71157067680916,-34.106088665744366 L111.9333243660162,-33.29371405922671 L112.14746734103882,-32.47930016798952 L112.35398085439454,-31.662918291173835 L112.55284682653402,-30.844639900211053 L112.74404784742397,-30.024536632565887 L112.9275671780712,-29.20268028546475 L113.10338875198818,-28.379142809610137 L113.27149717659954,-27.553996302881593 " />
			<path d="M114.80702740892508,-15.890486225480892 L114.85821077091735,-15.049946242227985 L114.90152735495899,-14.20896415351349 L114.9369733688317,-13.36761358443294 L114.96454570935865,-12.525968192341058 L114.98424196267604,-11.684101660403313 L114.99606040444449,-10.842087691145203 L115.0,-9.999999999999861 " />
			<path d="M29.2,-10.0 L29.196002530643803,-10.183201426934412 L29.184017731985332,-10.366054119540165 L29.164068417770004,-10.548210007324217 L29.136192562651274,-10.729322346201107 L29.10044322990372,-10.909046378540031 L29.056888470414087,-11.087039989430586 L29.005611193142553,-11.262964357917948 L28.946709007300814,-11.436484601967809 L28.880294036547404,-11.607270415933376 L28.80649270555393,-11.774996699310938 L28.72544549934853,-11.939344175587143 L28.637306695894644,-12.1 L28.54224407241412,-12.25665835505666 L28.440438586013766,-12.409021032674392 L28.33208402922319,-12.556798001836626 L28.21738666109971,-12.699707960683465 L28.096564814602523,-12.837478871985773 L27.9698484809835,-12.969848480983499 L27.837478871985773,-13.09656481460252 L27.699707960683465,-13.217386661099706 L27.55679800183663,-13.332084029223186 L27.409021032674396,-13.440438586013764 L27.25665835505666,-13.54224407241412 L27.1,-13.63730669589464 L26.939344175587145,-13.72544549934853 L26.77499669931094,-13.806492705553929 L26.607270415933378,-13.880294036547404 L26.436484601967813,-13.946709007300814 L26.26296435791795,-14.005611193142553 L26.08703998943059,-14.056888470414087 L25.909046378540037,-14.10044322990372 L25.729322346201112,-14.136192562651274 L25.548210007324222,-14.164068417770004 L25.36605411954017,-14.184017731985332 L25.183201426934417,-14.196002530643803 L25.000000000000004,-14.2 L24.816798573065594,-14.196002530643803 L24.63394588045984,-14.184017731985332 L24.45178999267579,-14.164068417770004 L24.2706776537989,-14.136192562651274 L24.090953621459974,-14.100443229903721 L23.912960010569417,-14.056888470414089 L23.73703564208206,-14.005611193142556 L23.563515398032198,-13.946709007300818 L23.39272958406663,-13.880294036547408 L23.225003300689067,-13.806492705553932 L23.060655824412862,-13.725445499348535 L22.900000000000006,-13.637306695894646 L22.743341644943346,-13.542244072414125 L22.59097896732561,-13.44043858601377 L22.443201998163378,-13.332084029223193 L22.300292039316542,-13.217386661099713 L22.162521128014234,-13.096564814602527 L22.030151519016506,-12.969848480983504 L21.903435185397484,-12.837478871985779 L21.782613338900298,-12.699707960683472 L21.667915970776818,-12.556798001836633 L21.559561413986238,-12.409021032674401 L21.457755927585886,-12.256658355056668 L21.362693304105363,-12.100000000000009 L21.274554500651472,-11.93934417558715 L21.193507294446075,-11.774996699310947 L21.1197059634526,-11.607270415933385 L21.05329099269919,-11.436484601967818 L20.99438880685745,-11.262964357917957 L20.943111529585916,-11.087039989430597 L20.899556770096282,-10.909046378540042 L20.86380743734873,-10.729322346201117 L20.835931582229996,-10.548210007324228 L20.815982268014668,-10.366054119540175 L20.803997469356197,-10.183201426934422 L20.8,-10.000000000000012 L20.803997469356197,-9.8167985730656 L20.815982268014668,-9.633945880459848 L20.835931582229996,-9.451789992675796 L20.863807437348726,-9.270677653798906 L20.899556770096275,-9.090953621459981 L20.94311152958591,-8.912960010569424 L20.994388806857444,-8.737035642082066 L21.053290992699182,-8.563515398032203 L21.11970596345259,-8.392729584066636 L21.193507294446064,-8.225003300689075 L21.274554500651462,-8.06065582441287 L21.36269330410535,-7.900000000000013 L21.457755927585872,-7.743341644943352 L21.559561413986227,-7.5909789673256185 L21.667915970776804,-7.443201998163385 L21.782613338900283,-7.300292039316546 L21.90343518539747,-7.162521128014238 L22.03015151901649,-7.030151519016512 L22.162521128014216,-6.903435185397489 L22.300292039316524,-6.782613338900303 L22.44320199816336,-6.667915970776821 L22.590978967325594,-6.559561413986243 L22.743341644943325,-6.457755927585889 L22.899999999999984,-6.362693304105366 L23.06065582441284,-6.274554500651476 L23.225003300689046,-6.193507294446077 L23.392729584066608,-6.119705963452602 L23.563515398032173,-6.053290992699191 L23.737035642082034,-5.994388806857453 L23.912960010569396,-5.943111529585917 L24.09095362145995,-5.899556770096283 L24.270677653798874,-5.863807437348729 L24.451789992675764,-5.835931582229999 L24.633945880459816,-5.81598226801467 L24.81679857306557,-5.803997469356198 L24.999999999999982,-5.8 L25.183201426934392,-5.803997469356196 L25.366054119540145,-5.8159822680146664 L25.548210007324197,-5.8359315822299935 L25.729322346201087,-5.863807437348722 L25.909046378540012,-5.899556770096275 L26.08703998943057,-5.943111529585908 L26.262964357917927,-5.99438880685744 L26.436484601967788,-6.053290992699178 L26.607270415933357,-6.119705963452587 L26.77499669931092,-6.193507294446061 L26.939344175587124,-6.274554500651458 L27.09999999999998,-6.362693304105346 L27.25665835505664,-6.457755927585868 L27.409021032674374,-6.559561413986222 L27.556798001836608,-6.667915970776798 L27.699707960683448,-6.782613338900277 L27.837478871985756,-6.903435185397463 L27.969848480983483,-7.030151519016483 L28.096564814602505,-7.16252112801421 L28.21738666109969,-7.300292039316517 L28.332084029223175,-7.443201998163354 L28.44043858601375,-7.5909789673255865 L28.542244072414107,-7.743341644943319 L28.63730669589463,-7.899999999999979 L28.72544549934852,-8.060655824412835 L28.80649270555392,-8.225003300689039 L28.880294036547394,-8.3927295840666 L28.946709007300807,-8.563515398032168 L29.005611193142546,-8.737035642082029 L29.05688847041408,-8.912960010569387 L29.100443229903714,-9.090953621459942 L29.13619256265127,-9.270677653798867 L29.16406841777,-9.451789992675756 L29.18401773198533,-9.633945880459809 L29.196002530643803,-9.816798573065562 L29.2,-9.999999999999973 " />
			<path d="M30.890486225480775,-99.80702740892508 L31.72930999516151,-99.74807177309728 L32.56754632010282,-99.68128145099789 L33.405122025265996,-99.60666227318362 L34.24196399328205,-99.5242207536423 L35.07799917083464,-99.43396408922426 L35.91315457503735,-99.33590015901413 L36.747357299804854,-99.23003752364292 L37.580534522217306,-99.11638542454075 L38.412613508877584,-98.99495378313017 L39.24352162226061,-98.86575319995995 L40.073186327054366,-98.72879495377981 L40.90153519649198,-98.58409100055567 L41.72849591867428,-98.43165397242606 L42.55399630288242,-98.27149717659937 " />
			<path d="M30.890486225480842,-97.50000000000001 L30.890486225480842,-99.80702740892508 " />
			<path d="M19.10951377451912,-97.50000000000001 L30.890486225480842,-97.50000000000001 " />
			<path d="M19.10951377451913,-99.80702740892508 L19.10951377451913,-97.5 " />
			<path d="M7.4460036971180195,-98.27149717659945 L8.271504081326082,-98.43165397242612 L9.098464803508307,-98.58409100055572 L9.926813672945837,-98.72879495377984 L10.75647837773952,-98.86575319995998 L11.587386491122464,-98.99495378313019 L12.419465477782662,-99.11638542454075 L13.252642700195036,-99.23003752364289 L14.086845424962457,-99.3359001590141 L14.922000829165093,-99.43396408922423 L15.758036006717603,-99.52422075364227 L16.594877974733574,-99.60666227318357 L17.432453679896664,-99.68128145099784 L18.2706900048379,-99.74807177309722 L19.109513774518554,-99.80702740892504 " />
			<path d="M8.043106328121393,-96.04307982036198 L7.446003697118062,-98.27149717659947 " />
			<path d="M-3.336439221062559,-92.99393978022496 L8.043106328121397,-96.04307982036198 " />
			<path d="M-3.9335418520658667,-95.22235713646245 L-3.3364392210625358,-92.99393978022496 " />
			<path d="M-14.802202992553902,-90.72041028723487 L-14.046282480798254,-91.08876509375209 L-13.286953367974476,-91.45004114055773 L-12.52428194080337,-91.80420688954266 L-11.758334777777847,-92.1512314233013 L-10.989178743350855,-92.49108444783074 L-10.216880982098374,-92.82373629517518 L-9.441508912857913,-93.14915792601587 L-8.663130222843087,-93.4673209322062 L-7.881812861734787,-93.77819753925154 L-7.097625035749381,-94.08176060873389 L-6.310635201684587,-94.377983640681 L-5.520912060943427,-94.66684077587965 L-4.728524553536825,-94.94830679813316 L-3.933541852065421,-95.2223571364626 " />
			<path d="M-13.648689288091315,-88.72246594387877 L-14.802202992553863,-90.72041028723488 " />
			<path d="M-23.85131071190879,-82.83197971839792 L-13.648689288091319,-88.72246594387879 " />
			<path d="M-25.00482441637131,-84.82992406175404 L-23.85131071190876,-82.83197971839792 " />
			<path d="M-34.33795532453366,-77.66836083358048 L-33.703129418889,-78.21981087945912 L-33.06317893961206,-78.76530557938786 L-32.4181597520951,-79.30479731362675 L-31.76812816421053,-79.83823898647336 L-31.11314092139539,-80.36558403037398 L-30.45325520169773,-80.88678640998887 L-29.78852861078513,-81.40180062621096 L-29.119019176915955,-81.9105817201377 L-28.444785345873676,-82.41308527699594 L-27.765885975864784,-82.90926743001904 L-27.082380332380644,-83.3990848642764 L-26.39432808302388,-83.88249482045461 L-25.701789292299544,-84.35945509859025 L-25.00482441637179,-84.82992406175372 " />
			<path d="M-32.706640599299455,-76.03704610834637 L-34.3379553245336,-77.66836083358052 " />
			<path d="M-41.037046108346416,-67.70664059929942 L-32.70664059929946,-76.03704610834637 " />
			<path d="M-42.66836083358056,-69.33795532453357 L-41.0370461083464,-67.70664059929942 " />
			<path d="M-49.829924061754085,-60.00482441637123 L-49.35945509859059,-60.70178929229904 L-48.88249482045495,-61.39432808302339 L-48.399084864276716,-62.082380332380204 L-47.90926743001934,-62.76588597586437 L-47.41308527699621,-63.444785345873306 L-46.91058172013797,-64.11901917691561 L-46.401800626211184,-64.78852861078482 L-45.886786409989085,-65.45325520169746 L-45.36558403037418,-66.11314092139516 L-44.83823898647353,-66.76812816421032 L-44.30479731362689,-67.41815975209494 L-43.765305579387984,-68.06317893961192 L-43.21981087945922,-68.70312941888889 L-42.66836083358055,-69.33795532453358 " />
			<path d="M-47.83197971839795,-58.851310711908724 L-49.82992406175407,-60.004824416371264 " />
			<path d="M-53.72246594387883,-48.64868928809125 L-47.83197971839796,-58.851310711908724 " />
			<path d="M-55.72041028723493,-49.80220299255378 L-53.72246594387883,-48.64868928809125 " />
			<path d="M-60.22235713646246,-38.933541852065844 L-59.94830679813303,-39.72852455353721 L-59.66684077587952,-40.52091206094378 L-59.37798364068088,-41.3106352016849 L-59.08176060873379,-42.09762503574965 L-58.77819753925145,-42.88181286173502 L-58.46732093220612,-43.663130222843286 L-58.14915792601582,-44.44150891285807 L-57.823736295175124,-45.216880982098495 L-57.4910844478307,-45.98917874335094 L-57.15123142330128,-46.75833477777789 L-56.804206889542655,-47.524281940803384 L-56.45004114055776,-48.28695336797445 L-56.088765093752116,-49.04628248079819 L-55.72041028723493,-49.8022029925538 " />
			<path d="M-57.993939780225,-38.336439221062534 L-60.22235713646247,-38.933541852065865 " />
			<path d="M-61.043079820362,-26.956893671878586 L-57.993939780224984,-38.33643922106254 " />
			<path d="M-63.271497176599475,-27.553996302881913 L-61.04307982036201,-26.95689367187859 " />
			<path d="M-64.80702740892508,-15.8904862254809 L-64.74807177309727,-16.729309995161593 L-64.68128145099789,-17.56754632010287 L-64.60666227318362,-18.405122025266 L-64.52422075364231,-19.241963993282013 L-64.43396408922428,-20.077999170834563 L-64.33590015901414,-20.91315457503724 L-64.23003752364293,-21.747357299804698 L-64.11638542454078,-22.580534522217114 L-63.9949537831302,-23.41261350887735 L-63.86575319996001,-24.24352162226034 L-63.72879495377987,-25.073186327054056 L-63.58409100055573,-25.901535196491626 L-63.43165397242613,-26.72849591867389 L-63.27149717659945,-27.55399630288199 " />
			<path d="M-62.5,-15.890486225480851 L-64.80702740892508,-15.890486225480851 " />
			<path d="M-62.5,-4.109513774519128 L-62.5,-15.890486225480853 " />
			<path d="M-64.80702740892508,-4.109513774519127 L-62.5,-4.109513774519127 " />
			<path d="M-63.27149717659945,7.553996302881973 L-63.43165397242613,6.728495918673872 L-63.58409100055573,5.901535196491608 L-63.72879495377987,5.073186327054039 L-63.86575319996001,4.243521622260319 L-63.994953783130214,3.4126135088773335 L-64.11638542454078,2.5805345222170963 L-64.23003752364293,1.7473572998046798 L-64.33590015901414,0.9131545750372201 L-64.43396408922428,0.07799917083454488 L-64.52422075364231,-0.7580360067180063 L-64.60666227318362,-1.5948779747340183 L-64.68128145099789,-2.432453679897148 L-64.74807177309727,-3.270690004838422 L-64.80702740892508,-4.109513774519117 " />
			<path d="M-61.04307982036198,6.956893671878619 L-63.27149717659946,7.55399630288195 " />
			<path d="M-57.99393978022496,18.336439221062577 L-61.04307982036199,6.956893671878619 " />
			<path d="M-60.222357136462435,18.933541852065908 L-57.99393978022497,18.336439221062577 " />
			<path d="M-55.72041028723491,29.802202992553823 L-56.088765093752116,29.04628248079821 L-56.450041140557744,28.28695336797447 L-56.80420688954264,27.524281940803405 L-57.15123142330127,26.75833477777791 L-57.4910844478307,25.989178743350962 L-57.82373629517511,25.216880982098516 L-58.1491579260158,24.44150891285809 L-58.46732093220612,23.6631302228433 L-58.77819753925144,22.881812861735042 L-59.081760608733774,22.097625035749672 L-59.37798364068087,21.310635201684924 L-59.66684077587952,20.520912060943804 L-59.94830679813303,19.728524553537238 L-60.22235713646246,18.93354185206587 " />
			<path d="M-53.72246594387884,28.648689288091283 L-55.72041028723493,29.802202992553813 " />
			<path d="M-47.83197971839798,38.851310711908766 L-53.722465943878845,28.648689288091283 " />
			<path d="M-49.82992406175407,40.00482441637129 L-47.83197971839797,38.85131071190876 " />
			<path d="M-42.66836083358052,49.33795532453359 L-43.2198108794592,48.7031294188889 L-43.76530557938797,48.06317893961194 L-44.30479731362689,47.418159752094944 L-44.83823898647351,46.76812816421034 L-45.36558403037415,46.113140921395164 L-45.886786409989085,45.45325520169748 L-46.40180062621117,44.78852861078484 L-46.91058172013794,44.119019176915636 L-47.41308527699621,43.44478534587331 L-47.90926743001933,42.765885975864386 L-48.399084864276716,42.08238033238021 L-48.88249482045494,41.39432808302341 L-49.35945509859059,40.70178929229905 L-49.82992406175407,40.00482441637125 " />
			<path d="M-41.037046108346374,47.70664059929945 L-42.66836083358052,49.337955324533596 " />
			<path d="M-32.706640599299426,56.03704610834639 L-41.03704610834636,47.70664059929945 " />
			<path d="M-34.33795532453358,57.668360833580536 L-32.70664059929942,56.037046108346374 " />
			<path d="M-25.004824416371235,64.82992406175408 L-25.70178929229904,64.35945509859059 L-26.394328083023403,63.88249482045494 L-27.082380332380204,63.399084864276716 L-27.76588597586437,62.90926743001934 L-28.444785345873306,62.41308527699621 L-29.11901917691562,61.910581720137955 L-29.78852861078483,61.401800626211184 L-30.45325520169746,60.886786409989085 L-31.113140921395157,60.365584030374166 L-31.768128164210324,59.83823898647351 L-32.41815975209493,59.30479731362689 L-33.063178939611916,58.765305579387984 L-33.70312941888889,58.21981087945922 L-34.33795532453358,57.668360833580536 " />
			<path d="M-23.85131071190872,62.831979718397974 L-25.004824416371257,64.82992406175407 " />
			<path d="M-13.648689288091244,68.72246594387884 L-23.85131071190872,62.83197971839798 " />
			<path d="M-14.802202992553788,70.72041028723493 L-13.648689288091255,68.72246594387883 " />
			<path d="M-3.9335418520658685,75.22235713646246 L-4.728524553537241,74.94830679813303 L-5.520912060943804,74.66684077587952 L-6.310635201684924,74.37798364068087 L-7.097625035749672,74.08176060873377 L-7.8818128617350425,73.77819753925144 L-8.6631302228433,73.46732093220612 L-9.44150891285809,73.1491579260158 L-10.216880982098516,72.82373629517511 L-10.989178743350962,72.4910844478307 L-11.758334777777918,72.15123142330127 L-12.524281940803391,71.80420688954266 L-13.286953367974455,71.45004114055774 L-14.046282480798197,71.08876509375212 L-14.80220299255381,70.72041028723491 " />
			<path d="M-3.3364392210625358,72.99393978022499 L-3.9335418520658667,75.22235713646248 " />
			<path d="M8.043106328121418,76.04307982036201 L-3.3364392210625367,72.99393978022499 " />
			<path d="M7.446003697118069,78.27149717659947 L8.043106328121397,76.043079820362 " />
			<path d="M19.109513774519137,79.80702740892508 L18.27069000483844,79.74807177309728 L17.432453679897165,79.68128145099789 L16.594877974734032,79.60666227318362 L15.758036006718022,79.52422075364231 L14.922000829165471,79.43396408922429 L14.086845424962796,79.33590015901414 L13.252642700195336,79.23003752364293 L12.419465477782921,79.11638542454078 L11.587386491122684,78.99495378313021 L10.756478377739699,78.86575319996001 L9.926813672945975,78.72879495377987 L9.098464803508406,78.58409100055573 L8.271504081326142,78.43165397242615 L7.446003697118041,78.27149717659947 " />
			<path d="M19.10951377451914,77.5 L19.10951377451914,79.80702740892508 " />
			<path d="M30.89048622548087,77.5 L19.109513774519144,77.5 " />
			<path d="M30.890486225480853,79.80702740892508 L30.890486225480853,77.5 " />
			<path d="M42.55399630288191,78.27149717659947 L41.72849591867381,78.43165397242616 L40.901535196491544,78.58409100055573 L40.073186327053975,78.72879495377987 L39.24352162226025,78.86575319996003 L38.41261350887727,78.99495378313021 L37.58053452221703,79.11638542454078 L36.74735729980461,79.23003752364295 L35.913154575037154,79.33590015901416 L35.07799917083448,79.43396408922429 L34.24196399328193,79.52422075364231 L33.40512202526592,79.60666227318363 L32.567546320102785,79.6812814509979 L31.72930999516151,79.74807177309728 L30.890486225480817,79.80702740892508 " />
			<path d="M41.956893671878575,76.04307982036198 L42.55399630288191,78.27149717659947 " />
			<path d="M53.33643922106255,72.99393978022496 L41.95689367187859,76.04307982036198 " />
			<path d="M53.93354185206586,75.22235713646246 L53.33643922106252,72.99393978022496 " />
			<path d="M64.80220299255382,70.72041028723491 L64.0462824807982,71.08876509375212 L63.28695336797446,71.45004114055774 L62.5242819408034,71.80420688954264 L61.758334777777904,72.15123142330128 L60.989178743350955,72.4910844478307 L60.21688098209851,72.82373629517511 L59.44150891285808,73.1491579260158 L58.6631302228433,73.46732093220612 L57.881812861735035,73.77819753925144 L57.09762503574967,74.08176060873377 L56.31063520168492,74.37798364068087 L55.5209120609438,74.66684077587952 L54.72852455353723,74.94830679813303 L53.933541852065865,75.22235713646246 " />
			<path d="M63.64868928809128,68.72246594387882 L64.80220299255382,70.72041028723493 " />
			<path d="M73.85131071190877,62.83197971839797 L63.64868928809128,68.72246594387883 " />
			<path d="M75.00482441637126,64.82992406175407 L73.85131071190874,62.831979718397974 " />
			<path d="M84.3379553245336,57.668360833580536 L83.70312941888889,58.2198108794592 L83.06317893961193,58.76530557938797 L82.41815975209494,59.30479731362689 L81.76812816421034,59.83823898647351 L81.11314092139517,60.365584030374166 L80.45325520169746,60.886786409989085 L79.78852861078484,61.40180062621117 L79.11901917691563,61.910581720137955 L78.44478534587331,62.41308527699621 L77.76588597586439,62.90926743001933 L77.08238033238021,63.399084864276716 L76.39432808302341,63.88249482045494 L75.70178929229905,64.35945509859059 L75.00482441637124,64.82992406175407 " />
			<path d="M82.70664059929945,56.037046108346374 L84.3379553245336,57.668360833580536 " />
			<path d="M91.03704610834637,47.70664059929943 L82.70664059929943,56.037046108346374 " />
			<path d="M92.66836083358052,49.33795532453359 L91.03704610834637,47.70664059929943 " />
			<path d="M99.82992406175406,40.00482441637127 L99.35945509859056,40.701789292299075 L98.88249482045492,41.39432808302344 L98.39908486427669,42.08238033238024 L97.90926743001931,42.765885975864414 L97.41308527699618,43.44478534587335 L96.91058172013794,44.11901917691566 L96.40180062621116,44.788528610784866 L95.88678640998906,45.4532552016975 L95.36558403037415,46.11314092139519 L94.8382389864735,46.76812816421036 L94.30479731362686,47.41815975209497 L93.76530557938794,48.06317893961195 L93.21981087945919,48.70312941888893 L92.66836083358051,49.33795532453361 " />
			<path d="M97.83197971839795,38.851310711908724 L99.82992406175407,40.004824416371264 " />
			<path d="M103.72246594387882,28.64868928809125 L97.83197971839796,38.85131071190874 " />
			<path d="M105.72041028723493,29.802202992553788 L103.72246594387883,28.64868928809126 " />
			<path d="M110.22235713646246,18.933541852065858 L109.94830679813303,19.728524553537227 L109.66684077587952,20.520912060943786 L109.37798364068088,21.310635201684914 L109.08176060873379,22.097625035749665 L108.77819753925144,22.88181286173503 L108.46732093220612,23.663130222843293 L108.1491579260158,24.441508912858083 L107.82373629517512,25.216880982098502 L107.4910844478307,25.989178743350948 L107.15123142330128,26.758334777777904 L106.80420688954264,27.52428194080339 L106.45004114055774,28.286953367974462 L106.08876509375212,29.046282480798197 L105.72041028723491,29.802202992553816 " />
			<path d="M107.99393978022498,18.336439221062534 L110.22235713646246,18.933541852065865 " />
			<path d="M111.04307982036201,6.956893671878584 L107.99393978022499,18.336439221062545 " />
			<path d="M113.27149717659947,7.5539963028819095 L111.043079820362,6.956893671878582 " />
			<path d="M114.80702740892508,-4.1095137745191375 L114.74807177309728,-3.270690004838446 L114.68128145099789,-2.4324536798971756 L114.60666227318362,-1.5948779747340485 L114.52422075364231,-0.7580360067180418 L114.43396408922429,0.07799917083450758 L114.33590015901416,0.9131545750371792 L114.23003752364293,1.7473572998046336 L114.11638542454078,2.5805345222170466 L113.99495378313021,3.41261350887728 L113.86575319996003,4.243521622260266 L113.72879495377987,5.073186327053984 L113.58409100055573,5.901535196491551 L113.43165397242615,6.728495918673811 L113.27149717659947,7.553996302881913 " />
			<path d="M112.5,-4.1095137745191375 L114.80702740892508,-4.1095137745191375 " />
			<path d="M112.5,-15.890486225480862 L112.5,-4.109513774519137 " />
			<path d="M114.80702740892508,-15.890486225480863 L112.5,-15.890486225480863 " />
			<path d="M113.27149717659947,-27.553996302881906 L113.43165397242615,-26.728495918673843 L113.58409100055573,-25.901535196491622 L113.72879495377985,-25.07318632705409 L113.86575319996,-24.24352162226041 L113.99495378313019,-23.412613508877463 L114.11638542454075,-22.580534522217263 L114.2300375236429,-21.74735729980489 L114.33590015901412,-20.91315457503747 L114.43396408922425,-20.077999170834836 L114.52422075364227,-19.241963993282322 L114.60666227318357,-18.40512202526635 L114.68128145099786,-17.56754632010326 L114.74807177309724,-16.729309995162026 L114.80702740892504,-15.890486225481371 " />
			<path d="M111.043079820362,-26.956893671878582 L113.27149717659947,-27.55399630288191 " />
			<path d="M107.99393978022498,-38.33643922106254 L111.043079820362,-26.956893671878582 " />
			<path d="M110.22235713646245,-38.933541852065865 L107.99393978022496,-38.336439221062534 " />
			<path d="M105.72041028723487,-49.80220299255391 L106.08876509375209,-49.046282480798254 L106.45004114055773,-48.28695336797448 L106.80420688954266,-47.52428194080337 L107.1512314233013,-46.758334777777854 L107.49108444783073,-45.98917874335086 L107.82373629517518,-45.21688098209838 L108.14915792601587,-44.44150891285791 L108.4673209322062,-43.66313022284309 L108.77819753925154,-42.88181286173479 L109.08176060873389,-42.09762503574939 L109.377983640681,-41.31063520168459 L109.66684077587965,-40.52091206094343 L109.94830679813316,-39.72852455353683 L110.2223571364626,-38.933541852065424 " />
			<path d="M103.72246594387879,-48.648689288091305 L105.7204102872349,-49.80220299255384 " />
			<path d="M97.83197971839792,-58.85131071190877 L103.72246594387879,-48.6486892880913 " />
			<path d="M99.82992406175403,-60.00482441637132 L97.83197971839793,-58.85131071190878 " />
			<path d="M92.66836083358042,-69.33795532453372 L93.21981087945912,-68.703129418889 L93.76530557938786,-68.06317893961207 L94.30479731362675,-67.41815975209511 L94.83823898647336,-66.76812816421054 L95.36558403037398,-66.1131409213954 L95.88678640998887,-65.45325520169774 L96.40180062621094,-64.78852861078514 L96.9105817201377,-64.11901917691597 L97.41308527699594,-63.44478534587368 L97.90926743001904,-62.765885975864784 L98.3990848642764,-62.08238033238065 L98.88249482045461,-61.39432808302388 L99.35945509859025,-60.70178929229956 L99.82992406175372,-60.00482441637179 " />
			<path d="M91.03704610834635,-67.70664059929945 L92.66836083358051,-69.33795532453361 " />
			<path d="M82.70664059929942,-76.03704610834639 L91.03704610834636,-67.70664059929945 " />
			<path d="M84.33795532453358,-77.66836083358055 L82.70664059929942,-76.03704610834639 " />
			<path d="M75.00482441637129,-84.82992406175404 L75.70178929229905,-84.35945509859057 L76.3943280830234,-83.88249482045495 L77.08238033238015,-83.39908486427676 L77.76588597586431,-82.9092674300194 L78.44478534587321,-82.4130852769963 L79.11901917691549,-81.91058172013807 L79.78852861078465,-81.40180062621131 L80.45325520169726,-80.88678640998924 L81.11314092139492,-80.36558403037435 L81.76812816421007,-79.83823898647373 L82.41815975209464,-79.30479731362713 L83.0631789396116,-78.76530557938824 L83.70312941888855,-78.21981087945952 L84.33795532453321,-77.66836083358086 " />
			<path d="M73.85131071190872,-82.83197971839796 L75.00482441637126,-84.82992406175407 " />
			<path d="M63.64868928809126,-88.72246594387884 L73.85131071190874,-82.83197971839797 " />
			<path d="M64.80220299255382,-90.72041028723491 L63.64868928809129,-88.72246594387883 " />
			<path d="M53.933541852065915,-95.22235713646243 L54.728524553537326,-94.94830679813299 L55.52091206094384,-94.6668407758795 L56.31063520168493,-94.37798364068087 L57.09762503574965,-94.08176060873379 L57.88181286173497,-93.77819753925147 L58.6631302228432,-93.46732093220616 L59.44150891285795,-93.14915792601586 L60.216880982098345,-92.8237362951752 L60.98917874335075,-92.49108444783079 L61.75833477777767,-92.15123142330138 L62.52428194080312,-91.80420688954277 L63.28695336797416,-91.45004114055789 L64.04628248079786,-91.08876509375229 L64.80220299255345,-90.7204102872351 " />
			<path d="M53.3364392210625,-92.99393978022498 L53.93354185206583,-95.22235713646246 " />
			<path d="M41.95689367187854,-96.043079820362 L53.33643922106249,-92.99393978022499 " />
			<path d="M42.55399630288188,-98.27149717659947 L41.95689367187855,-96.04307982036198 " />
			<path d="M49.58177136538822,74.0 L53.60601224448832,74.0 " />

       </g>
    </g>
    
</svg>
