<?xml version="1.0" encoding="UTF-8" standalone="no"?>
<svg
   xmlns:svg="http://www.w3.org/2000/svg"
   xmlns="http://www.w3.org/2000/svg"
   width="800.0"
   height="600.0"

>
    <g transform="scale(2.4999999972222207, -2.4999999972222207)   translate(19.50000010888889,-123.000000108889)" stroke-width="0.4"  fill="none">
       <!-- hidden lines -->
       <g  stroke="rgb(180,180,180)" fill="none" stroke-dasharray="0.4,0.4" >

       </g>

       <!-- solid lines -->
       <g  stroke="rgb(40,40,40)" fill="none">
			<path d="M80.0,0.0 L78.5,0.0 " />
			<path d="M74.5,0.0 L0.0,0.0 " />
			<path d="M80.0,0.0 L80.0,21.076990950813467 " />
			<path d="M80.00000000000003,21.076990950813403 L79.8396187505152,21.01936919530734 L79.67703195910671,20.968301131378805 L79.51250730789275,20.923870837244753 L79.3463156694746,20.886151462729607 L79.17873066097343,20.855205108831733 L79.01002819354814,20.83108272548063 L78.84048601813677,20.813824027653236 L78.67038326816856,20.803457429987372 L78.5,20.8 " />
			<path d="M74.5,3.0 L0.0,3.0 " />
			<path d="M0.0,0.0 L0.0,3.0 " />
			<path d="M80.0,28.923009049186533 L80.0,40.0 " />
			<path d="M78.5,29.2 L78.67038326816856,29.196542570012628 L78.84048601813677,29.186175972346764 L79.01002819354814,29.168917274519373 L79.17873066097343,29.144794891168267 L79.3463156694746,29.113848537270393 L79.51250730789275,29.076129162755247 L79.67703195910671,29.031698868621195 L79.8396187505152,28.98063080469266 L80.00000000000003,28.923009049186597 " />
			<path d="M80.0,40.0 L78.5,40.0 " />
			<path d="M0.0,-15.0 L-3.0,-15.0 " />
			<path d="M0.0,-15.0 L0.0,0.0 " />
			<path d="M0.0,0.0 L-3.0,0.0 " />
			<path d="M-3.0,-15.0 L-3.0,0.0 " />
			<path d="M78.5,115.0 L74.5,115.0 " />
			<path d="M78.5,-65.0 L78.5,-62.74351209636413 L78.5,-56.08719811121772 L78.5,-45.364833422122686 L78.5,-31.114082167286035 L78.5,-14.049536520580247 L78.5,4.973115943931688 L78.5,24.999999999999982 L78.5,45.02688405606828 L78.5,64.04953652058022 L78.5,81.114082167286 L78.5,95.36483342212267 L78.5,106.08719811121772 L78.5,112.74351209636411 L78.5,114.99999999999991 " />
			<path d="M74.5,-65.0 L74.5,-62.74351209636413 L74.5,-56.08719811121772 L74.5,-45.364833422122686 L74.5,-31.114082167286035 L74.5,-14.049536520580247 L74.5,4.973115943931688 L74.5,24.999999999999982 L74.5,45.02688405606828 L74.5,64.04953652058022 L74.5,81.114082167286 L74.5,95.36483342212267 L74.5,106.08719811121772 L74.5,112.74351209636411 L74.5,114.99999999999991 " />
			<path d="M74.5,55.0 L-7.5,55.0 " />
			<path d="M-7.5,30.890486225480775 L-7.5,31.72930999516151 L-7.5,32.56754632010282 L-7.5,33.405122025265996 L-7.5,34.24196399328205 L-7.5,35.07799917083464 L-7.5,35.91315457503735 L-7.5,36.747357299804854 L-7.5,37.580534522217306 L-7.5,38.412613508877584 L-7.5,39.24352162226061 L-7.5,40.073186327054366 L-7.5,40.90153519649198 L-7.5,41.72849591867428 L-7.5,42.55399630288117 " />
			<path d="M-7.5,19.10951377451912 L-7.5,30.890486225480842 " />
			<path d="M-7.5,7.4460036971180195 L-7.5,8.271504081326082 L-7.5,9.098464803508307 L-7.5,9.926813672945837 L-7.5,10.75647837773952 L-7.5,11.587386491122464 L-7.5,12.419465477782662 L-7.5,13.252642700195036 L-7.5,14.086845424962457 L-7.5,14.922000829165093 L-7.5,15.758036006717603 L-7.5,16.594877974733574 L-7.5,17.432453679896664 L-7.5,18.2706900048379 L-7.5,19.109513774518234 " />
			<path d="M-7.5,-3.336439221062559 L-7.5,7.446003697118062 " />
			<path d="M-7.5,-3.9335418520658667 L-7.5,-3.3364392210625358 " />
			<path d="M-7.5,-14.802202992553902 L-7.5,-14.046282480798254 L-7.5,-13.286953367974476 L-7.5,-12.52428194080337 L-7.5,-11.758334777777847 L-7.5,-10.989178743350855 L-7.5,-10.216880982098374 L-7.5,-9.441508912857913 L-7.5,-8.663130222843087 L-7.5,-7.881812861734787 L-7.5,-7.097625035749381 L-7.5,-6.310635201684587 L-7.5,-5.520912060943427 L-7.5,-4.728524553536825 L-7.5,-3.933541852066628 " />
			<path d="M-7.5,-23.85131071190879 L-7.5,-14.802202992553873 " />
			<path d="M-7.5,-25.00482441637131 L-7.5,-23.85131071190876 " />
			<path d="M-7.5,-34.33795532453366 L-7.5,-33.703129418889 L-7.5,-33.06317893961206 L-7.5,-32.4181597520951 L-7.5,-31.76812816421053 L-7.5,-31.11314092139539 L-7.5,-30.45325520169773 L-7.5,-29.78852861078513 L-7.5,-29.119019176915955 L-7.5,-28.444785345873676 L-7.5,-27.765885975864784 L-7.5,-27.082380332380644 L-7.5,-26.39432808302388 L-7.5,-25.701789292299544 L-7.5,-25.004824416372053 " />
			<path d="M-7.5,-41.037046108346416 L-7.5,-34.33795532453361 " />
			<path d="M-7.5,-42.66836083358056 L-7.5,-41.0370461083464 " />
			<path d="M-7.5,-49.829924061754085 L-7.5,-49.35945509859059 L-7.5,-48.88249482045495 L-7.5,-48.399084864276716 L-7.5,-47.90926743001934 L-7.5,-47.41308527699621 L-7.5,-46.91058172013797 L-7.5,-46.401800626211184 L-7.5,-45.886786409989085 L-7.5,-45.36558403037418 L-7.5,-44.83823898647353 L-7.5,-44.30479731362689 L-7.5,-43.765305579387984 L-7.5,-43.21981087945922 L-7.5,-42.66836083358083 " />
			<path d="M-7.5,-53.72246594387883 L-7.5,-49.829924061754056 " />
			<path d="M-7.5,-55.72041028723493 L-7.5,-53.72246594387883 " />
			<path d="M-7.5,-60.22235713646246 L-7.5,-59.94830679813303 L-7.5,-59.66684077587952 L-7.5,-59.37798364068088 L-7.5,-59.08176060873379 L-7.5,-58.77819753925145 L-7.5,-58.46732093220612 L-7.5,-58.14915792601582 L-7.5,-57.823736295175124 L-7.5,-57.4910844478307 L-7.5,-57.15123142330128 L-7.5,-56.804206889542655 L-7.5,-56.45004114055776 L-7.5,-56.088765093752116 L-7.5,-55.720410287235104 " />
			<path d="M-7.5,-61.043079820362 L-7.5,-60.22235713646245 " />
			<path d="M-7.5,-63.271497176599475 L-7.5,-61.04307982036201 " />
			<path d="M-7.5,-64.80702740892508 L-7.5,-64.74807177309727 L-7.5,-64.68128145099789 L-7.5,-64.60666227318362 L-7.5,-64.52422075364231 L-7.5,-64.43396408922428 L-7.5,-64.33590015901414 L-7.5,-64.23003752364293 L-7.5,-64.11638542454078 L-7.5,-63.9949537831302 L-7.5,-63.86575319996001 L-7.5,-63.72879495377987 L-7.5,-63.58409100055573 L-7.5,-63.43165397242613 L-7.5,-63.271497176599546 " />
			<path d="M-7.5,113.27149717659947 L-7.5,113.43165397242615 L-7.5,113.58409100055573 L-7.5,113.72879495377985 L-7.5,113.86575319996 L-7.5,113.99495378313019 L-7.5,114.11638542454075 L-7.5,114.2300375236429 L-7.5,114.33590015901412 L-7.5,114.43396408922425 L-7.5,114.52422075364227 L-7.5,114.60666227318357 L-7.5,114.68128145099786 L-7.5,114.74807177309724 L-7.5,114.80702740892502 " />
			<path d="M-7.5,111.043079820362 L-7.5,113.27149717659947 " />
			<path d="M-7.5,110.22235713646245 L-7.5,111.043079820362 " />
			<path d="M-7.5,105.72041028723487 L-7.5,106.08876509375209 L-7.5,106.45004114055773 L-7.5,106.80420688954266 L-7.5,107.1512314233013 L-7.5,107.49108444783073 L-7.5,107.82373629517518 L-7.5,108.14915792601587 L-7.5,108.4673209322062 L-7.5,108.77819753925154 L-7.5,109.08176060873389 L-7.5,109.377983640681 L-7.5,109.66684077587965 L-7.5,109.94830679813316 L-7.5,110.2223571364622 " />
			<path d="M-7.5,103.72246594387879 L-7.5,105.7204102872349 " />
			<path d="M-7.5,99.82992406175404 L-7.5,103.72246594387879 " />
			<path d="M-7.5,92.66836083358042 L-7.5,93.21981087945912 L-7.5,93.76530557938786 L-7.5,94.30479731362675 L-7.5,94.83823898647336 L-7.5,95.36558403037398 L-7.5,95.88678640998887 L-7.5,96.40180062621094 L-7.5,96.9105817201377 L-7.5,97.41308527699594 L-7.5,97.90926743001904 L-7.5,98.3990848642764 L-7.5,98.88249482045461 L-7.5,99.35945509859025 L-7.5,99.82992406175354 " />
			<path d="M-7.5,91.03704610834635 L-7.5,92.66836083358051 " />
			<path d="M-7.5,84.33795532453357 L-7.5,91.03704610834636 " />
			<path d="M-7.5,75.00482441637129 L-7.5,75.70178929229905 L-7.5,76.3943280830234 L-7.5,77.08238033238015 L-7.5,77.76588597586431 L-7.5,78.44478534587321 L-7.5,79.11901917691549 L-7.5,79.78852861078465 L-7.5,80.45325520169726 L-7.5,81.11314092139492 L-7.5,81.76812816421007 L-7.5,82.41815975209464 L-7.5,83.0631789396116 L-7.5,83.70312941888855 L-7.5,84.33795532453291 " />
			<path d="M-7.5,73.85131071190872 L-7.5,75.00482441637126 " />
			<path d="M-7.5,64.80220299255382 L-7.5,73.85131071190874 " />
			<path d="M-7.5,53.933541852065915 L-7.5,54.728524553537326 L-7.5,55.52091206094384 L-7.5,56.31063520168493 L-7.5,57.09762503574965 L-7.5,57.88181286173497 L-7.5,58.6631302228432 L-7.5,59.44150891285795 L-7.5,60.216880982098345 L-7.5,60.98917874335075 L-7.5,61.75833477777767 L-7.5,62.52428194080312 L-7.5,63.28695336797416 L-7.5,64.04628248079786 L-7.5,64.80220299255315 " />
			<path d="M-7.5,53.3364392210625 L-7.5,53.93354185206583 " />
			<path d="M-7.5,42.553996302881885 L-7.5,53.33643922106249 " />
			<path d="M-11.5,42.553996302881885 L-7.5,42.553996302881885 " />
			<path d="M-11.5,30.890486225480775 L-11.5,31.72930999516151 L-11.5,32.56754632010282 L-11.5,33.405122025265996 L-11.5,34.24196399328205 L-11.5,35.07799917083464 L-11.5,35.91315457503735 L-11.5,36.747357299804854 L-11.5,37.580534522217306 L-11.5,38.412613508877584 L-11.5,39.24352162226061 L-11.5,40.073186327054366 L-11.5,40.90153519649198 L-11.5,41.72849591867428 L-11.5,42.55399630288117 " />
			<path d="M-11.5,30.890486225480842 L-7.5,30.890486225480842 " />
			<path d="M-11.5,19.10951377451912 L-11.5,30.890486225480842 " />
			<path d="M-11.5,19.10951377451913 L-7.5,19.10951377451913 " />
			<path d="M-11.5,7.4460036971180195 L-11.5,8.271504081326082 L-11.5,9.098464803508307 L-11.5,9.926813672945837 L-11.5,10.75647837773952 L-11.5,11.587386491122464 L-11.5,12.419465477782662 L-11.5,13.252642700195036 L-11.5,14.086845424962457 L-11.5,14.922000829165093 L-11.5,15.758036006717603 L-11.5,16.594877974733574 L-11.5,17.432453679896664 L-11.5,18.2706900048379 L-11.5,19.109513774518234 " />
			<path d="M-11.5,7.446003697118062 L-7.5,7.446003697118062 " />
			<path d="M-7.5,-3.336439221062534 L-11.5,-3.336439221062534 " />
			<path d="M-11.5,-3.336439221062559 L-11.5,7.446003697118062 " />
			<path d="M-11.5,-3.9335418520658685 L-7.5,-3.9335418520658685 " />
			<path d="M-11.5,-3.9335418520658667 L-11.5,-3.3364392210625358 " />
			<path d="M-11.5,-14.802202992553902 L-11.5,-14.046282480798254 L-11.5,-13.286953367974476 L-11.5,-12.52428194080337 L-11.5,-11.758334777777847 L-11.5,-10.989178743350855 L-11.5,-10.216880982098374 L-11.5,-9.441508912857913 L-11.5,-8.663130222843087 L-11.5,-7.881812861734787 L-11.5,-7.097625035749381 L-11.5,-6.310635201684587 L-11.5,-5.520912060943427 L-11.5,-4.728524553536825 L-11.5,-3.933541852066628 " />
			<path d="M-11.5,-14.802202992553873 L-7.5,-14.802202992553873 " />
			<path d="M-7.5,-23.851310711908766 L-11.5,-23.851310711908766 " />
			<path d="M-11.5,-23.85131071190879 L-11.5,-14.802202992553873 " />
			<path d="M-11.5,-25.004824416371314 L-7.5,-25.004824416371314 " />
			<path d="M-11.5,-25.00482441637131 L-11.5,-23.85131071190876 " />
			<path d="M-11.5,-34.33795532453366 L-11.5,-33.703129418889 L-11.5,-33.06317893961206 L-11.5,-32.4181597520951 L-11.5,-31.76812816421053 L-11.5,-31.11314092139539 L-11.5,-30.45325520169773 L-11.5,-29.78852861078513 L-11.5,-29.119019176915955 L-11.5,-28.444785345873676 L-11.5,-27.765885975864784 L-11.5,-27.082380332380644 L-11.5,-26.39432808302388 L-11.5,-25.701789292299544 L-11.5,-25.004824416372053 " />
			<path d="M-11.5,-34.33795532453361 L-7.5,-34.33795532453361 " />
			<path d="M-7.5,-41.0370461083464 L-11.5,-41.0370461083464 " />
			<path d="M-11.5,-41.037046108346416 L-11.5,-34.33795532453361 " />
			<path d="M-11.5,-42.668360833580564 L-7.5,-42.668360833580564 " />
			<path d="M-11.5,-42.66836083358056 L-11.5,-41.0370461083464 " />
			<path d="M-11.5,-49.829924061754085 L-11.5,-49.35945509859059 L-11.5,-48.88249482045495 L-11.5,-48.399084864276716 L-11.5,-47.90926743001934 L-11.5,-47.41308527699621 L-11.5,-46.91058172013797 L-11.5,-46.401800626211184 L-11.5,-45.886786409989085 L-11.5,-45.36558403037418 L-11.5,-44.83823898647353 L-11.5,-44.30479731362689 L-11.5,-43.765305579387984 L-11.5,-43.21981087945922 L-11.5,-42.66836083358083 " />
			<path d="M-11.5,-49.829924061754056 L-7.5,-49.829924061754056 " />
			<path d="M-7.5,-53.72246594387883 L-11.5,-53.72246594387883 " />
			<path d="M-11.5,-53.72246594387883 L-11.5,-49.829924061754056 " />
			<path d="M-11.5,-55.72041028723493 L-7.5,-55.72041028723493 " />
			<path d="M-11.5,-55.72041028723493 L-11.5,-53.72246594387883 " />
			<path d="M-11.5,-60.22235713646246 L-11.5,-59.94830679813303 L-11.5,-59.66684077587952 L-11.5,-59.37798364068088 L-11.5,-59.08176060873379 L-11.5,-58.77819753925145 L-11.5,-58.46732093220612 L-11.5,-58.14915792601582 L-11.5,-57.823736295175124 L-11.5,-57.4910844478307 L-11.5,-57.15123142330128 L-11.5,-56.804206889542655 L-11.5,-56.45004114055776 L-11.5,-56.088765093752116 L-11.5,-55.720410287235104 " />
			<path d="M-11.5,-60.22235713646245 L-7.5,-60.22235713646245 " />
			<path d="M-7.5,-61.04307982036201 L-11.5,-61.04307982036201 " />
			<path d="M-11.5,-61.043079820362 L-11.5,-60.22235713646245 " />
			<path d="M-11.5,-63.27149717659947 L-7.5,-63.27149717659947 " />
			<path d="M-11.5,-63.271497176599475 L-11.5,-61.04307982036201 " />
			<path d="M-11.5,-64.80702740892508 L-11.5,-64.74807177309727 L-11.5,-64.68128145099789 L-11.5,-64.60666227318362 L-11.5,-64.52422075364231 L-11.5,-64.43396408922428 L-11.5,-64.33590015901414 L-11.5,-64.23003752364293 L-11.5,-64.11638542454078 L-11.5,-63.9949537831302 L-11.5,-63.86575319996001 L-11.5,-63.72879495377987 L-11.5,-63.58409100055573 L-11.5,-63.43165397242613 L-11.5,-63.271497176599546 " />
			<path d="M-11.5,-64.80702740892508 L-7.5,-64.80702740892508 " />
			<path d="M-11.5,114.80702740892508 L-7.5,114.80702740892508 " />
			<path d="M-11.5,113.27149717659947 L-11.5,113.43165397242615 L-11.5,113.58409100055573 L-11.5,113.72879495377985 L-11.5,113.86575319996 L-11.5,113.99495378313019 L-11.5,114.11638542454075 L-11.5,114.2300375236429 L-11.5,114.33590015901412 L-11.5,114.43396408922425 L-11.5,114.52422075364227 L-11.5,114.60666227318357 L-11.5,114.68128145099786 L-11.5,114.74807177309724 L-11.5,114.80702740892502 " />
			<path d="M-11.5,113.27149717659947 L-7.5,113.27149717659947 " />
			<path d="M-7.5,111.043079820362 L-11.5,111.043079820362 " />
			<path d="M-11.5,111.043079820362 L-11.5,113.27149717659947 " />
			<path d="M-11.5,110.22235713646245 L-11.5,111.043079820362 " />
			<path d="M-11.5,110.22235713646245 L-7.5,110.22235713646245 " />
			<path d="M-11.5,105.72041028723487 L-11.5,106.08876509375209 L-11.5,106.45004114055773 L-11.5,106.80420688954266 L-11.5,107.1512314233013 L-11.5,107.49108444783073 L-11.5,107.82373629517518 L-11.5,108.14915792601587 L-11.5,108.4673209322062 L-11.5,108.77819753925154 L-11.5,109.08176060873389 L-11.5,109.377983640681 L-11.5,109.66684077587965 L-11.5,109.94830679813316 L-11.5,110.2223571364622 " />
			<path d="M-11.5,105.7204102872349 L-7.5,105.7204102872349 " />
			<path d="M-7.5,103.7224659438788 L-11.5,103.7224659438788 " />
			<path d="M-11.5,103.72246594387879 L-11.5,105.7204102872349 " />
			<path d="M-11.5,99.82992406175404 L-11.5,103.72246594387879 " />
			<path d="M-11.5,99.82992406175404 L-7.5,99.82992406175404 " />
			<path d="M-11.5,92.66836083358042 L-11.5,93.21981087945912 L-11.5,93.76530557938786 L-11.5,94.30479731362675 L-11.5,94.83823898647336 L-11.5,95.36558403037398 L-11.5,95.88678640998887 L-11.5,96.40180062621094 L-11.5,96.9105817201377 L-11.5,97.41308527699594 L-11.5,97.90926743001904 L-11.5,98.3990848642764 L-11.5,98.88249482045461 L-11.5,99.35945509859025 L-11.5,99.82992406175354 " />
			<path d="M-11.5,92.66836083358051 L-7.5,92.66836083358051 " />
			<path d="M-7.5,91.03704610834636 L-11.5,91.03704610834636 " />
			<path d="M-11.5,91.03704610834635 L-11.5,92.66836083358051 " />
			<path d="M-11.5,84.33795532453357 L-11.5,91.03704610834636 " />
			<path d="M-11.5,84.33795532453357 L-7.5,84.33795532453357 " />
			<path d="M-11.5,75.00482441637129 L-11.5,75.70178929229905 L-11.5,76.3943280830234 L-11.5,77.08238033238015 L-11.5,77.76588597586431 L-11.5,78.44478534587321 L-11.5,79.11901917691549 L-11.5,79.78852861078465 L-11.5,80.45325520169726 L-11.5,81.11314092139492 L-11.5,81.76812816421007 L-11.5,82.41815975209464 L-11.5,83.0631789396116 L-11.5,83.70312941888855 L-11.5,84.33795532453291 " />
			<path d="M-11.5,75.00482441637126 L-7.5,75.00482441637126 " />
			<path d="M-7.5,73.85131071190874 L-11.5,73.85131071190874 " />
			<path d="M-11.5,73.85131071190872 L-11.5,75.00482441637126 " />
			<path d="M-11.5,64.80220299255382 L-11.5,73.85131071190874 " />
			<path d="M-11.5,64.80220299255382 L-7.5,64.80220299255382 " />
			<path d="M-11.5,53.933541852065915 L-11.5,54.728524553537326 L-11.5,55.52091206094384 L-11.5,56.31063520168493 L-11.5,57.09762503574965 L-11.5,57.88181286173497 L-11.5,58.6631302228432 L-11.5,59.44150891285795 L-11.5,60.216880982098345 L-11.5,60.98917874335075 L-11.5,61.75833477777767 L-11.5,62.52428194080312 L-11.5,63.28695336797416 L-11.5,64.04628248079786 L-11.5,64.80220299255315 " />
			<path d="M-11.5,53.93354185206583 L-7.5,53.93354185206583 " />
			<path d="M-7.5,53.33643922106249 L-11.5,53.33643922106249 " />
			<path d="M-11.5,53.3364392210625 L-11.5,53.93354185206583 " />
			<path d="M-11.5,42.553996302881885 L-11.5,53.33643922106249 " />
			<path d="M60.5,55.0 L60.5,56.0 " />
			<path d="M60.5,56.0 L55.5,56.0 " />
			<path d="M55.5,55.0 L55.5,56.0 " />
			<path d="M74.5,-65.0 L78.5,-65.0 " />
			<path d="M-7.5,-5.0 L-3.0,-5.0 " />
			<path d="M0.0,-5.0 L74.5,-5.0 " />

       </g>
    </g>
    
</svg>
