<?xml version="1.0" encoding="UTF-8" standalone="no"?>
<svg
   xmlns:svg="http://www.w3.org/2000/svg"
   xmlns="http://www.w3.org/2000/svg"
   width="800.0"
   height="600.0"

>
    <g transform="scale(4.056640017460661, -4.056640017460661)   translate(57.963197098179876,-99.28908684376694)" stroke-width="0.4"  fill="none">
       <!-- hidden lines -->
       <g  stroke="rgb(180,180,180)" fill="none" stroke-dasharray="0.4,0.4" >

       </g>

       <!-- solid lines -->
       <g  stroke="rgb(40,40,40)" fill="none">
			<path d="M24.748737341529164,83.31200291979826 L24.748737341529164,9.666033487932395 " />
			<path d="M24.748737341529164,9.666033487932395 L-24.74873734152917,-9.666033487932395 " />
			<path d="M24.748737341529164,83.31200291979826 L9.845054113201464,89.13288578709572 " />
			<path d="M9.845054113201508,89.13288578709573 L9.890567392668618,88.94886376015394 L9.93020584152588,88.76460542072974 L9.963886867396166,88.58049469742518 L9.991540291045158,88.39691521126304 L10.013108492609804,88.21424947635751 L10.028546531657547,88.03287810289136 L10.037822240826145,87.85317900406022 L10.040916292848976,87.67552660863632 L10.037822240826147,87.50029108079264 L10.028546531657547,87.32783754881291 L10.013108492609804,87.1585253442946 L9.99154029104516,86.99270725343017 L9.963886867396168,86.83072878192654 L9.93020584152588,86.6729274350946 L9.890567392668618,86.51963201460858 L9.845054113201513,86.37116193340073 " />
			<path d="M22.627416997969522,81.37879622221179 L9.845054113201464,86.37116193340076 " />
			<path d="M22.627416997969522,81.37879622221178 L22.627416997969522,10.494550644040885 " />
			<path d="M24.748737341529164,9.666033487932395 L22.627416997969522,10.494550644040887 " />
			<path d="M-39.652420569856865,69.80081881123093 L9.84505411320147,89.13288578709572 " />
			<path d="M-39.65242056985682,67.03909495753592 L-39.60690729038971,67.18756503874378 L-39.56726884153245,67.34086045922982 L-39.53358781566216,67.49866180606175 L-39.50593439201317,67.66064027756538 L-39.484366190448526,67.82645836842981 L-39.46892815140078,67.99577057294812 L-39.45965244223218,68.16822410492784 L-39.45655839020935,68.34345963277153 L-39.45965244223218,68.52111202819543 L-39.46892815140078,68.70081112702657 L-39.484366190448526,68.88218250049272 L-39.50593439201317,69.06484823539824 L-39.53358781566216,69.24842772156039 L-39.567268841532446,69.43253844486495 L-39.60690729038971,69.61679678428915 L-39.652420569856815,69.80081881123093 " />
			<path d="M-26.870057685088806,62.046729246347 L-39.652420569856865,67.03909495753597 " />
			<path d="M-26.870057685088806,62.04672924634699 L-26.870057685088806,-8.837516331823906 " />
			<path d="M-24.748737341529164,-9.666033487932395 L-26.870057685088806,-8.837516331823904 " />
			<path d="M22.627416997969522,10.494550644040887 L-26.870057685088813,-8.837516331823904 " />
			<path d="M-39.652420569856865,67.03909495753597 L9.84505411320147,86.37116193340076 " />
			<path d="M-26.870057685088813,62.046729246347 L22.627416997969522,81.37879622221179 " />
			<path d="M4.297081510529484,91.29973932097565 L-3.5355339059327413,94.35889833457814 " />
			<path d="M4.297081510529442,88.53801546728069 L4.251568231062331,88.72203749422248 L4.211929782205072,88.90629583364668 L4.178248756334784,89.09040655695124 L4.150595332685792,89.27398604311338 L4.129027131121147,89.45665177801891 L4.113589092073404,89.63802315148506 L4.104313382904804,89.8177222503162 L4.1012193308819755,89.9953746457401 L4.104313382904804,90.17061017358378 L4.113589092073404,90.34306370556351 L4.129027131121146,90.51237591008181 L4.150595332685792,90.67819400094625 L4.178248756334784,90.84017247244988 L4.211929782205071,90.99797381928181 L4.251568231062331,91.15126923976784 L4.297081510529432,91.29973932097568 " />
			<path d="M4.297081510529484,88.53801546728069 L-3.5355339059327413,91.59717448088318 " />
			<path d="M-3.5355339059327378,94.35889833457814 L-3.5355339059327378,91.59717448088317 " />
			<path d="M-3.5355339059327378,94.35889833457814 L-53.03300858899107,75.02683135871335 " />
			<path d="M-3.5355339059327378,91.59717448088318 L-53.03300858899107,72.26510750501839 " />
			<path d="M-53.033008588991066,75.02683135871335 L-53.033008588991066,72.26510750501838 " />
			<path d="M-45.20039317252885,69.2059484914159 L-53.033008588991066,72.26510750501839 " />
			<path d="M-45.20039317252884,69.2059484914159 L4.297081510529495,88.53801546728069 " />
			<path d="M35.35533905932738,5.52344770738994 L35.35533905932738,2.76172385369497 " />
			<path d="M35.35533905932738,2.76172385369497 L-14.142135623730958,-16.57034312216982 " />
			<path d="M35.35533905932738,5.52344770738994 L24.748737341529164,9.666033487932395 " />
			<path d="M24.748737341529164,9.666033487932395 L24.748737341529164,6.904309634237425 " />
			<path d="M35.35533905932738,2.76172385369497 L24.748737341529164,6.904309634237425 " />
			<path d="M-14.142135623730951,-16.57034312216982 L-24.748737341529164,-12.427757341627366 " />
			<path d="M24.748737341529164,6.904309634237425 L-24.74873734152917,-12.427757341627366 " />
			<path d="M-24.748737341529164,-9.666033487932395 L-24.748737341529164,-12.427757341627366 " />

       </g>
    </g>
    
</svg>
