<?xml version="1.0" encoding="UTF-8" standalone="no"?>
<svg
   xmlns:svg="http://www.w3.org/2000/svg"
   xmlns="http://www.w3.org/2000/svg"
   width="800.0"
   height="600.0"

>
    <g transform="scale(19.73321249822923, -19.73321249822923)   translate(28.590684185976077,-11.784242749111103)" stroke-width="0.4"  fill="none">
       <!-- hidden lines -->
       <g  stroke="rgb(180,180,180)" fill="none" stroke-dasharray="0.4,0.4" >

       </g>

       <!-- solid lines -->
       <g  stroke="rgb(40,40,40)" fill="none">
			<path d="M2.8284271247461903,1.104689541477988 L2.8284271247461903,-3.4981835480136283 " />
			<path d="M2.8284271247461903,-3.4981835480136283 L-2.8284271247461903,-5.707562630969605 " />
			<path d="M2.8284271247461903,1.104689541477988 L-21.920310216782976,10.770723029410384 " />
			<path d="M-21.920310216782973,10.770723029410384 L-21.920310216782973,6.167849939918767 " />
			<path d="M2.8284271247461903,-3.4981835480136283 L-21.920310216782976,6.167849939918767 " />
			<path d="M-2.8284271247461903,-5.707562630969605 L-27.57716446627536,3.9584708569627907 " />
			<path d="M-21.920310216782973,6.167849939918767 L-27.577164466275352,3.958470856962791 " />
			<path d="M-3.9597979746446663,-3.056307731422433 L-3.873503673472234,-3.0249986114773484 L-3.7815460119340836,-2.9962537217013354 L-3.684423316565546,-2.9702288331426243 L-3.5826619036677867,-2.947064976927179 L-3.4768132271541736,-2.9268876799988073 L-3.367450890173742,-2.909806284877779 L-3.255167536706028,-2.895913357124231 L-3.140571639971995,-2.885284183717379 L-3.024284205064936,-2.8779763650688555 L-2.906935403670059,-2.8740295028810845 L-2.7891611591095296,-2.8734649855422285 L-2.6715997002188927,-2.8762858722206577 L-2.5548881027297083,-2.8824768762870527 L-2.439658836900967,-2.892004448153973 L-2.326536340107963,-2.9048169570839777 L-2.2161336329620465,-2.920844970981066 L-2.1090489972988196,-2.9400016326492207 L-2.0058627340370356,-2.962183130479078 L-1.9071340184776373,-2.9872692610120364 L-1.8133978700843574,-3.0151240803332073 L-1.7251622531668833,-3.045596640763277 L-1.6429053241782552,-3.0785218088570514 L-1.5670728405436198,-3.113721160275907 L-1.4980757450621178,-3.1510039466847424 L-1.436287938972252,-3.1901681294337285 L-1.3820442557486812,-3.2310014744232625 L-1.3356386466106078,-3.2732827022189377 L-1.2973225875746561,-3.316782687183972 L-1.2673037166845447,-3.3612656991308882 L-1.2457447088025406,-3.4064906807638216 L-1.2381759727424204,-3.429304944172861 L-1.2327623940602859,-3.452212553988891 L-1.229511309404831,-3.475182465113001 L-1.2284271247461902,-3.4981835480136225 " />
			<path d="M-1.2284271247461902,-3.4981835480136283 L-1.2303543948179143,-3.52884627002186 L-1.2361315620706752,-3.5594351228470367 L-1.2457447088025406,-3.5898764152634355 L-1.2591706761010215,-3.620096811531283 L-1.2763771196349198,-3.6500235080689754 L-1.2973225875746561,-3.6795844088432847 L-1.3219566204533568,-3.7087082990550164 L-1.3502198727281314,-3.7373250167016994 L-1.382044255748681,-3.765365621603994 L-1.4173531017888221,-3.7927625614886233 L-1.4560613487457548,-3.8194498347277177 L-1.4980757450621178,-3.845363149342514 L-1.5432950743771583,-3.870440077888368 L-1.591610399365811,-3.8946202078479324 L-1.6429053241782556,-3.9178452871702056 L-1.697056274847714,-3.9400593646048234 L-1.8133978700843574,-3.9812430156940493 L-1.9395147519148266,-4.017774540042346 L-2.074192345824594,-4.049302119100078 L-2.2161336329620465,-4.075522125046191 L-2.3639716411390506,-4.09618204489011 L-2.5162826095203847,-4.111082912309877 L-2.671599700218893,-4.120081223806599 L-2.8284271247461903,-4.123090320721583 L-2.9852545492734874,-4.120081223806599 L-3.1405716399719954,-4.111082912309877 L-3.29288260835333,-4.09618204489011 L-3.440720616530334,-4.075522125046191 L-3.5826619036677867,-4.049302119100078 L-3.7173394975775533,-4.017774540042346 L-3.843456379408023,-3.9812430156940493 L-3.9597979746446663,-3.9400593646048234 L-4.013948925314125,-3.9178452871702056 L-4.06524385012657,-3.8946202078479324 L-4.113559175115222,-3.870440077888368 L-4.158778504430263,-3.845363149342514 L-4.200792900746626,-3.8194498347277177 L-4.2395011477035585,-3.792762561488624 L-4.274809993743699,-3.765365621603994 L-4.306634376764249,-3.7373250167016994 L-4.334897629039023,-3.7087082990550164 L-4.359531661917725,-3.6795844088432847 L-4.380477129857461,-3.6500235080689754 L-4.397683573391359,-3.620096811531283 L-4.411109540689839,-3.5898764152634355 L-4.420722687421705,-3.5594351228470367 L-4.426499854674466,-3.52884627002186 L-4.42842712474619,-3.498183548013631 " />
			<path d="M-4.42842712474619,-3.4981835480136283 L-4.426499854674466,-3.467520826005397 L-4.420722687421705,-3.43693197318022 L-4.411109540689839,-3.406490680763821 L-4.397683573391359,-3.3762702844959738 L-4.380477129857461,-3.3463435879582812 L-4.359531661917725,-3.3167826871839723 L-4.334897629039023,-3.28765879697224 L-4.306634376764249,-3.2590420793255572 L-4.2748099937437,-3.2310014744232625 L-4.2395011477035585,-3.2036045345386333 L-4.200792900746626,-3.176917261299539 L-4.158778504430263,-3.1510039466847424 L-4.113559175115222,-3.125927018138889 L-4.06524385012657,-3.101746888179324 L-4.013948925314125,-3.078521808857051 L-3.9597979746446716,-3.056307731422435 " />
			<path d="M-27.577164466275356,8.561343946454407 L-27.577164466275356,3.9584708569627907 " />
			<path d="M-21.920310216782973,10.770723029410384 L-27.577164466275352,8.561343946454407 " />

       </g>
    </g>
    
</svg>
