<?xml version="1.0" encoding="UTF-8" standalone="no"?>
<svg
   xmlns:svg="http://www.w3.org/2000/svg"
   xmlns="http://www.w3.org/2000/svg"
   width="800.0"
   height="600.0"

>
    <g transform="scale(25.0, -25.0)   translate(12.8,-5.48680079530966)" stroke-width="0.4"  fill="none">
       <!-- hidden lines -->
       <g  stroke="rgb(180,180,180)" fill="none" stroke-dasharray="0.4,0.4" >

       </g>

       <!-- solid lines -->
       <g  stroke="rgb(40,40,40)" fill="none">
			<path d="M-8.485281374238568,3.314068624433965 L-8.6909649954176,3.2317391734719423 L-8.891413504259514,3.147463043674328 L-9.086506158077817,3.061290999830431 L-9.276125440352846,2.97327494875728 L-9.460157131519278,2.8834679080329075 L-9.638490377767742,2.7919239740605475 L-9.811017757819005,2.698698289482974 L-9.977635347630542,2.6038470099666444 L-10.138242782996484,2.5074272703756226 L-10.292743320003265,2.409497150355671 L-10.441043893304537,2.3101156393492466 L-10.583055172180257,2.2093426010624655 L-10.71869161434618,2.1072387374054458 L-10.847871517481318,2.003865551927744 L-10.970517068442366,1.8992853127709206 L-11.086554390135438,1.7935610151605361 L-11.195913586016864,1.6867563434601847 L-11.298528782196247,1.5789356328104152 L-11.394338167116436,1.4701638303756468 L-11.483284028786503,1.3605064562224267 L-11.565312789545276,1.250029563852591 L-11.640375038334525,1.1387997004151067 L-11.708425560462342,1.0268838666205518 L-11.769423364838763,0.9143494763824097 L-11.823331708667293,0.801264316209424 L-11.870118119577372,0.687696504373552 L-11.90975441518452,0.5737144498780782 L-11.942216720066362,0.4593868112505627 L-11.967485480144283,0.3447824551855293 L-11.985545474462068,0.2299704150617385 L-11.996385824354451,0.11501984935906216 L-12.0,4.2775088356717685e-14 " />
			<path d="M12.0,-5.739675592217244e-16 L11.997966981549881,0.08626867636157631 L11.991868615060195,0.17250812175469935 L11.981706966879537,0.2586891151154353 L11.967485480144283,0.3447824551855276 L11.949208973611917,0.4307589704068416 L11.926883640028272,0.516589528805757 L11.900517044029193,0.6022450478641391 L11.870118119577372,0.6876965043735523 L11.835697166935185,0.7729149442693866 L11.797265849174597,0.8578714924415441 L11.754837188225286,0.9425373625183744 L11.708425560462343,1.0268838666205502 L11.658046691835022,1.1108824250815643 L11.603717652538226,1.1945045761315594 L11.5454568512285,1.2777219855412165 L11.483284028786507,1.360506456222421 L11.417220251628102,1.4428299377824578 L11.347287904566258,1.52466453602851 L11.27351068322628,1.6059825224192308 L11.195913586016868,1.6867563434601793 L11.114522905659738,1.7669586300399427 L11.029366220280693,1.8465622067037948 L10.940472384065158,1.9255401008617266 L10.847871517481321,2.0038655519277406 L10.751594997074225,2.0815120203873168 L10.65167544483425,2.158453196789963 L10.548146717143604,2.2346630106638106 L10.441043893304538,2.310115639349245 L10.330403263653208,2.384785516748562 L10.216262317263183,2.4586473419886894 L10.098659729242783,2.53167608799405 L9.977635347630546,2.6038470099666435 L9.853230179893258,2.6751356537704782 L9.72548637903114,2.7455178642175304 L9.594447229294865,2.814969793252402 L9.46015713151928,2.8834679080329066 L9.322661588078793,2.950988998903852 L9.182007187469509,3.017510187261319 L9.038241588523352,3.083008933304765 L8.891413504259512,3.1474630436743283 L8.741572685378708,3.2108506789707487 L8.58876990340583,3.2731503611553494 L8.433056933486707,3.334340980827577 L8.274486536844805,3.394401804377636 L8.113112442903793,3.4533124810117917 L7.948989331082064,3.511053049647959 L7.612719409963751,3.6229460076031548 L7.266132496851916,3.72992903745769 L6.909698297014151,3.83185715251194 L6.543899861064562,3.9285922166426195 L6.169232930318661,4.020003131509124 L5.786205264949471,4.105966014222041 L5.395335955855283,4.1863643652330556 L4.997154721171657,4.261089226218737 L4.592201188381084,4.330039327744214 L4.181024162993218,4.393121226506627 L3.7641808847867075,4.450249431972377 L3.342236272620654,4.501346522236542 L2.91576215883918,4.546343248947413 L2.485336514306632,4.5851786311540055 L2.05154266512362,4.617800037949316 L1.6149685020855165,4.644163259797357 L1.1762056839547361,4.664232568447279 L0.7358488356265186,4.677980765353396 L0.2944947422749593,4.685389218535497 L-0.14725845942863108,4.686447887829477 L-0.588812091929012,4.681155338494077 L-1.0295677481332781,4.6695187431552885 L-1.4689281023905871,4.651553872085795 L-1.9062977200063234,4.627285071832606 L-2.341083864193529,4.596745232221869 L-2.7726972993680468,4.559975741785562 L-3.2005530896987784,4.517026431670483 L-3.6240713918307375,4.467955508105538 L-4.0426782407066355,4.4128294735188724 L-4.455806327422039,4.351723036411723 L-4.86289576805987,4.284719010111158 L-5.263394862462327,4.2119082005389075 L-5.6567608419119715,4.133389283148371 L-6.042460604708614,4.049268669196611 L-6.419971438645163,3.959660361532529 L-6.7887817294033495,3.8646858000966966 L-7.148391653909195,3.764473697342197 L-7.4983138577086335,3.6591598637995526 L-7.8380741154453215,3.5488870240221018 L-8.003999067643653,3.491937421358716 L-8.16721197354544,3.433804623161283 L-8.327657530675852,3.3745083269383516 L-8.485281374238493,3.3140686244339945 " />
			<path d="M-8.485281374238568,-0.3682298471593284 L-8.6909649954176,-0.4505592981213513 L-8.891413504259514,-0.5348354279189658 L-9.086506158077817,-0.6210074717628626 L-9.276125440352846,-0.7090235228360138 L-9.460157131519278,-0.7988305635603861 L-9.638490377767742,-0.8903744975327461 L-9.811017757819005,-0.9836001821103197 L-9.977635347630542,-1.0784514616266492 L-10.138242782996484,-1.174871201217671 L-10.292743320003265,-1.2728013212376226 L-10.441043893304537,-1.372182832244047 L-10.583055172180257,-1.472955870530828 L-10.71869161434618,-1.5750597341878478 L-10.847871517481318,-1.6784329196655494 L-10.970517068442366,-1.783013158822373 L-11.086554390135438,-1.8887374564327575 L-11.195913586016864,-1.995542128133109 L-11.298528782196247,-2.1033628387828784 L-11.394338167116436,-2.212134641217647 L-11.483284028786503,-2.3217920153708667 L-11.565312789545276,-2.4322689077407027 L-11.640375038334525,-2.5434987711781867 L-11.708425560462342,-2.6554146049727416 L-11.769423364838763,-2.767948995210884 L-11.823331708667293,-2.88103415538387 L-11.870118119577372,-2.9946019672197415 L-11.90975441518452,-3.1085840217152154 L-11.942216720066362,-3.222911660342731 L-11.967485480144283,-3.3375160164077644 L-11.985545474462068,-3.452328056531555 L-11.996385824354451,-3.5672786222342316 L-12.0,-3.682298471593251 " />
			<path d="M-12.0,-3.682298471593294 L-11.996385824354451,-3.7973183209523556 L-11.985545474462068,-3.912268886655032 L-11.967485480144283,-4.027080926778823 L-11.942216720066362,-4.1416852828438575 L-11.90975441518452,-4.256012921471373 L-11.87011811957737,-4.369994975966847 L-11.823331708667295,-4.4835627878027156 L-11.769423364838765,-4.596647947975701 L-11.708425560462343,-4.709182338213845 L-11.640375038334527,-4.821098172008395 L-11.565312789545278,-4.93232803544588 L-11.483284028786507,-5.042804927815716 L-11.394338167116441,-5.152462301968937 L-11.298528782196248,-5.261234104403705 L-11.195913586016866,-5.369054815053476 L-11.08655439013544,-5.475859486753827 L-10.970517068442367,-5.581583784364212 L-10.84787151748132,-5.686164023521036 L-10.718691614346184,-5.789537208998738 L-10.58305517218026,-5.891641072655759 L-10.441043893304537,-5.99241411094254 L-10.292743320003265,-6.091795621948965 L-10.138242782996484,-6.189725741968916 L-9.977635347630542,-6.286145481559938 L-9.811017757819004,-6.380996761076268 L-9.63849037776774,-6.474222445653842 L-9.460157131519274,-6.5657663796262025 L-9.276125440352843,-6.655573420350574 L-9.086506158077814,-6.743589471423727 L-8.891413504259507,-6.829761515267624 L-8.690964995417602,-6.914037645065235 L-8.48528137423857,-6.996367096027258 L-8.274486536844801,-7.07670027597093 L-8.05870745816422,-7.154988795192503 L-7.8380741154453215,-7.231185495615396 L-7.612719409963746,-7.30524447919645 L-7.382779086967522,-7.377121135573201 L-7.148391653909201,-7.446772168935489 L-6.909698297014143,-7.514155624105236 L-6.666842796235228,-7.579230911808677 L-6.419971438645166,-7.641958833125822 L-6.16923293031866,-7.702301603102418 L-5.914778306757409,-7.760222873510191 L-5.656760841911973,-7.815687754741664 L-5.395335955855282,-7.868662836826349 L-5.130661121163387,-7.919116209555665 L-4.862895768059879,-7.967017481704451 L-4.592201188381078,-8.012337799337509 L-4.3187404384198596,-8.055049863190133 L-4.042678240706641,-8.095127945112166 L-3.764180884786696,-8.132547903565673 L-3.483416127053548,-8.167287198166903 L-3.200553089698781,-8.199324903263776 L-2.9157621588391676,-8.228641720540708 L-2.62921488188244,-8.255219990643198 L-2.34108386419354,-8.279043703815162 L-2.0515426651236135,-8.300098509542611 L-1.760765693464341,-8.318371725197863 L-1.4689281023905953,-8.333852343679087 L-1.1762056839547292,-8.346531040040572 L-0.8827747631960121,-8.356400177109713 L-0.5888120919290175,-8.363453810087371 L-0.29449474227494715,-8.36768769012879 L-7.347880794884119e-16,-8.369099266902953 L0.2944947422749457,-8.36768769012879 L0.5888120919290161,-8.363453810087371 L0.8827747631960106,-8.356400177109713 L1.1762056839547277,-8.346531040040572 L1.4689281023905938,-8.333852343679087 L1.7607656934643396,-8.318371725197863 L2.051542665123612,-8.300098509542611 L2.3410838641935383,-8.279043703815162 L2.6292148818824383,-8.255219990643198 L2.9157621588391667,-8.228641720540708 L3.2005530896987797,-8.199324903263776 L3.483416127053546,-8.167287198166903 L3.764180884786695,-8.132547903565673 L4.042678240706639,-8.095127945112166 L4.318740438419858,-8.055049863190133 L4.592201188381077,-8.012337799337509 L4.862895768059879,-7.967017481704451 L5.130661121163387,-7.919116209555664 L5.3953359558552805,-7.868662836826349 L5.656760841911972,-7.815687754741664 L5.914778306757408,-7.760222873510191 L6.16923293031866,-7.702301603102418 L6.419971438645165,-7.641958833125823 L6.6668427962352235,-7.579230911808678 L6.90969829701414,-7.514155624105237 L7.148391653909195,-7.44677216893549 L7.382779086967517,-7.377121135573202 L7.612719409963745,-7.305244479196451 L7.838074115445322,-7.231185495615395 L8.058707458164221,-7.154988795192503 L8.274486536844803,-7.07670027597093 L8.48528137423857,-6.996367096027258 L8.690964995417602,-6.914037645065235 L8.891413504259507,-6.829761515267624 L9.086506158077812,-6.743589471423727 L9.276125440352844,-6.655573420350574 L9.460157131519278,-6.565766379626201 L9.638490377767742,-6.47422244565384 L9.811017757819005,-6.380996761076267 L9.977635347630544,-6.286145481559938 L10.138242782996485,-6.189725741968916 L10.292743320003265,-6.091795621948965 L10.441043893304537,-5.99241411094254 L10.58305517218026,-5.891641072655759 L10.718691614346183,-5.789537208998739 L10.847871517481318,-5.686164023521037 L10.970517068442366,-5.581583784364214 L11.08655439013544,-5.475859486753827 L11.195913586016868,-5.369054815053474 L11.29852878219625,-5.261234104403704 L11.394338167116441,-5.152462301968936 L11.483284028786507,-5.042804927815716 L11.565312789545278,-4.93232803544588 L11.640375038334527,-4.821098172008396 L11.708425560462342,-4.709182338213845 L11.769423364838765,-4.596647947975702 L11.823331708667295,-4.483562787802716 L11.87011811957737,-4.369994975966849 L11.90975441518452,-4.256012921471375 L11.942216720066362,-4.1416852828438575 L11.967485480144283,-4.027080926778822 L11.985545474462068,-3.9122688866550317 L11.996385824354451,-3.797318320952355 L12.0,-3.682298471593315 " />
			<path d="M12.0,-3.682298471593294 L11.997966981549881,-3.5960297952317175 L11.991868615060195,-3.5097903498385943 L11.981706966879537,-3.4236093564778582 L11.967485480144283,-3.337516016407766 L11.949208973611917,-3.251539501186452 L11.926883640028272,-3.1657089427875365 L11.900517044029193,-3.0800534237291544 L11.870118119577372,-2.994601967219741 L11.835697166935185,-2.9093835273239073 L11.797265849174597,-2.8244269791517493 L11.754837188225286,-2.7397611090749194 L11.708425560462343,-2.6554146049727434 L11.658046691835022,-2.5714160465117293 L11.603717652538226,-2.487793895461734 L11.5454568512285,-2.4045764860520773 L11.483284028786507,-2.321792015370873 L11.417220251628102,-2.239468533810836 L11.347287904566258,-2.1576339355647836 L11.27351068322628,-2.076315949174063 L11.195913586016868,-1.9955421281331143 L11.114522905659738,-1.915339841553351 L11.029366220280693,-1.8357362648894988 L10.940472384065158,-1.756758370731567 L10.847871517481321,-1.678432919665553 L10.751594997074225,-1.6007864512059768 L10.65167544483425,-1.5238452748033304 L10.548146717143604,-1.447635460929483 L10.441043893304538,-1.3721828322440488 L10.330403263653208,-1.2975129548447315 L10.216262317263183,-1.2236511296046042 L10.098659729242783,-1.1506223835992437 L9.977635347630546,-1.07845146162665 L9.853230179893258,-1.0071628178228154 L9.72548637903114,-0.9367806073757632 L9.594447229294865,-0.8673286783408916 L9.46015713151928,-0.798830563560387 L9.322661588078793,-0.7313094726894418 L9.182007187469509,-0.6647882843319746 L9.038241588523352,-0.5992895382885286 L8.891413504259512,-0.5348354279189653 L8.741572685378708,-0.4714477926225449 L8.58876990340583,-0.4091481104379442 L8.433056933486707,-0.3479574907657166 L8.274486536844805,-0.28789666721565776 L8.113112442903793,-0.22898599058150193 L7.948989331082064,-0.17124542194533454 L7.612719409963751,-0.059352463990138826 L7.266132496851916,0.04763056586439651 L6.909698297014151,0.14955868091864621 L6.543899861064562,0.24629374504932589 L6.169232930318661,0.33770465991583 L5.786205264949471,0.4236675426287473 L5.395335955855283,0.504065893639762 L4.997154721171657,0.5787907546254436 L4.592201188381084,0.6477408561509206 L4.181024162993218,0.710822754913333 L3.7641808847867075,0.7679509603790837 L3.342236272620654,0.8190480506432483 L2.91576215883918,0.8640447773541196 L2.485336514306632,0.9028801595607119 L2.05154266512362,0.935501566356022 L1.6149685020855165,0.9618647882040632 L1.1762056839547361,0.9819340968539851 L0.7358488356265186,0.995682293760102 L0.2944947422749593,1.0030907469422035 L-0.14725845942863108,1.0041494162361833 L-0.588812091929012,0.9988568669007831 L-1.0295677481332781,0.9872202715619949 L-1.4689281023905871,0.9692554004925018 L-1.9062977200063234,0.9449866002393126 L-2.341083864193529,0.9144467606285751 L-2.7726972993680468,0.8776772701922688 L-3.2005530896987784,0.8347279600771893 L-3.6240713918307375,0.7856570365122444 L-4.0426782407066355,0.7305310019255788 L-4.455806327422039,0.6694245648184296 L-4.86289576805987,0.6024205385178645 L-5.263394862462327,0.5296097289456139 L-5.6567608419119715,0.45109081155507713 L-6.042460604708614,0.36697019760331706 L-6.419971438645163,0.2773618899392356 L-6.7887817294033495,0.182387328503403 L-7.148391653909195,0.08217522574890346 L-7.4983138577086335,-0.023138607793740995 L-7.8380741154453215,-0.13341144757119183 L-8.003999067643653,-0.1903610502345776 L-8.16721197354544,-0.24849384843201072 L-8.327657530675852,-0.30779014465494203 L-8.485281374238493,-0.3682298471592991 " />
			<path d="M-6.463573143221813,-1.8411492357966313 L-6.322228540159573,-1.9145510451912298 L-6.175421285960182,-1.986298608084343 L-6.023278227796118,-2.0563299317935586 L-5.865930823181835,-2.1245845065338127 L-5.703515026389359,-2.191003357700192 L-5.536171170978506,-2.255529096824288 L-5.364043848543247,-2.3181059711600613 L-5.1872817837789436,-2.378679911856381 L-5.0060377059784305,-2.437198580674615 L-4.820468217067977,-2.4936114152109 L-4.630733656297134,-2.547869672584023 L-4.436997961699393,-2.5999264715511665 L-4.239428528443351,-2.6497368330151243 L-4.038196064196785,-2.6972577188879856 L-3.833474441628594,-2.742448069277721 L-3.625440548176047,-2.7852688379655204 L-3.4142741332071753,-2.8256830261432455 L-3.2001576527103293,-2.863655714381836 L-2.983276111645108,-2.8991540928030557 L-2.7638169040908944,-2.9321474894285 L-2.5419696513310868,-2.962607396681379 L-2.3179260380129323,-2.9905074960181706 L-2.091879646524556,-3.0158236806688645 L-1.864025789732249,-3.0385340764661484 L-1.634561342222556,-3.0586190607455404 L-1.4036845701949945,-3.0760612793001307 L-1.171594960152347,-3.0908456613752926 L-0.9384930465365663,-3.102959432690401 L-0.704580238459235,-3.1123921264763035 L-0.4700586456762617,-3.11913559251902 L-0.2351309039571923,-3.1231840042018426 L-4.1416935476016004e-14,-3.1245338635397575 L0.23513090395710942,-3.1231840042018426 L0.4700586456761789,-3.11913559251902 L0.7045802384591522,-3.1123921264763035 L0.9384930465364834,-3.102959432690401 L1.1715949601522644,-3.090845661375293 L1.4036845701949119,-3.0760612793001307 L1.6345613422224734,-3.0586190607455404 L1.8640257897321664,-3.038534076466149 L2.0918796465244753,-3.0158236806688645 L2.3179260380128515,-2.9905074960181706 L2.541969651331004,-2.9626073966813795 L2.7638169040908136,-2.9321474894285 L2.9832761116450266,-2.8991540928030552 L3.2001576527102467,-2.863655714381836 L3.4142741332070927,-2.8256830261432455 L3.6254405481759657,-2.7852688379655204 L3.8334744416285114,-2.7424480692777213 L4.038196064196702,-2.697257718887986 L4.23942852844327,-2.649736833015124 L4.43699796169931,-2.5999264715511665 L4.630733656297052,-2.5478696725840235 L4.820468217067896,-2.4936114152109 L5.006037705978348,-2.4371985806746155 L5.18728178377886,-2.3786799118563815 L5.364043848543166,-2.318105971160061 L5.536171170978424,-2.2555290968242883 L5.703515026389275,-2.1910033577001924 L5.865930823181754,-2.1245845065338123 L6.023278227796036,-2.0563299317935586 L6.175421285960098,-1.9862986080843432 L6.322228540159492,-1.9145510451912295 L6.46357314322171,-1.8411492357966428 " />
			<path d="M-5.65685424949242,-1.4729193886373015 L-5.793976663611774,-1.52780568927865 L-5.927609002839716,-1.5839897758103931 L-6.057670772051919,-1.6414378050396574 L-6.184083626901939,-1.7001151724217585 L-6.3067714210128925,-1.759986532904673 L-6.425660251845201,-1.82101582221958 L-6.5406785052127105,-1.8831662786046288 L-6.651756898420403,-1.9464004649488484 L-6.758828521997697,-2.0106802913428634 L-6.861828880002217,-2.0759670380228306 L-6.960695928869732,-2.1422213786937805 L-7.0553701147868795,-2.2094034042183015 L-7.145794409564162,-2.2774726466563147 L-7.231914344987586,-2.3463881036414485 L-7.313678045628285,-2.416108263079331 L-7.391036260090333,-2.486591128152921 L-7.46394239067795,-2.5577942426198215 L-7.532352521464205,-2.6296747163863348 L-7.596225444744332,-2.7021892513428467 L-7.65552268585771,-2.7752941674449936 L-7.710208526363558,-2.848945429024884 L-7.760250025556391,-2.92309867131654 L-7.8056170403082685,-2.997709227179577 L-7.846282243225883,-3.072732154005005 L-7.88222113911157,-3.1481222607869954 L-7.913412079718289,-3.2238341353442435 L-7.939836276789721,-3.2998221716745593 L-7.961477813377616,-3.376040597426236 L-7.9783236534295625,-3.452443501469592 L-7.99036364964142,-3.528984861552119 L-7.997590549569675,-3.60561857202057 L-8.00000000000004,-3.6822984715932496 " />
			<path d="M-8.00000000000004,-3.6822984715932785 L-7.997590549569675,-3.758978371165986 L-7.99036364964142,-3.8356120816344372 L-7.9783236534295625,-3.9121534417169648 L-7.961477813377616,-3.9885563457603204 L-7.939836276789721,-4.064774771511997 L-7.913412079718288,-4.1407628078423135 L-7.882221139111571,-4.216474682399559 L-7.846282243225884,-4.29186478918155 L-7.805617040308269,-4.366887716006978 L-7.760250025556393,-4.441498271870013 L-7.71020852636356,-4.515651514161669 L-7.6555226858577115,-4.58930277574156 L-7.596225444744334,-4.662407691843707 L-7.532352521464206,-4.73492222680022 L-7.463942390677952,-4.806802700566733 L-7.391036260090335,-4.878005815033633 L-7.3136780456282855,-4.948488680107223 L-7.231914344987588,-5.018208839545107 L-7.1457944095641635,-5.087124296530241 L-7.05537011478688,-5.155193538968255 L-6.960695928869732,-5.222375564492776 L-6.861828880002217,-5.2886299051637256 L-6.758828521997697,-5.353916651843693 L-6.651756898420403,-5.418196478237708 L-6.54067850521271,-5.481430664581928 L-6.4256602518452,-5.5435811209669765 L-6.306771421012891,-5.604610410281884 L-6.184083626901936,-5.664481770764799 L-6.0576707720519165,-5.7231591381469 L-5.927609002839713,-5.780607167376164 L-5.793976663611776,-5.836791253907906 L-5.6568542494924205,-5.891677554549254 L-5.5163243578965755,-5.945233007845036 L-5.3724716387761875,-5.997425353992751 L-5.225382743630255,-6.048223154274679 L-5.075146273309205,-6.097595809995383 L-4.921852724645055,-6.1455135809132155 L-4.765594435939508,-6.191947603154741 L-4.606465531342803,-6.236869906601239 L-4.444561864156859,-6.280253431736867 L-4.279980959096818,-6.322072045948297 L-4.112821953545814,-6.3623005592660276 L-3.9431855378383136,-6.4009147395378765 L-3.7711738946080233,-6.437891327025525 L-3.5968906372368954,-6.473208048415315 L-3.4204407474422984,-6.506843630234859 L-3.2419305120399597,-6.538777811667383 L-3.0614674589207596,-6.568991356756088 L-2.6951188271378013,-6.624184787272526 L-2.3222774180357395,-6.672290955975685 L-1.9438414392261527,-6.713193970891554 L-1.5607225761290675,-6.746795293074523 L-1.1738437956429348,-6.773013973996324 L-0.7841371226365271,-6.791786850558131 L-0.3925413946193859,-6.803068697255996 L-4.1416935476016004e-14,-6.806832335133051 L0.39254139461930315,-6.803068697255996 L0.7841371226364442,-6.791786850558131 L1.1738437956428522,-6.773013973996324 L1.5607225761289847,-6.746795293074523 L1.9438414392260701,-6.713193970891554 L2.3222774180356565,-6.672290955975685 L2.6951188271377187,-6.624184787272526 L3.061467458920677,-6.568991356756088 L3.2419305120398785,-6.538777811667383 L3.420440747442217,-6.506843630234858 L3.596890637236813,-6.473208048415315 L3.7711738946079407,-6.437891327025525 L3.943185537838231,-6.4009147395378765 L4.112821953545732,-6.3623005592660276 L4.2799809590967355,-6.322072045948298 L4.444561864156775,-6.280253431736868 L4.606465531342719,-6.23686990660124 L4.7655944359394224,-6.191947603154742 L4.92185272464497,-6.145513580913217 L5.075146273309122,-6.097595809995383 L5.225382743630174,-6.0482231542746785 L5.372471638776107,-5.997425353992751 L5.516324357896495,-5.945233007845035 L5.656854249492339,-5.891677554549254 L5.793976663611693,-5.836791253907906 L5.92760900283963,-5.780607167376164 L6.057670772051834,-5.7231591381469 L6.184083626901855,-5.664481770764798 L6.306771421012811,-5.604610410281883 L6.42566025184512,-5.543581120966976 L6.54067850521263,-5.481430664581927 L6.651756898420322,-5.418196478237707 L6.758828521997616,-5.353916651843693 L6.861828880002135,-5.288629905163725 L6.96069592886965,-5.222375564492776 L7.055370114786799,-5.155193538968255 L7.145794409564081,-5.0871242965302415 L7.231914344987504,-5.018208839545107 L7.313678045628203,-4.948488680107225 L7.391036260090253,-4.878005815033633 L7.463942390677871,-4.806802700566731 L7.532352521464126,-4.734922226800219 L7.5962254447442525,-4.662407691843706 L7.65552268585763,-4.58930277574156 L7.710208526363478,-4.515651514161669 L7.760250025556311,-4.441498271870013 L7.805617040308187,-4.366887716006979 L7.846282243225803,-4.291864789181551 L7.882221139111489,-4.216474682399561 L7.913412079718206,-4.140762807842315 L7.939836276789639,-4.064774771511999 L7.961477813377534,-3.988556345760321 L7.978323653429481,-3.912153441716964 L7.990363649641338,-3.835612081634437 L7.997590549569593,-3.758978371165986 L7.999999999999959,-3.6822984715932923 " />
			<path d="M7.999999999999959,-3.6822984715932785 L7.998644654366546,-3.6247860206855607 L7.9945790767067555,-3.5672930570901453 L7.987804644586317,-3.5098390615163213 L7.978323653429481,-3.452443501469593 L7.966139315741238,-3.3951258246553837 L7.951255760018808,-3.33790545238944 L7.933678029352755,-3.2808017730171852 L7.913412079718207,-3.223834135344243 L7.890464777956749,-3.167021842080354 L7.86484389944969,-3.110384143298915 L7.836558125483483,-3.053940229914362 L7.805617040308188,-2.9977092271795778 L7.772031127889973,-2.9417101882055685 L7.735811768358777,-2.885962087505572 L7.696971234152293,-2.8304838145658007 L7.655522685857631,-2.7752941674449976 L7.611480167752027,-2.720411846404973 L7.564858603044131,-2.6658554475742715 L7.51567378881748,-2.6116434566471245 L7.463942390677872,-2.557794242619825 L7.409681937106451,-2.5043260515666494 L7.352910813520421,-2.451257000457415 L7.231914344987507,-2.346388103641451 L7.101116963222792,-2.243329673733303 L6.960695928869651,-2.1422213786937814 L6.810841544842082,-2.0432002436008183 L6.651756898420323,-1.946400464948849 L6.48365758602072,-1.8519532287815912 L6.3067714210128125,-1.7599865329046738 L6.121338124979632,-1.6706250134190652 L5.927609002839634,-1.5839897758103927 L5.7258466022705115,-1.5001982308230453 L5.516324357896496,-1.4193639353415213 L5.299326220721335,-1.3415964384946388 L5.075146273309127,-1.267001133191175 L4.84408833123457,-1.1956791132881515 L4.606465531342726,-1.127727036585318 L4.3625999073763335,-1.063236993831532 L4.112821953545733,-1.002296383920529 L3.8574701766329396,-0.9449877954452512 L3.5968906372368146,-0.8913888947712412 L3.3314364807810635,-0.8415723207807866 L3.061467458920682,-0.7956055864304687 L2.787349441995438,-0.7535509872555273 L2.5094539231910975,-0.7154655169450268 L2.228157515080395,-0.6814007901022503 L1.943841439226079,-0.6514029722950023 L1.6568910095377138,-0.6255127174906083 L1.3676951100823727,-0.6037651129604011 L1.07664566805697,-0.5861896317283732 L0.7841371226364497,-0.5728100926284259 L0.49056589041763815,-0.5636446280243477 L0.19632982818326528,-0.55870565923628 L-0.09817230628579497,-0.5579998797069603 L-0.3925413946193822,-0.5615282459305604 L-0.6863784987555598,-0.5692859761564191 L-0.9792854015937658,-0.5812625568694147 L-1.270865146670923,-0.5974417570382071 L-1.5607225761290602,-0.6178016501120323 L-1.8484648662454055,-0.6423146437362366 L-2.1337020597992264,-0.6709475171462898 L-2.416047594553866,-0.7036614661895859 L-2.6951188271377977,-0.7404121559140298 L-2.9705375516147337,-0.7811497806521293 L-3.2419305120399544,-0.8258191315191725 L-3.508929908308259,-0.8743596712340067 L-3.7711738946080215,-0.9267056161610308 L-4.028307069805783,-0.9827860254622047 L-4.279980959096816,-1.0425248972382586 L-4.5258544862689405,-1.105841271528814 L-4.765594435939504,-1.1726493400318136 L-4.99887590513913,-1.2428585623935766 L-5.225382743630255,-1.3163737889118767 L-5.444807982363668,-1.3930953894857563 L-5.65685424949237,-1.472919388637282 " />
			<path d="M12.0,-3.6822984715932936 L12.0,0.0 " />
			<path d="M-12.0,-3.6822984715932936 L-12.0,0.0 " />

       </g>
    </g>
    
</svg>
