<?xml version="1.0" encoding="UTF-8" standalone="no"?>
<svg
   xmlns:svg="http://www.w3.org/2000/svg"
   xmlns="http://www.w3.org/2000/svg"
   width="800.0"
   height="600.0"

>
    <g transform="scale(2.939670919739658, -2.939670919739658)   translate(96.80348261626891,-41.954488581091354)" stroke-width="0.4"  fill="none">
       <!-- hidden lines -->
       <g  stroke="rgb(180,180,180)" fill="none" stroke-dasharray="0.4,0.4" >

       </g>

       <!-- solid lines -->
       <g  stroke="rgb(40,40,40)" fill="none">
			<path d="M-63.63961030678926,24.855514683254736 L-64.4157742755437,24.548627708665126 L-65.182237465632,24.238043801039566 L-65.93888445051716,23.923809733172078 L-66.68560128194635,23.60597282755746 L-67.42227550711134,23.284580949264626 L-68.14879618558363,22.95968249872823 L-68.86505390602134,22.631326404459877 L-69.57094080264635,22.299562115679596 L-70.26635057148849,21.964439594868928 L-70.95117848639458,21.626009310246808 L-71.62532141479956,21.284322228169277 L-72.28867783325805,20.939429805454104 L-72.94114784273351,20.5913839816315 L-73.58263318364253,20.240237171122303 L-73.89922634919941,20.063517403278595 L-74.21303725065229,19.886042255344577 L-74.52405407319803,19.707818409159305 L-74.83226510722908,19.52885257474983 L-75.13765874877419,19.349151490078675 L-75.4402234999354,19.168721920790098 L-75.73994796932087,18.987570659955384 L-76.03682087247363,18.805704527817166 L-76.33083103229674,18.623130371532504 L-76.62196737947387,18.439855064915164 L-76.91021895288605,18.255885508176906 L-77.19557490002448,18.07122862766753 L-77.47802447739903,17.885891375614225 L-77.75755705094278,17.69988072985977 L-78.03416209641235,17.513203693599827 L-78.30782919978402,17.325867295119348 L-78.57854805764609,17.137878587527826 L-78.8463084775866,16.949244648493824 L-79.111100378577,16.759972579978587 L-79.37291379135193,16.57006950796849 L-79.63173885878437,16.37954258220686 L-79.88756583625683,16.18839897592476 L-80.1403850920282,15.996645885570913 L-80.39018710759636,15.804290530540841 L-80.63696247805665,15.611340152904916 L-80.88070191245585,15.41780201713577 L-81.12139623414197,15.223683409834884 L-81.35903638110987,15.028991639458079 L-81.59361340634236,14.83373403604047 L-81.82511847814698,14.637917950920464 L-82.05354288048866,14.441550756462961 L-82.27887801331774,14.244639845781904 L-82.50111539289381,14.047192632461755 L-82.72024665210519,13.849216550278472 L-82.93626354078376,13.650719052919708 L-83.14915792601579,13.45170761370402 L-83.358921792448,13.25218972529961 L-83.56554724258936,13.052172899442212 L-83.76902649710851,12.851664666652239 L-83.96935189512648,12.650672575951385 L-84.16651589450525,12.449204194578238 L-84.36051107213174,12.24726710770345 L-84.55133012419708,12.044868918144271 L-84.73896586647184,11.842017246078113 L-84.9234112345764,11.638719728755776 L-85.10465928424688,11.434984020213882 L-85.28270319159668,11.230817790986674 L-85.45753625337328,11.026228727817351 L-85.62915188721072,10.821224533368476 L-85.79754363187743,10.615812925932069 L-85.96270514751934,10.410001639139113 L-86.12463021589878,10.2037984216682 L-86.2833127406284,9.99721103695392 L-86.43874674740088,9.790247262894548 L-86.59092638421372,9.582914891559167 L-86.73984592158956,9.375221728894433 L-86.88549975279201,9.167175594430503 L-87.02788239403668,8.958784320986721 L-87.16698848469754,8.750055754376811 L-87.30281278750894,8.5409977531133 L-87.43535018876265,8.331618188111745 L-87.5645956985004,8.121924942394488 L-87.69054445070181,7.91192591079368 L-87.81319170346757,7.7016289996541385 L-87.93253283919788,7.491042126535769 L-88.04856336476647,7.280173219915289 L-88.16127891168965,7.06903021888782 L-88.27067523629073,6.857621072868072 L-88.37674821985996,6.6459537412908745 L-88.47949386880947,6.434036193311593 L-88.57890831482361,6.2218764075061985 L-88.6749878150047,6.009482371570679 L-88.76772875201388,5.796862082020412 L-88.85712763420725,5.584023543889187 L-88.94318109576746,5.3709747704276385 L-89.02588589683029,5.157723782801639 L-89.10523892360673,4.9442786097904055 L-89.1812371885002,4.7306472874840315 L-89.25387783021895,4.516837858981025 L-89.32315811388389,4.302858374085585 L-89.3890754311315,4.088716889004347 L-89.45162730021204,3.8744214660431595 L-89.510811366083,3.6599801733036372 L-89.56662540049773,3.44540108437922 L-89.61906730208938,3.2306922780513245 L-89.66813509645002,3.0158618379851547 L-89.71382693620492,2.800917852425326 L-89.75614110108212,2.585868413891469 L-89.79507599797725,2.3707216188733686 L-89.83063016101343,2.1554855675262234 L-89.86280225159653,1.9401683633657776 L-89.89159105846552,1.7247781129630384 L-89.91699549773809,1.5093229256391947 L-89.93901461295145,1.2938109131602735 L-89.95764757509838,1.0782501894317056 L-89.97289368265838,0.8626488701929662 L-89.9847523616241,0.6470150727118352 L-89.993223165523,0.4313569154788796 L-89.9983057754341,0.2156825179018915 L-90.0,3.208131626753826e-13 " />
			<path d="M90.0,-4.3047566941629326e-15 L89.99618800967676,0.3235212392429463 L89.9847523616241,0.6470150727118222 L89.96569402456608,0.9704540969541164 L89.93901461295145,1.293810913160245 L89.90471638681711,1.617058129484572 L89.86280225159653,1.9401683633657647 L89.81327575787364,2.2631142438463656 L89.75614110108212,2.5858684138914567 L89.69140312114993,2.9084035327060818 L89.61906730208938,3.2306922780513116 L89.5391397715325,3.5527073485587337 L89.45162730021204,3.8744214660431777 L89.35653730138786,4.195807377813471 L89.25387783021895,4.516837858981043 L89.14365758308112,4.837485714766168 L89.02588589683029,5.157723782801642 L88.90057274801151,5.477524935433783 L88.7677287520139,5.796862082020398 L88.62736516217139,6.1157081712256405 L88.47949386880947,6.434036193311581 L88.32412739823792,6.751819182426225 L88.16127891168965,7.069030218887807 L87.9909622042059,7.385642431465186 L87.81319170346757,7.701628999654125 L87.62798246857307,8.016963155949288 L87.43535018876265,8.331618188111733 L87.23531118208936,8.64556744143173 L87.0278823940367,8.958784320986695 L86.81308139608316,9.27124229389411 L86.59092638421376,9.582914891559122 L86.36143617737862,9.893775711916687 L86.1246302158988,10.203798421668155 L85.88052855981951,10.512956758511987 L85.62915188721077,10.821224533368433 L85.37052149241572,11.128575632598059 L85.10465928424694,11.434984020213825 L84.83158778413024,11.740423740086666 L84.55133012419711,12.04486891814423 L84.26391004532506,12.348293764562667 L83.96935189512652,12.650672575951344 L83.66768062588633,12.951979737530195 L83.35892179244803,13.25218972529957 L83.04310155004907,13.551277108202395 L82.7202466521052,13.84921655027846 L82.3903844479441,14.145982812810654 L82.05354288048869,14.441550756462949 L81.70975048388995,14.735895343409993 L81.35903638110992,15.028991639458054 L81.00143028145445,15.320814816157274 L80.63696247805669,15.611340152904877 L80.26566384531087,15.900543039039237 L79.88756583625687,16.18839897592472 L79.50270047991586,16.474883579026983 L79.11110037857702,16.759972579978577 L78.71279870503587,17.043641828634776 L78.30782919978404,17.325867295119334 L77.89622616815122,17.606625071860094 L77.47802447739906,17.885891375614214 L77.0532595537675,18.163642549482848 L76.62196737947387,18.439855064915168 L76.18418448966472,18.714505523701494 L75.73994796932088,18.987570659955374 L75.2892954501161,19.259027342084412 L74.83226510722909,19.528852574749823 L74.36889565610973,19.797023500814362 L73.89922634919942,20.06351740327859 L73.42329697260605,20.328311707205216 L72.94114784273356,20.591383981631477 L72.45281980286677,20.852711941469288 L71.9583542197115,21.11227344939301 L71.45779297989039,21.370046517714716 L70.9511784863946,21.626009310246797 L70.43855365499185,21.880140144151742 L69.91996191059096,22.132417491778888 L69.39544718356326,22.382819982488062 L68.86505390602132,22.63132640445989 L68.32882700805493,22.877915706492697 L67.78681191392513,23.122566999785736 L67.23905453821621,23.365259559708736 L66.68560128194633,23.605972827557462 L66.12649902863677,23.844686412295303 L65.56179514034031,24.081380092280614 L64.99153745362942,24.316033816979644 L64.41577427554371,24.54862770866512 L63.834554379497945,24.779142064100046 L63.24792700115031,25.007557356206824 L62.65594183423169,25.233854235721374 L62.058649026336035,25.458013532832265 L61.45609917467234,25.680016258804567 L60.848343321778444,25.899843607588434 L60.235432951197254,26.117476957412173 L59.61741998311548,26.33289787235969 L58.99435676996543,26.546088103932263 L58.36629609199016,26.75702959259435 L57.73329115277252,26.96570446930341 L57.09539557472814,27.172095057023657 L56.452663394563,27.376183872223464 L55.80514905869611,27.577953626356397 L55.152907418646954,27.777387227325825 L54.49599372638937,27.974467780932674 L53.83446362967087,28.16917859230666 L53.168373167298746,28.361503167320468 L52.497778764392905,28.551425213987017 L51.82273722760613,28.738928643839547 L51.14330574031188,28.923997573294503 L50.459541857760286,29.106616324997034 L49.77150350220251,29.28676942914904 L49.07924895798421,29.464441624819642 L48.382836866608116,29.639617861237934 L47.682326221766544,29.812283299067968 L46.9777763643439,29.98242331166577 L46.26924697738996,30.150023486318428 L45.55679808106398,30.315069625464957 L44.840490027550366,30.47754774789902 L44.12038349594619,30.637444089953274 L43.39653948712103,30.794745106665303 L42.66901931854947,30.949437472925027 L41.93788461911693,31.10150808460349 L41.20319732389898,31.250944059662896 L40.46501966891462,31.397732739247918 L39.72341418585452,31.541861688757955 L38.97844369678376,31.68331869890054 L38.23017130881988,31.822091786725608 L37.47866040878743,31.95816919664053 L36.72397465784815,32.091539401405974 L35.96617798610828,32.222191103112394 L35.205334587202906,32.35011323413705 L34.44150891285813,32.475294958081605 L33.67476566743127,32.59772567069005 L32.90516980242969,32.71739500074701 L32.13278651100873,32.83429281095631 L31.357681222449134,32.948409198799695 L30.579919596614438,33.05973449737569 L29.799567518388887,33.16825927621851 L29.016691092096366,33.273974342096864 L28.231356635900305,33.37687073979283 L27.443630676186284,33.47693975286033 L26.65357994192628,33.57417290436361 L25.861271359025785,33.66856195759528 L25.066772044654904,33.76009891677406 L24.270149301562476,33.84877602772211 L23.471470612374905,33.9345857785219 L22.670803633879633,34.017520900152554 L21.868216191293847,34.0975743671056 L21.063776272519,34.17473939798011 L20.25755202238144,34.24900945605719 L19.449611736859833,34.320378249853654 L18.64002385729974,34.38883973365503 L17.828856964615884,34.45438810802769 L17.016179773482616,34.5170178203101 L16.202061126513005,34.576723565083206 L15.386569988427151,34.63350028461986 L14.569775440210101,34.6873431693133 L13.751746673259937,34.7382476580845 L12.932552983526522,34.786209438768594 L12.112263765641373,34.83122444848018 L11.290948507039168,34.873288873957435 L10.468676782071428,34.91239915188519 L9.64551824611287,34.94855196919676 L8.82154262966052,34.981744263354585 L7.996819732427273,35.0119732226097 L7.171419417428843,35.039236286239856 L6.345411605065372,35.06353114476653 L5.51886626719889,35.084855740150466 L4.691853421225609,35.10320826596609 L3.8644431241447768,35.118587167554494 L3.0367054666240785,35.13099114215514 L2.208710567062195,35.14041913901623 L1.3805285656490107,35.14687035948369 L0.5522296184239774,35.15034425706887 L-0.2761161086668704,35.15084053749479 L-1.104438445714733,35.14835915872107 L-1.9326672247922025,35.142900330947555 L-2.7607322858972503,35.13446451659643 L-3.5885634828965443,35.123052430273084 L-4.416090689467589,35.108665038705574 L-5.243243805039194,35.09130356066273 L-6.069952760729748,35.070969466850926 L-6.896147525282824,35.047664479789454 L-7.721758110999587,35.02139057366466 L-8.546714579667514,34.99214997416268 L-9.370947048484922,34.95994515828089 L-10.19438569598073,34.92477885411811 L-11.016960767929405,34.886654040643464 L-11.838602583259433,34.84557394744407 L-12.659241539956312,34.801542054451446 L-13.478808120958826,34.75456209164669 L-14.297232900047426,34.70463803874455 L-15.114446547725708,34.651774124856274 L-15.930379837093298,34.5959748281314 L-16.744963649710115,34.53724487537834 L-17.558128981451468,34.47558924166402 L-18.36980694835345,34.41101314989241 L-19.179928792448163,34.34352207036213 L-19.988425887588264,34.273121720302974 L-20.795229745260354,34.19981806339172 L-21.600272020386694,34.12361730924679 L-22.40348451711478,34.04452591290237 L-23.204799194594283,33.96255057426152 L-24.004148172740837,33.87769823752862 L-24.80146373798622,33.78997609062115 L-25.59667834901446,33.69939156456079 L-26.38972464248328,33.6059523328439 L-27.180535438730534,33.50966631079154 L-27.969043747465047,33.4105416548789 L-28.755182773441433,33.30858676204442 L-29.53888592211828,33.20381026897844 L-30.320086805299766,33.096221051391545 L-31.098719246758982,32.98582822326278 L-31.87471728784403,32.87264113606756 L-32.64801519306565,32.75666937798541 L-33.41854745566529,32.63792277308792 L-34.186248803164524,32.51641138050638 L-34.95105420289429,32.392145493579754 L-35.71289886750386,32.265135638982656 L-36.47171826044903,32.135392575833684 L-37.22744810145905,32.00292729478399 L-37.980024371981926,31.867751017086203 L-38.7293833206074,31.729875193643963 L-39.47546146846746,31.589311504041802 L-40.21819561461365,31.44607185555583 L-40.957522841370924,31.30016838214502 L-41.6933805196674,31.151613443423347 L-42.425706314339784,31.000419623612782 L-43.15443818941377,30.846599730477287 L-43.87951441335924,30.69016679423784 L-44.60087356431954,30.531134066468642 L-45.3184545353146,30.369515018974575 L-46.032196539417356,30.205323342649972 L-46.742039114903086,30.038572946318855 L-47.44792213037108,29.869277955556743 L-48.149785789838724,29.69745271149397 L-48.84757063780641,29.523111769600938 L-49.54121756429436,29.346269898455084 L-50.230667809849976,29.166942078489733 L-50.91586297052512,28.985143500725222 L-51.59674500282374,28.800889565481985 L-52.273256228618756,28.614195881075975 L-52.94533934003803,28.4250782624965 L-53.61293740431896,28.233552730066474 L-54.2759938686313,28.039635508085382 L-54.934452564867826,27.843343023454864 L-55.58825771440233,27.644691904287182 L-56.23735393281475,27.44369897849664 L-56.881686234582794,27.2403812723741 L-57.5212000377398,27.034756009144623 L-58.15584116849847,26.826840607508515 L-58.78555586583991,26.616652680165764 L-59.410290786067854,26.404210032324023 L-60.02999300732739,26.189530660190368 L-60.64461003408806,25.972632749446774 L-61.2540898015908,25.75353467370962 L-61.85838068025834,25.532254992973225 L-62.45743148006889,25.308812452037635 L-63.05119145489233,25.083225978920723 L-63.639610306788704,24.855514683254956 " />
			<path d="M-63.63961030678926,21.17321621166144 L-64.4157742755437,20.86632923707183 L-65.182237465632,20.555745329446275 L-65.93888445051716,20.241511261578786 L-66.68560128194635,19.923674355964167 L-67.42227550711134,19.60228247767133 L-68.14879618558363,19.277384027134936 L-68.86505390602134,18.949027932866585 L-69.57094080264635,18.6172636440863 L-70.26635057148849,18.282141123275636 L-70.95117848639458,17.943710838653516 L-71.62532141479956,17.60202375657598 L-72.28867783325805,17.257131333860812 L-72.94114784273351,16.909085510038203 L-73.58263318364253,16.55793869952901 L-73.89922634919941,16.381218931685304 L-74.21303725065229,16.203743783751285 L-74.52405407319803,16.02551993756601 L-74.83226510722908,15.846554103156537 L-75.13765874877419,15.666853018485382 L-75.4402234999354,15.486423449196804 L-75.73994796932087,15.30527218836209 L-76.03682087247363,15.123406056223873 L-76.33083103229674,14.94083189993921 L-76.62196737947387,14.75755659332187 L-76.91021895288605,14.573587036583612 L-77.19557490002448,14.388930156074236 L-77.47802447739903,14.203592904020931 L-77.75755705094278,14.017582258266478 L-78.03416209641235,13.830905222006534 L-78.30782919978402,13.643568823526055 L-78.57854805764609,13.455580115934533 L-78.8463084775866,13.26694617690053 L-79.111100378577,13.077674108385294 L-79.37291379135193,12.887771036375197 L-79.63173885878437,12.697244110613566 L-79.88756583625683,12.506100504331465 L-80.1403850920282,12.31434741397762 L-80.39018710759636,12.121992058947548 L-80.63696247805665,11.929041681311622 L-80.88070191245585,11.735503545542477 L-81.12139623414197,11.54138493824159 L-81.35903638110987,11.346693167864785 L-81.59361340634236,11.151435564447176 L-81.82511847814698,10.95561947932717 L-82.05354288048866,10.759252284869667 L-82.27887801331774,10.56234137418861 L-82.50111539289381,10.364894160868461 L-82.72024665210519,10.166918078685178 L-82.93626354078376,9.968420581326415 L-83.14915792601579,9.769409142110726 L-83.358921792448,9.569891253706317 L-83.56554724258936,9.369874427848918 L-83.76902649710851,9.169366195058945 L-83.96935189512648,8.968374104358091 L-84.16651589450525,8.766905722984944 L-84.36051107213174,8.564968636110157 L-84.55133012419708,8.362570446550977 L-84.73896586647184,8.15971877448482 L-84.9234112345764,7.956421257162482 L-85.10465928424688,7.752685548620589 L-85.28270319159668,7.54851931939338 L-85.45753625337328,7.343930256224057 L-85.62915188721072,7.138926061775182 L-85.79754363187743,6.933514454338775 L-85.96270514751934,6.727703167545819 L-86.12463021589878,6.521499950074906 L-86.2833127406284,6.314912565360627 L-86.43874674740088,6.107948791301254 L-86.59092638421372,5.900616419965873 L-86.73984592158956,5.692923257301139 L-86.88549975279201,5.48487712283721 L-87.02788239403668,5.276485849393428 L-87.16698848469754,5.067757282783518 L-87.30281278750894,4.858699281520007 L-87.43535018876265,4.649319716518452 L-87.5645956985004,4.439626470801194 L-87.69054445070181,4.229627439200386 L-87.81319170346757,4.019330528060845 L-87.93253283919788,3.808743654942475 L-88.04856336476647,3.5978747483219955 L-88.16127891168965,3.386731747294526 L-88.27067523629073,3.175322601274779 L-88.37674821985996,2.963655269697581 L-88.47949386880947,2.7517377217182997 L-88.57890831482361,2.539577935912905 L-88.6749878150047,2.3271838999773857 L-88.76772875201388,2.114563610427118 L-88.85712763420725,1.9017250722958936 L-88.94318109576746,1.688676298834345 L-89.02588589683029,1.4754253112083457 L-89.10523892360673,1.2619801381971119 L-89.1812371885002,1.048348815890738 L-89.25387783021895,0.8345393873877311 L-89.32315811388389,0.6205599024922916 L-89.3890754311315,0.40641841741105367 L-89.45162730021204,0.1921229944498659 L-89.510811366083,-0.02231829828965637 L-89.56662540049773,-0.2368973872140736 L-89.61906730208938,-0.45160619354196907 L-89.66813509645002,-0.6664366336081389 L-89.71382693620492,-0.8813806191679676 L-89.75614110108212,-1.0964300577018244 L-89.79507599797725,-1.311576852719925 L-89.83063016101343,-1.5268129040670702 L-89.86280225159653,-1.742130108227516 L-89.89159105846552,-1.9575203586302552 L-89.91699549773809,-2.172975545954099 L-89.93901461295145,-2.3884875584330203 L-89.95764757509838,-2.604048282161588 L-89.97289368265838,-2.8196496014003274 L-89.9847523616241,-3.0352833988814583 L-89.993223165523,-3.250941556114414 L-89.9983057754341,-3.4666159536914023 L-90.0,-3.682298471592973 " />
			<path d="M-90.0,-3.6822984715932976 L-89.99895955478604,-3.8513191555087896 L-89.99583824320028,-4.020335931496246 L-89.9906361374106,-4.189344891717983 L-89.98335335769491,-4.358342128517031 L-89.97399007243838,-4.527323734507473 L-89.9625464981296,-4.696285802664792 L-89.94902289935547,-4.865224426416209 L-89.9334195887952,-5.034135699730999 L-89.91573692721302,-5.2030157172108105 L-89.8959753234498,-5.371860574179955 L-89.87413523441371,-5.540666366775693 L-89.85021716506954,-5.70942919203849 L-89.82422166842709,-5.878145148002261 L-89.79614934552832,-6.046810333784586 L-89.7660008454336,-6.215420849676903 L-89.73377686520651,-6.383972797234671 L-89.69947814989786,-6.552462279367511 L-89.66310549252842,-6.720885400429304 L-89.62465973407055,-6.8892382663082685 L-89.58414176342883,-7.05751698451699 L-89.54155251741943,-7.225717664282428 L-89.49689298074856,-7.393836416635862 L-89.45016418598952,-7.5618693545028215 L-89.40136721355904,-7.729812592792951 L-89.35050319169213,-7.89766224848984 L-89.29757329641609,-8.065414440740799 L-89.18552082854282,-8.400610922851126 L-89.0652201729419,-8.73537103898529 L-88.93668245543715,-9.069663829361303 L-88.79991956364454,-9.403458377417092 L-88.65494414587288,-9.736723812669759 L-88.50176960995391,-10.069429313570616 L-88.3404101220025,-10.401544110355644 L-88.1708806051063,-10.733037487891202 L-87.99319673794578,-11.063878788514671 L-87.80737495334408,-11.394037414869771 L-87.61343243674735,-11.72348283273632 L-87.41138712463527,-12.05218457385414 L-87.20125770286232,-12.380112238740873 L-86.98306360492965,-12.707235499503428 L-86.75682501018768,-13.033524102642806 L-86.52256284197,-13.35894787185206 L-86.28029876565817,-13.68347671080709 L-86.03005518667813,-14.00708060595007 L-85.77185524842803,-14.329729629265204 L-85.50572283013783,-14.651393941046559 L-85.2316825446609,-14.972043792657765 L-84.9497597361977,-15.291649529283262 L-84.65998047795195,-15.610181592670875 L-84.36237156971912,-15.927610523865484 L-84.05696053540807,-16.24390696593347 L-83.74377562049541,-16.559041666677743 L-83.42284578941337,-16.872985481343125 L-83.094200722871,-17.185709375311717 L-82.75787081510916,-17.497184426788124 L-82.41388717108968,-17.807381829474288 L-82.06228160361852,-18.116272895233536 L-81.70308663040372,-18.42382905674379 L-81.33633547104797,-18.73002187013958 L-80.96206204397645,-19.034823017642616 L-80.5803009632998,-19.338204310180707 L-80.19108753561302,-19.640137689994813 L-79.79445775673004,-19.9405952332339 L-79.39044830835488,-20.239549152537435 L-78.97909655468905,-20.53697179960529 L-78.56044053897608,-20.832835667754694 L-78.13451897998307,-21.127113394464224 L-77.70137126841989,-21.4197777639043 L-77.26103746329619,-21.71080170945428 L-76.81355828821658,-22.00015831620562 L-76.3589751276144,-22.28782082345107 L-75.8973300229243,-22.57376262715964 L-75.42866566869411,-22.857957282436963 L-74.95302540863636,-23.140378505971064 L-74.47045323161966,-23.42100017846311 L-73.98099376760041,-23.699796347043026 L-73.48469228349533,-23.976741227669677 L-72.98159467899502,-24.25180920751552 L-72.47174748231895,-24.524974847335322 L-71.9551978459124,-24.796212883818875 L-71.43199354208562,-25.065498231927464 L-70.9021829585957,-25.332805987213774 L-70.3658150941715,-25.598111428125193 L-69.82293955398208,-25.861390018290088 L-69.27360654504899,-26.122617408787086 L-68.71786687160302,-26.38176944039686 L-68.15577193038561,-26.638822145836542 L-67.58737370589552,-26.893751751976247 L-67.01272476558107,-27.146534682037704 L-66.43187825497861,-27.397147557774744 L-65.84488789279737,-27.645567201635366 L-65.25180796595137,-27.891770638905314 L-64.65269332453879,-28.135735099832814 L-64.04759937676924,-28.37743802173445 L-63.43658208383944,-28.61685705108181 L-62.819697954757686,-28.853970045568808 L-62.19700404111772,-29.088755076159508 L-61.56855793182243,-29.3211904291162 L-60.93441774775776,-29.551254608007525 L-60.294642136417586,-29.778926335696582 L-59.64929026647969,-30.00418455630868 L-58.99842182233368,-30.227008437178675 L-58.34209699856119,-30.44737737077766 L-57.68037649436884,-30.665270976618793 L-57.01332150797462,-30.880669103142154 L-56.34099373094793,-31.09355182957848 L-55.66345534250429,-31.30389946779143 L-54.98076900375473,-31.511692564098503 L-54.292997851910606,-31.716911901070098 L-53.600205494444545,-31.91953849930686 L-52.902456003207774,-32.119553619194946 L-52.199813908504474,-32.316938762639126 L-51.492344193123905,-32.51167567477356 L-50.78011228633047,-32.70374634565005 L-50.06318405781263,-32.89313301190372 L-49.34162581159106,-33.07981815839576 L-48.6155042798866,-33.26378451983332 L-47.884886616948606,-33.44501508236629 L-47.14984039284437,-33.623493085160746 L-46.41043358720988,-33.7992020219491 L-45.666734582962995,-33.972125642556634 L-44.918812159978955,-34.14224795440437 L-44.16673548872953,-34.30955322398812 L-43.41057412388585,-34.4740259783336 L-42.65039799788574,-34.63565100642739 L-41.88627741446611,-34.794413360623714 L-41.11828304216107,-34.95029835802686 L-40.34648590776617,-35.1032915818491 L-39.570957389769674,-35.253378882744 L-38.79176921175122,-35.400546380115 L-38.00899343574854,-35.54478046339916 L-37.22270245559295,-35.686067793325854 L-36.43296899021408,-35.824395303150524 L-35.63986607691456,-35.95975019986307 L-34.843467064615325,-36.092119965371005 L-34.04384560707205,-36.22149235765717 L-33.24107565606336,-36.34785541191196 L-32.435231454551534,-36.47119744163979 L-31.626387529816245,-36.59150703973997 L-30.814618686562014,-36.70877307956168 L-30.000000000000185,-36.82298471593291 " />
			<path d="M30.000000000000057,-36.822984715932925 L30.814618686562078,-36.70877307956167 L31.626387529816313,-36.591507039739966 L32.4352314545516,-36.471197441639774 L33.24107565606343,-36.347855411911944 L34.043845607072114,-36.22149235765716 L34.84346706461539,-36.092119965371 L35.63986607691462,-35.95975019986306 L36.432968990214135,-35.82439530315052 L37.222702455593016,-35.68606779332585 L38.008993435748614,-35.54478046339914 L38.79176921175129,-35.400546380114996 L39.57095738976974,-35.25337888274399 L40.34648590776624,-35.10329158184909 L41.118283042161146,-34.95029835802685 L41.88627741446617,-34.7944133606237 L42.650397997885804,-34.63565100642738 L43.410574123885915,-34.47402597833359 L44.16673548872956,-34.30955322398812 L44.918812159978984,-34.142247954404354 L45.66673458296304,-33.97212564255663 L46.41043358720994,-33.79920202194909 L47.14984039284442,-33.62349308516073 L47.88488661694867,-33.445015082366275 L48.61550427988666,-33.26378451983331 L49.34162581159113,-33.079818158395746 L50.0631840578127,-32.89313301190371 L50.78011228633051,-32.703746345650046 L51.49234419312395,-32.51167567477354 L52.199813908504524,-32.31693876263911 L52.902456003207796,-32.11955361919494 L53.60020549444457,-31.919538499306853 L54.29299785191064,-31.716911901070084 L54.980769003754766,-31.51169256409849 L55.66345534250434,-31.303899467791418 L56.34099373094795,-31.093551829578466 L57.013321507974645,-30.880669103142147 L57.680376494368886,-30.66527097661878 L58.342096998561196,-30.44737737077766 L58.99842182233369,-30.227008437178675 L59.64929026647971,-30.004184556308672 L60.294642136417615,-29.778926335696568 L60.9344177477578,-29.55125460800752 L61.56855793182246,-29.321190429116186 L62.197004041117765,-29.088755076159494 L62.819697954757736,-28.853970045568786 L63.4365820838395,-28.616857051081787 L64.04759937676928,-28.37743802173444 L64.65269332453882,-28.1357350998328 L65.25180796595141,-27.891770638905292 L65.84488789279739,-27.64556720163536 L66.43187825497863,-27.39714755777473 L67.0127247655811,-27.14653468203769 L67.58737370589554,-26.893751751976225 L68.15577193038564,-26.638822145836528 L68.71786687160306,-26.381769440396845 L69.27360654504903,-26.122617408787065 L69.82293955398212,-25.861390018290066 L70.36581509417155,-25.598111428125165 L70.90218295859573,-25.33280598721376 L71.43199354208565,-25.065498231927442 L71.95519784591242,-24.79621288381886 L72.47174748231896,-24.524974847335315 L72.98159467899504,-24.251809207515514 L73.48469228349536,-23.976741227669663 L73.98099376760044,-23.699796347043005 L74.4704532316197,-23.421000178463096 L74.95302540863638,-23.140378505971057 L75.42866566869412,-22.857957282436956 L75.89733002292431,-22.57376262715963 L76.3589751276144,-22.28782082345107 L76.81355828821658,-22.000158316205614 L77.2610374632962,-21.710801709454273 L77.7013712684199,-21.419777763904293 L78.13451897998308,-21.12711339446421 L78.5604405389761,-20.832835667754686 L78.97909655468908,-20.536971799605276 L79.39044830835489,-20.23954915253742 L79.79445775673007,-19.94059523323388 L80.19108753561302,-19.640137689994802 L80.58030096329982,-19.338204310180696 L80.96206204397647,-19.0348230176426 L81.33633547104797,-18.73002187013958 L81.70308663040372,-18.423829056743784 L82.06228160361852,-18.11627289523353 L82.41388717108968,-17.80738182947428 L82.75787081510917,-17.497184426788117 L83.09420072287101,-17.185709375311703 L83.4228457894134,-16.87298548134311 L83.74377562049543,-16.559041666677725 L84.05696053540808,-16.243906965933448 L84.36237156971913,-15.927610523865475 L84.65998047795195,-15.610181592670864 L84.94975973619772,-15.291649529283246 L85.2316825446609,-14.972043792657763 L85.50572283013783,-14.651393941046553 L85.77185524842803,-14.329729629265195 L86.03005518667814,-14.007080605950062 L86.28029876565817,-13.683476710807076 L86.52256284197,-13.35894787185206 L86.7568250101877,-13.033524102642804 L86.98306360492965,-12.707235499503422 L87.20125770286232,-12.380112238740882 L87.41138712463527,-12.052184573854143 L87.61343243674735,-11.723482832736321 L87.80737495334408,-11.39403741486977 L87.99319673794578,-11.063878788514668 L88.17088060510632,-10.733037487891197 L88.34041012200251,-10.401544110355635 L88.50176960995391,-10.069429313570605 L88.65494414587288,-9.736723812669746 L88.79991956364454,-9.40345837741709 L88.93668245543715,-9.0696638293613 L89.0652201729419,-8.735371038985285 L89.18552082854282,-8.400610922851133 L89.29757329641609,-8.065414440740803 L89.35050319169214,-7.8976622484898344 L89.40136721355904,-7.729812592792952 L89.45016418598952,-7.561869354502829 L89.49689298074856,-7.39383641663586 L89.54155251741945,-7.225717664282417 L89.58414176342883,-7.057516984516987 L89.62465973407055,-6.889238266308271 L89.66310549252842,-6.720885400429298 L89.69947814989786,-6.552462279367495 L89.73377686520651,-6.383972797234662 L89.7660008454336,-6.2154208496768995 L89.79614934552832,-6.046810333784574 L89.82422166842709,-5.87814514800224 L89.85021716506954,-5.709429192038476 L89.87413523441373,-5.540666366775684 L89.8959753234498,-5.371860574179954 L89.91573692721302,-5.203015717210816 L89.9334195887952,-5.034135699730995 L89.94902289935547,-4.865224426416195 L89.9625464981296,-4.696285802664785 L89.97399007243838,-4.527323734507472 L89.98335335769491,-4.3583421285170365 L89.9906361374106,-4.189344891717996 L89.99583824320028,-4.020335931496248 L89.99895955478604,-3.851319155508784 L90.0,-3.682298471593454 " />
			<path d="M90.0,-3.682298471593298 L89.99618800967676,-3.3587772323503473 L89.9847523616241,-3.0352833988814716 L89.96569402456608,-2.711844374639177 L89.93901461295145,-2.3884875584330487 L89.90471638681711,-2.0652403421087215 L89.86280225159653,-1.742130108227529 L89.81327575787364,-1.419184227746928 L89.75614110108212,-1.0964300577018369 L89.69140312114993,-0.7738949388872118 L89.61906730208938,-0.45160619354198195 L89.5391397715325,-0.12959112303455989 L89.45162730021204,0.19212299444988412 L89.35653730138786,0.513508906220177 L89.25387783021895,0.8345393873877498 L89.14365758308112,1.1551872431728745 L89.02588589683029,1.4754253112083484 L88.90057274801151,1.7952264638404891 L88.7677287520139,2.114563610427105 L88.62736516217139,2.433409699632347 L88.47949386880947,2.7517377217182872 L88.32412739823792,3.069520710832931 L88.16127891168965,3.3867317472945135 L87.9909622042059,3.7033439598718925 L87.81319170346757,4.019330528060832 L87.62798246857307,4.334664684355994 L87.43535018876265,4.6493197165184394 L87.23531118208936,4.9632689698384365 L87.0278823940367,5.276485849393401 L86.81308139608316,5.588943822300816 L86.59092638421376,5.900616419965829 L86.36143617737862,6.2114772403233935 L86.1246302158988,6.521499950074862 L85.88052855981951,6.830658286918693 L85.62915188721077,7.138926061775139 L85.37052149241572,7.446277161004765 L85.10465928424694,7.752685548620532 L84.83158778413024,8.058125268493372 L84.55133012419711,8.362570446550937 L84.26391004532506,8.665995292969374 L83.96935189512652,8.96837410435805 L83.66768062588633,9.269681265936901 L83.35892179244803,9.569891253706276 L83.04310155004907,9.868978636609102 L82.7202466521052,10.166918078685166 L82.3903844479441,10.46368434121736 L82.05354288048869,10.759252284869655 L81.70975048388995,11.0535968718167 L81.35903638110992,11.34669316786476 L81.00143028145445,11.63851634456398 L80.63696247805669,11.929041681311583 L80.26566384531087,12.218244567445943 L79.88756583625687,12.506100504331426 L79.50270047991586,12.79258510743369 L79.11110037857702,13.077674108385283 L78.71279870503587,13.361343357041482 L78.30782919978404,13.64356882352604 L77.89622616815122,13.9243266002668 L77.47802447739906,14.20359290402092 L77.0532595537675,14.481344077889554 L76.62196737947387,14.757556593321874 L76.18418448966472,15.0322070521082 L75.73994796932088,15.30527218836208 L75.2892954501161,15.576728870491118 L74.83226510722909,15.84655410315653 L74.36889565610973,16.11472502922107 L73.89922634919942,16.381218931685297 L73.42329697260605,16.646013235611925 L72.94114784273356,16.90908551003818 L72.45281980286677,17.170413469875996 L71.9583542197115,17.429974977799716 L71.45779297989039,17.68774804612142 L70.9511784863946,17.9437108386535 L70.43855365499185,18.197841672558447 L69.91996191059096,18.450119020185596 L69.39544718356326,18.700521510894767 L68.86505390602132,18.9490279328666 L68.32882700805493,19.1956172348994 L67.78681191392513,19.44026852819244 L67.23905453821621,19.68296108811544 L66.68560128194633,19.923674355964167 L66.12649902863677,20.16238794070201 L65.56179514034031,20.39908162068732 L64.99153745362942,20.63373534538635 L64.41577427554371,20.866329237071824 L63.834554379497945,21.09684359250675 L63.24792700115031,21.325258884613532 L62.65594183423169,21.551555764128082 L62.058649026336035,21.77571506123897 L61.45609917467234,21.997717787211272 L60.848343321778444,22.217545135995138 L60.235432951197254,22.43517848581888 L59.61741998311548,22.650599400766396 L58.99435676996543,22.86378963233897 L58.36629609199016,23.074731121001058 L57.73329115277252,23.28340599771012 L57.09539557472814,23.489796585430362 L56.452663394563,23.693885400630172 L55.80514905869611,23.895655154763105 L55.152907418646954,24.095088755732533 L54.49599372638937,24.29216930933938 L53.83446362967087,24.486880120713366 L53.168373167298746,24.679204695727172 L52.497778764392905,24.869126742393725 L51.82273722760613,25.05663017224625 L51.14330574031188,25.241699101701208 L50.459541857760286,25.424317853403743 L49.77150350220251,25.604470957555748 L49.07924895798421,25.78214315322635 L48.382836866608116,25.95731938964464 L47.682326221766544,26.129984827474672 L46.9777763643439,26.300124840072478 L46.26924697738996,26.467725014725133 L45.55679808106398,26.632771153871666 L44.840490027550366,26.795249276305725 L44.12038349594619,26.95514561835998 L43.39653948712103,27.11244663507201 L42.66901931854947,27.267139001331735 L41.93788461911693,27.419209613010196 L41.20319732389898,27.5686455880696 L40.46501966891462,27.715434267654622 L39.72341418585452,27.859563217164663 L38.97844369678376,28.001020227307244 L38.23017130881988,28.139793315132316 L37.47866040878743,28.275870725047234 L36.72397465784815,28.409240929812682 L35.96617798610828,28.539892631519102 L35.205334587202906,28.667814762543756 L34.44150891285813,28.792996486488313 L33.67476566743127,28.91542719909676 L32.90516980242969,29.03509652915372 L32.13278651100873,29.15199433936302 L31.357681222449134,29.266110727206403 L30.579919596614438,29.3774360257824 L29.799567518388887,29.485960804625215 L29.016691092096366,29.591675870503572 L28.231356635900305,29.694572268199536 L27.443630676186284,29.79464128126704 L26.65357994192628,29.891874432770315 L25.861271359025785,29.986263486001988 L25.066772044654904,30.07780044518077 L24.270149301562476,30.166477556128818 L23.471470612374905,30.252287306928608 L22.670803633879633,30.335222428559263 L21.868216191293847,30.41527589551231 L21.063776272519,30.49244092638682 L20.25755202238144,30.566710984463896 L19.449611736859833,30.638079778260362 L18.64002385729974,30.70654126206174 L17.828856964615884,30.7720896364344 L17.016179773482616,30.83471934871681 L16.202061126513005,30.894425093489915 L15.386569988427151,30.95120181302657 L14.569775440210101,31.00504469772001 L13.751746673259937,31.055949186491205 L12.932552983526522,31.103910967175302 L12.112263765641373,31.148925976886886 L11.290948507039168,31.190990402364143 L10.468676782071428,31.230100680291898 L9.64551824611287,31.266253497603465 L8.82154262966052,31.299445791761293 L7.996819732427273,31.329674751016405 L7.171419417428843,31.356937814646564 L6.345411605065372,31.381232673173237 L5.51886626719889,31.402557268557175 L4.691853421225609,31.420909794372797 L3.8644431241447768,31.436288695961203 L3.0367054666240785,31.448692670561847 L2.208710567062195,31.45812066742294 L1.3805285656490107,31.4645718878904 L0.5522296184239774,31.46804578547558 L-0.2761161086668704,31.468542065901495 L-1.104438445714733,31.46606068712778 L-1.9326672247922025,31.460601859354263 L-2.7607322858972503,31.45216604500314 L-3.5885634828965443,31.440753958679792 L-4.416090689467589,31.426366567112282 L-5.243243805039194,31.40900508906944 L-6.069952760729748,31.388670995257634 L-6.896147525282824,31.365366008196162 L-7.721758110999587,31.33909210207137 L-8.546714579667514,31.309851502569387 L-9.370947048484922,31.277646686687596 L-10.19438569598073,31.242480382524818 L-11.016960767929405,31.204355569050172 L-11.838602583259433,31.16327547585078 L-12.659241539956312,31.119243582858154 L-13.478808120958826,31.0722636200534 L-14.297232900047426,31.022339567151256 L-15.114446547725708,30.969475653262982 L-15.930379837093298,30.91367635653811 L-16.744963649710115,30.85494640378505 L-17.558128981451468,30.793290770070726 L-18.36980694835345,30.72871467829912 L-19.179928792448163,30.661223598768835 L-19.988425887588264,30.590823248709683 L-20.795229745260354,30.517519591798425 L-21.600272020386694,30.441318837653498 L-22.40348451711478,30.36222744130908 L-23.204799194594283,30.28025210266823 L-24.004148172740837,30.195399765935328 L-24.80146373798622,30.10767761902786 L-25.59667834901446,30.0170930929675 L-26.38972464248328,29.923653861250607 L-27.180535438730534,29.827367839198246 L-27.969043747465047,29.728243183285606 L-28.755182773441433,29.62628829045113 L-29.53888592211828,29.521511797385145 L-30.320086805299766,29.413922579798253 L-31.098719246758982,29.303529751669487 L-31.87471728784403,29.190342664474265 L-32.64801519306565,29.07437090639212 L-33.41854745566529,28.95562430149463 L-34.186248803164524,28.83411290891309 L-34.95105420289429,28.709847021986462 L-35.71289886750386,28.582837167389364 L-36.47171826044903,28.453094104240392 L-37.22744810145905,28.320628823190695 L-37.980024371981926,28.185452545492907 L-38.7293833206074,28.04757672205067 L-39.47546146846746,27.90701303244851 L-40.21819561461365,27.763773383962537 L-40.957522841370924,27.617869910551725 L-41.6933805196674,27.46931497183005 L-42.425706314339784,27.318121152019486 L-43.15443818941377,27.164301258883995 L-43.87951441335924,27.007868322644548 L-44.60087356431954,26.848835594875347 L-45.3184545353146,26.687216547381283 L-46.032196539417356,26.523024871056677 L-46.742039114903086,26.35627447472556 L-47.44792213037108,26.186979483963448 L-48.149785789838724,26.015154239900674 L-48.84757063780641,25.840813298007646 L-49.54121756429436,25.663971426861792 L-50.230667809849976,25.48464360689644 L-50.91586297052512,25.30284502913193 L-51.59674500282374,25.11859109388869 L-52.273256228618756,24.93189740948268 L-52.94533934003803,24.742779790903207 L-53.61293740431896,24.55125425847318 L-54.2759938686313,24.35733703649209 L-54.934452564867826,24.161044551861572 L-55.58825771440233,23.962393432693887 L-56.23735393281475,23.76140050690335 L-56.881686234582794,23.55808280078081 L-57.5212000377398,23.35245753755133 L-58.15584116849847,23.144542135915223 L-58.78555586583991,22.934354208572472 L-59.410290786067854,22.72191156073073 L-60.02999300732739,22.507232188597072 L-60.64461003408806,22.290334277853482 L-61.2540898015908,22.071236202116324 L-61.85838068025834,21.84995652137993 L-62.45743148006889,21.626513980444344 L-63.05119145489233,21.40092750732743 L-63.639610306788704,21.17321621166166 " />
			<path d="M-21.21320343559643,4.6028730894916166 L-20.81914382668962,4.753972345752588 L-20.418029933863597,4.902213086309914 L-20.009997669109136,5.047545081803493 L-19.59518528861331,5.1899190884619575 L-19.173733345913277,5.329286864788244 L-18.745784644271595,5.465601187905584 L-18.31148418828928,5.598815869558326 L-17.870979134772995,5.7288857717621955 L-17.424418742872927,5.855766822098698 L-16.971954323508385,5.979416028648446 L-16.51373918809813,6.0997914945583975 L-16.04992859661292,6.216852432238026 L-15.580679704967705,6.330559177179657 L-15.106151511771541,6.4408732013982295 L-14.62650480445309,6.547757126485983 L-14.141902104779936,6.651174736277632 L-13.652507613790318,6.751090989121712 L-13.158487156155829,6.8474720297539715 L-12.660008123993986,6.940285200768773 L-12.157239420149686,7.029499053684601 L-11.650351400964775,7.115083359599955 L-11.139515818555108,7.197009119436013 L-10.624905762614688,7.275248573762555 L-10.106695601766598,7.349775212203886 L-9.585060924480487,7.420563782421512 L-9.060178479576855,7.4875902986705505 L-8.532226116338165,7.550832049926967 L-8.001382724246955,7.610267607582912 L-7.467828172371604,7.665876832707497 L-6.931743248420128,7.71764088287061 L-6.393309597482732,7.765542218527413 L-5.852709660483833,7.809564608961377 L-5.310126612364443,7.849693137783838 L-4.765744300015819,7.885914207988222 L-4.219747179985448,7.918215546557189 L-3.6723202559764787,7.946586208621193 L-3.1236490161616524,7.971016581167001 L-2.573919370333207,7.991498386294927 L-2.023317586909927,8.008024684023681 L-1.472030229822541,8.020589874641896 L-0.9202440952990945,8.029189700605516 L-0.3681461485715887,8.033821247980399 L0.1840765394746481,8.034482947429664 L0.7362368556873873,8.03117457474545 L1.2881477080482482,8.02389725092487 L1.8396220890662855,8.012653441790196 L2.3904731391429364,7.9974469571533255 L2.940514209886829,7.9782829495249015 L3.489558927357132,7.955167912368438 L4.037421255213779,7.928109677900098 L4.5839155577533015,7.897117414434872 L5.1288566628090395,7.862201623279995 L5.672059924494194,7.82337413517674 L6.213341285766569,7.78064810629172 L6.752517340793802,7.734038013759104 L7.289405397097939,7.683559650775241 L7.823823537458292,7.629230121247343 L8.355590681551623,7.571067833998061 L8.88452664730875,7.509092496527911 L9.410452211966758,7.44332510833765 L9.933189172796286,7.373787953812876 L10.452560407483036,7.3005045946732725 L10.968389934143218,7.223499861989046 L11.480502970952701,7.142799847767243 L11.988725995369416,7.058431896110838 L12.492886802929132,6.9704245939535525 L12.992814565594578,6.8788077613735545 L13.488339889638198,6.783612441489346 L13.979294873038965,6.684870889941205 L14.465513162373666,6.58261656396181 L14.946830009183444,6.476884111039716 L15.423082325796646,6.367709357179518 L15.894108740588837,6.255129294762698 L16.359749652661392,6.1391820700132556 L16.819847285920087,6.0199069700723875 L17.274245742535367,5.897344409686559 L17.722791055766237,5.771535917513532 L18.16533124212978,5.642524122050935 L18.601716352898695,5.510352737192175 L19.03179852490937,5.375066547414596 L19.45543203066336,5.236711392604832 L19.872473327705144,5.095334152526609 L20.28278110725947,4.950982730936188 L20.686216342112004,4.803706039350798 L21.08264233371676,4.653553980475651 L21.471924758514565,4.500577431295081 L21.853931713446762,4.344828225833581 L22.228533760648784,4.186359137592525 L22.59560397130839,4.025223861668614 L22.955017968673783,3.8614769965599987 L23.306653970196994,3.69517402566633 L23.650392828798193,3.526371298488975 L23.986118073237144,3.355126011537722 L24.31371594757784,3.1814961889505398 L24.633075449733138,3.005540662832905 L24.944088369076358,2.8273190533233175 L25.246649323106954,2.646891748391835 L25.54065579315796,2.464319883378428 L25.826008159133025,2.279665320278106 L26.10260973326134,2.092990626779822 L26.370366792858988,1.9043590550662453 L26.629188612085606,1.713834520381626 L26.878987492685546,1.5214815793750116 L27.119678793703294,1.3273654082260657 L27.35118096016289,1.1315517805610265 L27.57341555070173,0.934107045166197 L27.786307264149343,0.7350981035065667 L27.989783965042168,0.5345923870571578 L28.1837767080657,0.33265783445478725 L28.368219761415645,0.12936286847798062 L28.456840497471916,0.027226739272720124 L28.543050629070258,-0.07522362713715536 L28.626842853273168,-0.1779795520892944 L28.708210071966263,-0.2810323310372369 L28.787145392459536,-0.38437323428772663 L28.86364212807124,-0.4879935077402382 L28.937693798694376,-0.5918843736285759 L29.00929413134556,-0.6960370312643862 L29.078437060696448,-0.8004426577827131 L29.14511672958755,-0.9050924088893786 L29.209327489524355,-1.0099774196101934 L29.271063901155856,-1.115088805041914 L29.3303207347353,-1.2204176611048942 L29.387092970563216,-1.3259550652973537 L29.441375799412636,-1.4316920774512143 L29.49316462293649,-1.5376197404894292 L29.542455054057125,-1.6437290811847425 L29.58924291733796,-1.750011110919823 L29.633524249337164,-1.8564568264486951 L29.675295298943432,-1.9630572106594137 L29.714552527693712,-2.0698032333379106 L29.751292610072987,-2.176685851932952 L29.785512433795954,-2.283696012322143 L29.81720910007068,-2.3908246495789074 L29.84637992384417,-2.4980626887403883 L29.873022434029796,-2.605401045576196 L29.897134373716646,-2.7128306273579286 L29.918713700360705,-2.8203423336294704 L29.93775858595788,-2.9279270569778344 L29.95426741719884,-3.035575683804691 L29.968238795605707,-3.1432790950984217 L29.979671537650482,-3.2510281672065355 L29.988564674855358,-3.358813772608584 L29.994917453874702,-3.4666267806893485 L29.998729336558917,-3.5744580585123074 L30.0,-3.6822984715931866 " />
			<path d="M-30.0,-3.682298471593295 L-29.997741055174334,-3.5385128331003326 L-29.990964560886127,-3.3947488481956425 L-29.979671537650486,-3.2510281672065453 L-29.96386368615517,-3.1073724339389517 L-29.943543387004475,-2.963803282417885 L-29.918713700360705,-2.820342333629475 L-29.88937836548334,-2.6770111922649127 L-29.85554180016591,-2.533831443466886 L-29.81720910007068,-2.390824649578901 L-29.7743860379613,-2.2480123468980926 L-29.7270790628334,-2.105416042431949 L-29.67529529894343,-1.963057210659408 L-29.61904254473575,-1.8209572902968967 L-29.558329271668235,-1.6791376810697383 L-29.49316462293649,-1.5376197404894283 L-29.423558412096913,-1.3964247806372736 L-29.34952112158883,-1.2555740649548732 L-29.271063901155856,-1.1150888050419185 L-29.188198566166804,-0.9749901574618072 L-29.10093759583632,-0.835299220555541 L-29.009294131345566,-0.6960370312643955 L-28.9132819738632,-0.5572245619618301 L-28.812915582466978,-0.4188827172951304 L-28.708210071966267,-0.2810323310372418 L-28.59918121062582,-0.14369416294927984 L-28.485845417791104,-0.0068888956541903745 L-28.368219761415645,0.1293628684779815 L-28.24632195549063,0.26504061043273053 L-28.12017035737725,0.4001238976411807 L-27.98978396504217,0.5345923870571543 L-27.855182414196467,0.6684258282207631 L-27.716385975338607,0.8016040663080375 L-27.573415550701732,0.9341070451661926 L-27.426292671105916,1.0659148103340037 L-27.275039492715667,1.1970075120468522 L-27.119678793703297,1.3273654082260622 L-26.960233970818614,1.4569688674519634 L-26.79672903586546,1.5857983719203164 L-26.629188612085617,1.713834520381619 L-26.45763793045065,1.8410580310628664 L-26.282102825862196,1.967449744571316 L-26.102609733261342,2.0929906267798177 L-25.919185683647605,2.2176617716932894 L-25.731858300008163,2.3414444042958795 L-25.54065579315796,2.4643198833784288 L-25.345606957491217,2.5862697043457583 L-25.146741166645146,2.707275502003398 L-24.944088369076365,2.827319053323315 L-24.737679083550766,2.9463822801882333 L-24.52754439454752,3.064447252114136 L-24.313715947577855,3.1814961889505318 L-24.09622594441936,3.2975114635580702 L-23.875107138266518,3.4124756044631335 L-23.6503928287982,3.5263712984889724 L-23.422116857162838,3.639181393363013 L-23.190313600882114,3.7508889002999046 L-22.955017968673772,3.861476996560003 L-22.716265395194533,3.9709290279827885 L-22.474091835703778,4.079228511494915 L-22.228533760648773,4.186359137592531 L-21.979628150172385,4.292304772797399 L-21.72741248854401,4.397049462086558 L-21.47192475851456,4.500577431295083 L-21.213203435596522,4.602873089491579 " />
			<path d="M59.33795532453366,-52.74040652491198 L58.78276404803806,-52.55182392016124 L58.2236439406702,-52.365020340668636 L57.660632372029426,-52.18000827172099 L57.09376697180638,-51.99680007886694 L56.523085627268294,-51.81540800709048 L55.94862648072652,-51.635844179992546 L55.370427926987105,-51.45812059898064 L54.78852861078488,-51.2822491424668 L54.20296742420046,-51.108241565073655 L53.61378350406084,-50.93610949684876 L53.02101622932368,-50.76586444248733 L52.424705218445176,-50.597517780563244 L51.82489032673245,-50.43108076276865 L51.22161164367952,-50.26656451316185 L50.61490949028778,-50.103980027423816 L50.00482441637192,-49.943338172123454 " />
			<path d="M66.0370461083464,-56.63112305130204 L59.33795532453361,-54.01468105018325 " />
			<path d="M67.66836083358055,-55.99398578866639 L66.03704610834639,-56.63112305130204 " />
			<path d="M74.82992406175408,-59.63919623559177 L74.41861956049695,-59.40091730145522 L74.00234118339823,-59.163959623535845 L73.58111675302403,-58.928339039242026 L73.15497442251711,-58.69407129661556 L72.72394267371513,-58.461172053279135 L72.28805031524715,-58.22965687538982 L71.84732648060798,-57.99954123659866 L71.40180062621121,-57.77084051701646 L70.95150252942031,-57.5435700021859 L70.49646228655844,-57.31774488205984 L70.03671031089699,-57.0933802499861 L69.57227733062274,-56.87049110169865 L69.10319438678424,-56.64909233431543 L68.62949283121706,-56.429198745342575 L68.1512043244483,-56.21082503168547 L67.66836083358086,-55.993985788666535 " />
			<path d="M78.72246594387883,-64.07452483149731 L74.82992406175407,-61.44129255141696 " />
			<path d="M80.72041028723491,-63.624000752541 L78.7224659438788,-64.0745248314973 " />
			<path d="M85.22235713646249,-67.86893822564022 L84.98296913249163,-67.59720127770471 L84.73790116912876,-67.32623777551768 L84.4871696258449,-67.05606582931587 L84.23079126064461,-66.78670349643123 L83.96878320894594,-66.51816878008403 L83.70116298243514,-66.25047962817956 L83.4279484678963,-65.98365393210867 L83.14915792601583,-65.71770952555184 L82.86480999016194,-65.45266418328728 L82.57492366513931,-65.18853562000297 L82.27951832591883,-64.92534148911264 L81.9786137163427,-64.66309938157589 L81.67222994780478,-64.40182682472243 L81.3603874979064,-64.14154128108068 L81.04310720908776,-63.88226014721061 L80.7204102872351,-63.62400075254115 " />
			<path d="M86.043079820362,-72.54661857697734 L85.22235713646248,-71.3503209714721 " />
			<path d="M88.27149717659948,-72.313410153155 L86.04307982036198,-72.54661857697734 " />
			<path d="M89.80702740892508,-76.86878917872716 L89.75586979910376,-76.58211264092796 L89.69871322618599,-76.29560902935899 L89.63556151031378,-76.0092974929026 L89.56641887232323,-75.72319716760356 L89.49128993346231,-75.43732717539001 L89.41017971508211,-75.15170662279547 L89.32309363830112,-74.8663545996818 L89.23003752364295,-74.58129017796325 L89.13101759064735,-74.2965324103319 L89.02604045745446,-74.0121003289841 L88.91511314036244,-73.72801294434854 L88.79824305335865,-73.4442892438155 L88.67543800762402,-73.16094819046805 L88.54670621101103,-72.8780087218144 L88.41205626749507,-72.5954897485223 L88.27149717659957,-72.3134101531552 " />
			<path d="M89.80702740892508,-81.47004509978451 L87.5,-81.47004509978451 " />
			<path d="M-87.5,-81.47004509978451 L-89.80702740892508,-81.47004509978451 " />
			<path d="M-88.27149717659947,-72.313410153155 L-88.41205626749506,-72.59548974852225 L-88.54670621101101,-72.87800872181435 L-88.67543800762401,-73.160948190468 L-88.79824305335863,-73.44428924381543 L-88.91511314036241,-73.72801294434845 L-89.02604045745441,-74.01210032898403 L-89.13101759064733,-74.29653241033184 L-89.23003752364293,-74.58129017796321 L-89.3230936383011,-74.86635459968178 L-89.4101797150821,-75.15170662279546 L-89.49128993346231,-75.43732717539 L-89.56641887232323,-75.72319716760353 L-89.63556151031378,-76.00929749290256 L-89.69871322618599,-76.29560902935894 L-89.75586979910376,-76.58211264092792 L-89.80702740892502,-76.8687891787268 " />
			<path d="M-86.04307982036198,-72.54661857697731 L-88.27149717659947,-72.31341015315499 " />
			<path d="M-85.22235713646245,-71.35032097147206 L-86.043079820362,-72.54661857697732 " />
			<path d="M-80.7204102872349,-63.624000752540994 L-81.04310720908778,-63.88226014721062 L-81.3603874979064,-64.14154128108069 L-81.67222994780477,-64.40182682472242 L-81.97861371634268,-64.66309938157588 L-82.2795183259188,-64.92534148911263 L-82.57492366513928,-65.18853562000294 L-82.8648099901619,-65.45266418328724 L-83.14915792601579,-65.7177095255518 L-83.42794846789624,-65.98365393210862 L-83.70116298243506,-66.2504796281795 L-83.96878320894587,-66.51816878008395 L-84.23079126064457,-66.78670349643119 L-84.48716962584488,-67.05606582931586 L-84.73790116912875,-67.32623777551765 L-84.9829691324916,-67.59720127770467 L-85.2223571364622,-67.86893822563988 " />
			<path d="M-78.72246594387883,-64.07452483149731 L-80.72041028723493,-63.62400075254101 " />
			<path d="M-74.82992406175406,-61.441292551416936 L-78.72246594387883,-64.07452483149731 " />
			<path d="M-67.66836083358052,-55.993985788666386 L-68.15120432444827,-56.21082503168546 L-68.62949283121704,-56.42919874534256 L-69.10319438678422,-56.64909233431541 L-69.5722773306227,-56.870491101698626 L-70.03671031089692,-57.093380249986055 L-70.49646228655838,-57.317744882059806 L-70.95150252942024,-57.54357000218587 L-71.40180062621114,-57.77084051701643 L-71.84732648060792,-57.999541236598624 L-72.28805031524708,-58.22965687538979 L-72.72394267371507,-58.4611720532791 L-73.15497442251703,-58.69407129661551 L-73.58111675302393,-58.92833903924196 L-74.00234118339812,-59.16395962353579 L-74.41861956049684,-59.40091730145516 L-74.82992406175359,-59.63919623559147 " />
			<path d="M-66.03704610834639,-56.63112305130203 L-67.66836083358054,-55.99398578866638 " />
			<path d="M-59.337955324533596,-54.01468105018326 L-66.03704610834637,-56.63112305130204 " />
			<path d="M-50.004824416371285,-49.94333817212329 L-50.614909490287886,-50.103980027423844 L-51.22161164367963,-50.26656451316188 L-51.82489032673256,-50.43108076276869 L-52.42470521844522,-50.59751778056326 L-53.02101622932364,-50.76586444248731 L-53.61378350406082,-50.936109496848744 L-54.20296742420043,-51.10824156507364 L-54.78852861078485,-51.282249142466796 L-55.37042792698708,-51.45812059898063 L-55.94862648072649,-51.63584417999254 L-56.52308562726827,-51.815408007090475 L-57.09376697180629,-51.99680007886691 L-57.660632372029276,-52.18000827172095 L-58.223643940670065,-52.365020340668586 L-58.78276404803791,-52.5518239201612 L-59.33795532453297,-52.74040652491175 " />
			<path d="M-48.85131071190875,-50.72366876690877 L-50.004824416371285,-49.94333817212328 " />
			<path d="M-39.80220299255381,-48.683151004641914 L-48.851310711908745,-50.72366876690877 " />
			<path d="M-28.933541852065765,-45.88439953881113 L-29.62929221945703,-45.97789652942765 L-30.32306227034083,-46.07361192322715 L-31.014805635594612,-46.17153932293315 L-31.704476081552208,-46.27167218342656 L-32.39202751309402,-46.37400381218313 L-33.07741397672782,-46.47852736972077 L-33.76058966366013,-46.585235870056664 L-34.441508912858026,-46.694122181174194 L-35.12012621410068,-46.80517902549959 L-35.79639621102129,-46.918398980388375 L-36.47027370413867,-47.033774478621474 L-37.141713653878014,-47.151297808910954 L-37.81067118358123,-47.27096111641541 L-38.477101582506364,-47.392756403265 L-39.140960308815885,-47.51667552909592 L-39.802202992553084,-47.642710211594455 " />
			<path d="M-28.336439221062502,-46.75474522526911 L-28.93354185206583,-45.88439953881114 " />
			<path d="M-17.553996302881878,-45.626340570340055 L-28.336439221062502,-46.75474522526912 " />
			<path d="M-5.890486225480696,-44.09377984887694 L-6.624487648590689,-44.11376030941 L-7.358046314508025,-44.13608376536068 L-8.09111319478057,-44.1607487247086 L-8.823639293825478,-44.187753538935596 L-9.555575652203636,-44.21709640313594 L-10.286873349892096,-44.248775356136946 L-11.01748350955388,-44.28278828063008 L-11.747357299804534,-44.319132903312436 L-12.476445938475907,-44.35780679503871 L-13.204700695876587,-44.398807370983526 L-13.93207289804883,-44.44213189081423 L-14.658513930021732,-44.487777458874 L-15.383975239060499,-44.53574102437542 L-16.108408337911538,-44.586019381604366 L-16.831764808043157,-44.63860917013428 L-17.553996302881007,-44.69350687505068 " />
			<path d="M5.8904862254808865,-44.994828006789554 L-5.890486225480844,-44.994828006789554 " />
			<path d="M17.553996302881902,-44.69350687505075 L16.83176480804335,-44.638609170134295 L16.108408337911726,-44.58601938160439 L15.383975239060687,-44.53574102437543 L14.658513930021922,-44.48777745887401 L13.93207289804902,-44.44213189081424 L13.204700695876777,-44.39880737098354 L12.476445938476097,-44.35780679503872 L11.747357299804724,-44.31913290331244 L11.017483509554074,-44.282788280630086 L10.286873349892286,-44.24877535613695 L9.555575652203826,-44.21709640313595 L8.823639293825751,-44.18775353893561 L8.091113194780924,-44.16074872470861 L7.358046314508377,-44.13608376536069 L6.6244876485910416,-44.113760309410004 L5.890486225481765,-44.09377984887697 " />
			<path d="M28.336439221062562,-46.75474522526911 L17.553996302881927,-45.62634057034005 " />
			<path d="M28.933541852065872,-45.88439953881114 L28.336439221062548,-46.754745225269104 " />
			<path d="M39.80220299255376,-47.64271021159459 L39.14096030881591,-47.51667552909593 L38.47710158250639,-47.392756403265 L37.810671183581256,-47.27096111641542 L37.14171365387797,-47.15129780891095 L36.470273704138556,-47.03377447862146 L35.79639621102117,-46.91839898038836 L35.120126214100566,-46.80517902549957 L34.441508912857984,-46.69412218117419 L33.76058966366016,-46.58523587005667 L33.07741397672785,-46.47852736972078 L32.39202751309405,-46.37400381218314 L31.70447608155224,-46.27167218342657 L31.014805635594644,-46.17153932293316 L30.323062270340866,-46.073611923227155 L29.629292219457067,-45.97789652942765 L28.933541852066554,-45.88439953881124 " />
			<path d="M48.85131071190879,-50.72366876690878 L39.802202992553845,-48.683151004641914 " />
			<path d="M50.00482441637132,-49.9433381721233 L48.85131071190878,-50.72366876690879 " />
			<path d="M-2.9698484809835004,-81.69179159229722 L-2.8585241907409036,-81.64988399274266 L-2.743325940405864,-81.60960515244138 L-2.624409850198023,-81.57100965851927 L-2.5019370788682194,-81.53414981677935 L-2.376073605291174,-81.49907558081527 L-2.246990003525809,-81.46583448431272 L-2.114861211648016,-81.4344715766303 L-1.9798662946691912,-81.40502936174718 L-1.842188201861816,-81.37754774066049 L-1.7020135188209562,-81.35206395731021 L-1.559532214597715,-81.32861254810501 L-1.4149373842473238,-81.3072252951175 L-1.2684249871407598,-81.28793118301218 L-1.1201935813945738,-81.27075635976445 L-0.970444054778818,-81.25572410122416 L-0.8193793524677367,-81.24285477957146 L-0.6672042020022148,-81.2321658357077 L-0.5141248358367071,-81.22367175561908 L-0.36034871184664896,-81.21738405074476 L-0.20608423217515573,-81.21331124237618 L-0.05154046080002242,-81.2114588501088 L0.10307315979623423,-81.21182938436169 L0.25754709246928,-81.21442234297542 L0.41167198938415606,-81.21923421189257 L0.5652389757299291,-81.22625846992004 L0.7180399327932656,-81.23548559756685 L0.8698677800073198,-81.2469030899452 L1.0205167555937114,-81.26049547371751 L1.1697826954172272,-81.27624432806633 L1.3174633096753463,-81.29412830965877 L1.463358457047625,-81.31412318157179 L1.6072704159333782,-81.33620184613864 L1.7490041524100783,-81.36033438167256 L1.8883675845493477,-81.38648808301754 L2.0251718427323135,-81.4146275058714 L2.1592315256115304,-81.44471451482092 L2.290364951372595,-81.4767083350242 L2.4183944039549514,-81.51056560746993 L2.54314637389817,-81.54624044773892 L2.6644517934873115,-81.58368450818801 L2.7821462658787204,-81.62284704347232 L2.896070287895681,-81.66367497931694 L3.0060694661920393,-81.70611298444474 L3.11199472649083,-81.75010354556309 L3.2137025156143295,-81.79558704530766 L3.3110549960317472,-81.8425018430376 L3.4039202326608975,-81.89078435837297 L3.4921723716706903,-81.94036915736079 L3.5756918110421143,-81.99118904115308 L3.6543653626565877,-82.04317513707687 L3.728086405691985,-82.09625699197262 L3.7967550311184612,-82.1503626676744 L3.8602781770982424,-82.20541883850278 L3.9185697551059038,-82.26135089063806 L3.9715507665981904,-82.31808302323914 L4.019149410075277,-82.37553835117126 L4.061301178388378,-82.43363900920306 L4.09794894616182,-82.49230625753192 L4.129043047211108,-82.55146058849458 L4.15454134185208,-82.61102183431836 L4.1744092740098955,-82.6709092757671 L4.188619918050499,-82.73104175153418 L4.197154015271067,-82.79133776823497 L4.2,-82.8517156108491 " />
			<path d="M4.2,-82.85171561084911 L4.198735038524058,-82.89197255812478 L4.194940916061724,-82.93220525612072 L4.188619918050499,-82.97238947016405 L4.179775852023227,-83.0125009947868 L4.168414045314582,-83.05251566830644 L4.15454134185208,-83.09240938737986 L4.138166098033554,-83.13215812152241 L4.119298177693568,-83.17173792758295 L4.097948946161821,-83.2111249641663 L4.074131263417085,-83.2502955059944 L4.0478594763408475,-83.28922595819752 L4.019149410075277,-83.32789287052697 L3.9880183584907543,-83.36627295148058 L3.9544850737686876,-83.40434308233276 L3.8802940365474043,-83.4794619661553 L3.796755031118462,-83.55306855402382 L3.7040693102630913,-83.62498552122098 L3.602460162001143,-83.6950396134736 L3.4921723716706903,-83.76306206433743 L3.373471632218709,-83.8288890017703 L3.2466439041234953,-83.89236184291416 L3.1119947264908285,-83.95332767613513 L2.9698484809835,-84.011639629401 L2.820547610357477,-84.06715722410884 L2.664451793487311,-84.11974671351021 L2.5019370788682207,-84.16928140491888 L2.3333949786823296,-84.2156419649245 L2.159231525611531,-84.25871670687731 L1.979866294669191,-84.29840185995104 L1.7957313924071854,-84.33460181913594 L1.6072704159333775,-84.36722937555959 L1.4149373842473243,-84.39620592658072 L1.2191956444687417,-84.42146166514988 L1.0205167555937087,-84.44293574798071 L0.8193793524677391,-84.46057644212677 L0.6162679927125194,-84.47434124961072 L0.4116719893841553,-84.48419700980565 L0.20608423217515615,-84.49011997932205 L2.571758278209442e-16,-84.49209588920749 L-0.20608423217515565,-84.49011997932205 L-0.4116719893841547,-84.48419700980565 L-0.6162679927125189,-84.47434124961072 L-0.8193793524677384,-84.46057644212677 L-1.0205167555937082,-84.44293574798071 L-1.219195644468741,-84.42146166514988 L-1.4149373842473238,-84.39620592658072 L-1.6072704159333768,-84.36722937555959 L-1.7957313924071856,-84.33460181913594 L-1.9798662946691905,-84.29840185995104 L-2.159231525611531,-84.25871670687731 L-2.3333949786823283,-84.2156419649245 L-2.5019370788682185,-84.16928140491888 L-2.6644517934873106,-84.11974671351021 L-2.8205476103574774,-84.06715722410884 L-2.9698484809834995,-84.011639629401 L-3.1119947264908276,-83.95332767613513 L-3.2466439041234953,-83.89236184291416 L-3.3734716322187093,-83.8288890017703 L-3.4921723716706907,-83.76306206433743 L-3.6024601620011425,-83.6950396134736 L-3.704069310263091,-83.62498552122098 L-3.7967550311184612,-83.55306855402382 L-3.8802940365474043,-83.4794619661553 L-3.9544850737686876,-83.40434308233276 L-3.9880183584907543,-83.36627295148058 L-4.019149410075277,-83.32789287052697 L-4.0478594763408475,-83.28922595819752 L-4.074131263417085,-83.2502955059944 L-4.09794894616182,-83.2111249641663 L-4.119298177693568,-83.17173792758295 L-4.138166098033554,-83.13215812152241 L-4.15454134185208,-83.09240938737986 L-4.168414045314582,-83.05251566830644 L-4.179775852023226,-83.0125009947868 L-4.188619918050499,-82.97238947016405 L-4.194940916061724,-82.93220525612072 L-4.198735038524058,-82.89197255812478 L-4.2,-82.85171561084913 " />
			<path d="M-4.2,-82.85171561084911 L-4.198735038524058,-82.81145866357345 L-4.194940916061724,-82.7712259655775 L-4.188619918050499,-82.73104175153418 L-4.179775852023227,-82.69093022691142 L-4.168414045314582,-82.65091555339178 L-4.15454134185208,-82.61102183431836 L-4.138166098033554,-82.57127310017582 L-4.119298177693568,-82.53169329411527 L-4.097948946161821,-82.49230625753192 L-4.074131263417085,-82.45313571570382 L-4.0478594763408475,-82.4142052635007 L-4.019149410075277,-82.37553835117126 L-3.9880183584907547,-82.33715827021764 L-3.954485073768688,-82.29908813936547 L-3.880294036547405,-82.22396925554293 L-3.7967550311184617,-82.1503626676744 L-3.7040693102630913,-82.07844570047725 L-3.602460162001143,-82.00839160822463 L-3.492172371670691,-81.94036915736079 L-3.37347163221871,-81.87454221992792 L-3.246643904123496,-81.81106937878407 L-3.1119947264908285,-81.75010354556309 L-2.9698484809835133,-81.69179159229724 " />
			<path d="M50.00482441637132,-53.62563664371658 L50.00482441637132,-49.94333817212329 " />
			<path d="M59.33795532453366,-56.42270499650528 L58.78276404803806,-56.23412239175454 L58.2236439406702,-56.047318812261935 L57.660632372029426,-55.86230674331429 L57.09376697180638,-55.67909855046024 L56.523085627268294,-55.49770647868378 L55.94862648072652,-55.318142651585845 L55.370427926987105,-55.14041907057394 L54.78852861078488,-54.9645476140601 L54.20296742420046,-54.790540036666954 L53.61378350406084,-54.61840796844206 L53.02101622932368,-54.448162914080626 L52.424705218445176,-54.27981625215654 L51.82489032673245,-54.11337923436195 L51.22161164367952,-53.94886298475515 L50.61490949028778,-53.786278499017115 L50.00482441637192,-53.62563664371675 " />
			<path d="M59.33795532453361,-56.42270499650526 L59.33795532453361,-52.74040652491197 " />
			<path d="M57.70664059929947,-57.059842259140915 L59.33795532453362,-56.42270499650527 " />
			<path d="M66.03704610834639,-56.63112305130203 L66.03704610834639,-60.313421522895325 " />
			<path d="M66.0370461083464,-60.31342152289534 L57.706640599299476,-57.05984225914091 " />
			<path d="M67.66836083358054,-59.676284260259685 L67.66836083358054,-55.99398578866639 " />
			<path d="M67.66836083358055,-59.67628426025969 L66.03704610834639,-60.31342152289534 " />
			<path d="M74.82992406175408,-63.32149470718507 L74.41861956049695,-63.08321577304852 L74.00234118339823,-62.846258095129144 L73.58111675302403,-62.610637510835325 L73.15497442251711,-62.37636976820886 L72.72394267371513,-62.143470524872434 L72.28805031524715,-61.91195534698312 L71.84732648060798,-61.68183970819196 L71.40180062621121,-61.45313898860976 L70.95150252942031,-61.2258684737792 L70.49646228655844,-61.00004335365314 L70.03671031089699,-60.775678721579396 L69.57227733062274,-60.552789573291946 L69.10319438678424,-60.331390805908725 L68.62949283121706,-60.111497216935874 L68.1512043244483,-59.893123503278765 L67.66836083358086,-59.676284260259834 " />
			<path d="M74.82992406175407,-63.321494707185046 L74.82992406175407,-59.639196235591754 " />
			<path d="M72.83197971839797,-63.77201878614136 L74.82992406175407,-63.32149470718505 " />
			<path d="M78.7224659438788,-64.0745248314973 L78.7224659438788,-67.7568233030906 " />
			<path d="M78.72246594387883,-67.75682330309061 L72.83197971839796,-63.77201878614135 " />
			<path d="M80.72041028723493,-67.3062992241343 L80.72041028723493,-63.62400075254101 " />
			<path d="M80.72041028723491,-67.3062992241343 L78.7224659438788,-67.7568233030906 " />
			<path d="M85.22235713646249,-71.55123669723352 L84.98296913249163,-71.27949974929801 L84.73790116912876,-71.00853624711098 L84.4871696258449,-70.73836430090917 L84.23079126064461,-70.46900196802453 L83.96878320894594,-70.20046725167732 L83.70116298243514,-69.93277809977286 L83.4279484678963,-69.66595240370197 L83.14915792601583,-69.40000799714514 L82.86480999016194,-69.13496265488058 L82.57492366513931,-68.87083409159627 L82.27951832591883,-68.60763996070594 L81.9786137163427,-68.34539785316919 L81.67222994780478,-68.08412529631573 L81.3603874979064,-67.82383975267398 L81.04310720908776,-67.56455861880391 L80.7204102872351,-67.30629922413445 " />
			<path d="M85.22235713646248,-71.5512366972335 L85.22235713646248,-67.8689382256402 " />
			<path d="M82.99393978022498,-71.78444512105582 L85.22235713646248,-71.55123669723349 " />
			<path d="M86.04307982036198,-72.54661857697734 L86.04307982036198,-76.22891704857062 " />
			<path d="M86.043079820362,-76.22891704857064 L82.99393978022499,-71.78444512105581 " />
			<path d="M88.27149717659948,-75.9957086247483 L88.27149717659948,-72.313410153155 " />
			<path d="M88.27149717659948,-75.9957086247483 L86.04307982036198,-76.22891704857064 " />
			<path d="M89.80702740892508,-80.55108765032045 L89.75586979910376,-80.26441111252126 L89.69871322618599,-79.97790750095228 L89.63556151031378,-79.6915959644959 L89.56641887232323,-79.40549563919686 L89.49128993346231,-79.11962564698331 L89.41017971508211,-78.83400509438877 L89.32309363830112,-78.5486530712751 L89.23003752364295,-78.26358864955655 L89.13101759064735,-77.9788308819252 L89.02604045745446,-77.6943988005774 L88.91511314036244,-77.41031141594183 L88.79824305335865,-77.1265877154088 L88.67543800762402,-76.84324666206135 L88.54670621101103,-76.5603071934077 L88.41205626749507,-76.2777882201156 L88.27149717659957,-75.9957086247485 " />
			<path d="M89.8070274089251,-80.55108765032043 L89.8070274089251,-76.86878917872713 " />
			<path d="M87.50000000000001,-80.55108765032043 L89.80702740892508,-80.55108765032043 " />
			<path d="M87.50000000000003,-85.15234357137781 L87.50000000000003,-80.55108765032043 " />
			<path d="M89.80702740892511,-85.15234357137781 L89.80702740892511,-81.47004509978451 " />
			<path d="M89.80702740892508,-85.15234357137781 L87.5,-85.15234357137781 " />
			<path d="M88.27149717659945,-89.70772259694995 L88.41205626749505,-89.4256430015827 L88.546706211011,-89.1431240282906 L88.675438007624,-88.86018455963695 L88.79824305335862,-88.57684350628949 L88.91511314036242,-88.29311980575646 L89.02604045745441,-88.00903242112088 L89.13101759064733,-87.72460033977309 L89.23003752364292,-87.43984257214174 L89.32309363830109,-87.1547781504232 L89.4101797150821,-86.86942612730951 L89.4912899334623,-86.58380557471496 L89.56641887232321,-86.29793558250142 L89.63556151031378,-86.01183525720239 L89.69871322618599,-85.72552372074601 L89.75586979910375,-85.43902010917704 L89.80702740892504,-85.15234357137798 " />
			<path d="M86.04307982036198,-89.47451417312762 L88.27149717659948,-89.70772259694994 " />
			<path d="M82.99393978022496,-93.91898610064243 L86.04307982036198,-89.4745141731276 " />
			<path d="M85.22235713646245,-94.15219452446476 L85.22235713646245,-90.67081177863287 " />
			<path d="M85.22235713646245,-94.15219452446476 L82.99393978022499,-93.91898610064244 " />
			<path d="M80.72041028723491,-98.39713199756393 L81.04310720908775,-98.13887260289432 L81.36038749790636,-97.87959146902426 L81.67222994780474,-97.61930592538253 L81.97861371634266,-97.35803336852906 L82.27951832591881,-97.0957912609923 L82.57492366513928,-96.83259713010197 L82.8648099901619,-96.56846856681767 L83.14915792601579,-96.30342322455313 L83.42794846789626,-96.03747881799629 L83.7011629824351,-95.77065312192539 L83.9687832089459,-95.50296397002094 L84.23079126064457,-95.23442925367374 L84.48716962584487,-94.9650669207891 L84.73790116912872,-94.6948949745873 L84.98296913249158,-94.42393147240028 L85.22235713646232,-94.1521945244649 " />
			<path d="M78.72246594387883,-97.94660791860763 L80.72041028723493,-98.39713199756393 " />
			<path d="M72.83197971839797,-101.93141243555688 L78.72246594387884,-97.94660791860763 " />
			<path d="M74.82992406175406,-102.38193651451317 L74.82992406175406,-100.57984019868799 " />
			<path d="M74.82992406175407,-102.38193651451319 L72.83197971839797,-101.9314124355569 " />
			<path d="M67.66836083358055,-106.02714696143852 L68.15120432444829,-105.81030771841947 L68.62949283121705,-105.59193400476236 L69.10319438678422,-105.37204041578951 L69.5722773306227,-105.15064164840629 L70.03671031089692,-104.92775250011886 L70.49646228655838,-104.70338786804511 L70.95150252942024,-104.47756274791905 L71.40180062621117,-104.25029223308849 L71.84732648060798,-104.02159151350628 L72.28805031524713,-103.7914758747151 L72.72394267371511,-103.5599606968258 L73.15497442251707,-103.32706145348939 L73.58111675302398,-103.09279371086294 L74.00234118339816,-102.85717312656911 L74.41861956049688,-102.62021544864973 L74.82992406175384,-102.38193651451331 " />
			<path d="M66.03704610834637,-105.3900096988029 L67.66836083358052,-106.02714696143855 " />
			<path d="M57.70664059929943,-108.64358896255732 L66.03704610834637,-105.39000969880288 " />
			<path d="M59.33795532453359,-109.28072622519296 L59.33795532453359,-108.00645169992167 " />
			<path d="M59.33795532453358,-109.28072622519296 L57.70664059929943,-108.64358896255732 " />
			<path d="M50.004824416371235,-112.07779457798165 L50.61490949028776,-111.91715272268112 L51.221611643679545,-111.75456823694307 L51.8248903267325,-111.59005198733625 L52.424705218445155,-111.42361496954169 L53.021016229323585,-111.25526830761763 L53.61378350406076,-111.0850232532562 L54.20296742420038,-110.9128911850313 L54.78852861078483,-110.73888360763814 L55.370427926987084,-110.5630121511243 L55.948626480726496,-110.38528857011238 L56.52308562726827,-110.20572474301444 L57.0937669718063,-110.024332671238 L57.66063237202928,-109.84112447838397 L58.2236439406701,-109.65611240943633 L58.782764048037976,-109.46930882994371 L59.33795532453328,-109.28072622519308 " />
			<path d="M48.85131071190872,-111.29746398319615 L50.00482441637125,-112.07779457798165 " />
			<path d="M38.64868928809125,-113.59809194372485 L48.85131071190873,-111.29746398319617 " />
			<path d="M39.80220299255379,-114.37842253851034 L39.80220299255379,-113.33798174546303 " />
			<path d="M39.802202992553774,-114.37842253851034 L38.64868928809125,-113.59809194372485 " />
			<path d="M28.933541852065854,-116.13673321129379 L29.62929221945705,-116.04323622067727 L30.32306227034086,-115.94752082687776 L31.01480563559466,-115.84959342717177 L31.704476081552258,-115.74946056667835 L32.392027513094085,-115.64712893792179 L33.0774139767279,-115.54260538038415 L33.76058966366021,-115.43589688004825 L34.441508912858055,-115.32701056893073 L35.12012621410065,-115.21595372460534 L35.79639621102126,-115.10273376971655 L36.47027370413866,-114.98735827148346 L37.14171365387802,-114.86983494119397 L37.810671183581235,-114.75017163368952 L38.47710158250637,-114.62837634683993 L39.1409603088159,-114.504457221009 L39.80220299255342,-114.3784225385104 " />
			<path d="M28.336439221062548,-115.26638752483582 L28.933541852065872,-116.13673321129379 " />
			<path d="M16.95689367187859,-116.45728018859621 L28.33643922106255,-115.26638752483582 " />
			<path d="M17.55399630288192,-117.32762587505418 L17.55399630288192,-116.39479217976489 " />
			<path d="M17.55399630288192,-117.32762587505418 L16.95689367187859,-116.45728018859621 " />
			<path d="M5.890486225480865,-117.92735290122798 L6.62448764859086,-117.90737244069493 L7.358046314508216,-117.88504898474423 L8.09111319478078,-117.86038402539631 L8.82363929382561,-117.83337921116933 L9.555575652203686,-117.80403634696899 L10.286873349892165,-117.77235739396798 L11.017483509553971,-117.73834446947484 L11.747357299804625,-117.70199984679249 L12.476445938475997,-117.66332595506621 L13.204700695876697,-117.62232537912139 L13.932072898048956,-117.57900085929069 L14.658513930021858,-117.53335529123092 L15.383975239060629,-117.4853917257295 L16.108408337911683,-117.43511336850054 L16.831764808043328,-117.38252357997064 L17.553996302881682,-117.3276258750542 " />
			<path d="M5.890486225480855,-117.02630474331538 L5.890486225480855,-117.92735290122798 " />
			<path d="M-5.890486225480881,-117.02630474331538 L5.890486225480844,-117.02630474331538 " />
			<path d="M-5.890486225480876,-117.92735290122799 L-5.890486225480875,-117.02630474331538 " />
			<path d="M-17.55399630288197,-117.32762587505417 L-16.831764808043395,-117.38252357997062 L-16.108408337911754,-117.43511336850054 L-15.383975239060717,-117.4853917257295 L-14.658513930021929,-117.53335529123092 L-13.932072898049007,-117.57900085929069 L-13.204700695876767,-117.62232537912138 L-12.476445938476067,-117.6633259550662 L-11.747357299804674,-117.70199984679249 L-11.017483509554001,-117.73834446947484 L-10.286873349892197,-117.77235739396798 L-9.555575652203737,-117.80403634696899 L-8.82363929382564,-117.83337921116933 L-8.091113194780792,-117.86038402539631 L-7.358046314508246,-117.88504898474423 L-6.6244876485908915,-117.90737244069493 L-5.890486225481077,-117.92735290122798 " />
			<path d="M-17.553996302881956,-117.32762587505417 L-17.553996302881956,-116.39479217976488 " />
			<path d="M-16.95689367187862,-116.4572801885962 L-17.553996302881952,-117.32762587505417 " />
			<path d="M-28.336439221062584,-115.2663875248358 L-16.95689367187863,-116.4572801885962 " />
			<path d="M-28.933541852065886,-116.13673321129377 L-28.336439221062555,-115.2663875248358 " />
			<path d="M-39.8022029925538,-114.37842253851034 L-39.14096030881594,-114.50445722100899 L-38.47710158250642,-114.62837634683993 L-37.81067118358127,-114.7501716336895 L-37.14171365387803,-114.86983494119397 L-36.47027370413869,-114.98735827148344 L-35.79639621102129,-115.10273376971655 L-35.120126214100665,-115.21595372460534 L-34.44150891285808,-115.32701056893072 L-33.76058966366026,-115.43589688004823 L-33.07741397672793,-115.54260538038413 L-32.39202751309411,-115.64712893792178 L-31.704476081552308,-115.74946056667835 L-31.01480563559471,-115.84959342717175 L-30.32306227034091,-115.94752082687776 L-29.629292219457092,-116.04323622067727 L-28.93354185206609,-116.13673321129374 " />
			<path d="M-39.80220299255381,-114.37842253851034 L-39.80220299255381,-113.33798174546303 " />
			<path d="M-38.648689288091276,-113.59809194372484 L-39.802202992553816,-114.37842253851034 " />
			<path d="M-48.851310711908766,-111.29746398319617 L-38.64868928809129,-113.59809194372485 " />
			<path d="M-50.00482441637128,-112.07779457798165 L-48.85131071190874,-111.29746398319617 " />
			<path d="M-59.33795532453359,-109.28072622519296 L-58.78276404803797,-109.46930882994371 L-58.223643940670115,-109.65611240943632 L-57.660632372029326,-109.84112447838396 L-57.09376697180633,-110.024332671238 L-56.523085627268294,-110.20572474301444 L-55.9486264807265,-110.38528857011238 L-55.37042792698708,-110.5630121511243 L-54.78852861078485,-110.73888360763813 L-54.20296742420042,-110.91289118503128 L-53.61378350406079,-111.08502325325618 L-53.02101622932361,-111.25526830761763 L-52.42470521844517,-111.42361496954169 L-51.82489032673249,-111.59005198733627 L-51.22161164367956,-111.75456823694306 L-50.61490949028781,-111.91715272268111 L-50.004824416371335,-112.07779457798162 " />
			<path d="M-59.3379553245336,-109.28072622519296 L-59.3379553245336,-108.00645169992167 " />
			<path d="M-57.70664059929945,-108.64358896255732 L-59.3379553245336,-109.28072622519296 " />
			<path d="M-66.03704610834637,-105.39000969880288 L-57.70664059929945,-108.64358896255732 " />
			<path d="M-67.66836083358054,-106.02714696143853 L-66.03704610834637,-105.39000969880288 " />
			<path d="M-74.82992406175404,-102.38193651451319 L-74.4186195604969,-102.62021544864973 L-74.00234118339817,-102.85717312656911 L-73.58111675302398,-103.09279371086294 L-73.15497442251707,-103.32706145348939 L-72.7239426737151,-103.55996069682581 L-72.2880503152471,-103.79147587471513 L-71.84732648060793,-104.0215915135063 L-71.40180062621116,-104.25029223308849 L-70.95150252942024,-104.47756274791905 L-70.49646228655838,-104.70338786804513 L-70.03671031089691,-104.92775250011887 L-69.57227733062268,-105.1506416484063 L-69.1031943867842,-105.37204041578953 L-68.629492831217,-105.59193400476238 L-68.15120432444824,-105.8103077184195 L-67.66836083358059,-106.0271469614385 " />
			<path d="M-74.82992406175406,-102.38193651451317 L-74.82992406175406,-100.57984019868798 " />
			<path d="M-72.83197971839795,-101.93141243555688 L-74.82992406175406,-102.38193651451319 " />
			<path d="M-78.72246594387883,-97.94660791860761 L-72.83197971839796,-101.93141243555687 " />
			<path d="M-80.72041028723493,-98.39713199756392 L-78.7224659438788,-97.94660791860763 " />
			<path d="M-85.22235713646246,-94.15219452446475 L-84.9829691324916,-94.42393147240026 L-84.73790116912875,-94.69489497458727 L-84.48716962584487,-94.96506692078908 L-84.23079126064458,-95.23442925367372 L-83.9687832089459,-95.50296397002093 L-83.70116298243511,-95.77065312192538 L-83.42794846789627,-96.03747881799627 L-83.1491579260158,-96.30342322455311 L-82.86480999016192,-96.56846856681767 L-82.57492366513928,-96.83259713010197 L-82.27951832591881,-97.0957912609923 L-81.9786137163427,-97.35803336852905 L-81.67222994780475,-97.6193059253825 L-81.36038749790639,-97.87959146902425 L-81.04310720908776,-98.13887260289431 L-80.72041028723493,-98.3971319975639 " />
			<path d="M-85.22235713646246,-94.15219452446475 L-85.22235713646246,-90.67081177863288 " />
			<path d="M-82.99393978022499,-93.91898610064243 L-85.22235713646248,-94.15219452446475 " />
			<path d="M-86.04307982036201,-89.4745141731276 L-82.993939780225,-93.91898610064243 " />
			<path d="M-88.2714971765995,-89.70772259694994 L-86.04307982036201,-89.47451417312762 " />
			<path d="M-89.80702740892508,-85.15234357137781 L-89.75586979910376,-85.43902010917701 L-89.69871322618599,-85.72552372074598 L-89.63556151031378,-86.01183525720236 L-89.56641887232321,-86.29793558250141 L-89.4912899334623,-86.58380557471494 L-89.4101797150821,-86.86942612730948 L-89.32309363830109,-87.15477815042317 L-89.23003752364293,-87.43984257214171 L-89.13101759064733,-87.72460033977308 L-89.02604045745443,-88.00903242112088 L-88.91511314036242,-88.29311980575646 L-88.79824305335863,-88.57684350628948 L-88.67543800762401,-88.86018455963692 L-88.54670621101101,-89.14312402829057 L-88.41205626749506,-89.42564300158269 L-88.27149717659947,-89.70772259694994 " />
			<path d="M-89.80702740892508,-85.1523435713778 L-89.80702740892508,-81.4700450997845 " />
			<path d="M-87.5,-85.15234357137781 L-89.80702740892508,-85.15234357137781 " />
			<path d="M-87.5,-80.55108765032043 L-87.5,-85.1523435713778 " />
			<path d="M-89.80702740892508,-80.55108765032043 L-89.80702740892508,-76.86878917872713 " />
			<path d="M-89.80702740892508,-80.55108765032043 L-87.5,-80.55108765032043 " />
			<path d="M-88.27149717659947,-75.9957086247483 L-88.41205626749506,-76.27778822011555 L-88.54670621101101,-76.56030719340765 L-88.67543800762401,-76.8432466620613 L-88.79824305335863,-77.12658771540873 L-88.91511314036241,-77.41031141594175 L-89.02604045745441,-77.69439880057733 L-89.13101759064733,-77.97883088192513 L-89.23003752364293,-78.26358864955651 L-89.3230936383011,-78.54865307127508 L-89.4101797150821,-78.83400509438876 L-89.49128993346231,-79.1196256469833 L-89.56641887232323,-79.40549563919683 L-89.63556151031378,-79.69159596449586 L-89.69871322618599,-79.97790750095224 L-89.75586979910376,-80.26441111252122 L-89.80702740892502,-80.5510876503201 " />
			<path d="M-88.27149717659947,-75.99570862474829 L-88.27149717659947,-72.31341015315499 " />
			<path d="M-86.04307982036198,-72.54661857697732 L-86.04307982036198,-76.22891704857061 " />
			<path d="M-86.04307982036198,-76.22891704857061 L-88.27149717659947,-75.99570862474829 " />
			<path d="M-82.99393978022496,-71.7844451210558 L-86.043079820362,-76.22891704857062 " />
			<path d="M-85.22235713646245,-71.55123669723346 L-85.22235713646245,-67.86893822564016 " />
			<path d="M-85.22235713646245,-71.55123669723346 L-82.99393978022499,-71.7844451210558 " />
			<path d="M-80.7204102872349,-67.30629922413429 L-81.04310720908778,-67.56455861880393 L-81.3603874979064,-67.82383975267399 L-81.67222994780477,-68.08412529631572 L-81.97861371634268,-68.34539785316917 L-82.2795183259188,-68.60763996070592 L-82.57492366513928,-68.87083409159624 L-82.8648099901619,-69.13496265488054 L-83.14915792601579,-69.4000079971451 L-83.42794846789624,-69.66595240370192 L-83.70116298243506,-69.9327780997728 L-83.96878320894587,-70.20046725167725 L-84.23079126064457,-70.46900196802449 L-84.48716962584488,-70.73836430090915 L-84.73790116912875,-71.00853624711095 L-84.9829691324916,-71.27949974929797 L-85.2223571364622,-71.55123669723318 " />
			<path d="M-80.72041028723493,-67.3062992241343 L-80.72041028723493,-63.62400075254101 " />
			<path d="M-78.72246594387882,-64.0745248314973 L-78.72246594387882,-67.7568233030906 " />
			<path d="M-78.72246594387883,-67.75682330309061 L-80.72041028723493,-67.3062992241343 " />
			<path d="M-72.83197971839796,-63.772018786141345 L-78.72246594387883,-67.75682330309061 " />
			<path d="M-74.82992406175406,-63.32149470718504 L-74.82992406175406,-59.63919623559175 " />
			<path d="M-74.82992406175406,-63.321494707185046 L-72.83197971839796,-63.772018786141345 " />
			<path d="M-67.66836083358052,-59.676284260259685 L-68.15120432444827,-59.89312350327876 L-68.62949283121704,-60.11149721693586 L-69.10319438678422,-60.33139080590871 L-69.5722773306227,-60.552789573291925 L-70.03671031089692,-60.775678721579354 L-70.49646228655838,-61.000043353653105 L-70.95150252942024,-61.225868473779165 L-71.40180062621114,-61.45313898860973 L-71.84732648060792,-61.68183970819192 L-72.28805031524708,-61.91195534698309 L-72.72394267371507,-62.1434705248724 L-73.15497442251703,-62.37636976820881 L-73.58111675302393,-62.61063751083526 L-74.00234118339812,-62.84625809512909 L-74.41861956049684,-63.08321577304846 L-74.82992406175359,-63.32149470718477 " />
			<path d="M-67.66836083358054,-59.676284260259685 L-67.66836083358054,-55.99398578866639 " />
			<path d="M-66.03704610834637,-56.63112305130203 L-66.03704610834637,-60.313421522895325 " />
			<path d="M-66.03704610834639,-60.31342152289533 L-67.66836083358054,-59.67628426025968 " />
			<path d="M-57.70664059929944,-57.05984225914091 L-66.03704610834637,-60.31342152289534 " />
			<path d="M-59.337955324533596,-56.42270499650525 L-59.337955324533596,-52.74040652491196 " />
			<path d="M-59.337955324533596,-56.42270499650526 L-57.70664059929945,-57.05984225914091 " />
			<path d="M-50.004824416371285,-53.62563664371659 L-50.614909490287886,-53.78627849901714 L-51.22161164367963,-53.94886298475518 L-51.82489032673256,-54.113379234361986 L-52.42470521844522,-54.27981625215656 L-53.02101622932364,-54.44816291408061 L-53.61378350406082,-54.61840796844204 L-54.20296742420043,-54.79054003666694 L-54.78852861078485,-54.964547614060095 L-55.37042792698708,-55.14041907057393 L-55.94862648072649,-55.31814265158584 L-56.52308562726827,-55.497706478683774 L-57.09376697180629,-55.67909855046021 L-57.660632372029276,-55.86230674331425 L-58.223643940670065,-56.047318812261885 L-58.78276404803791,-56.2341223917545 L-59.33795532453297,-56.42270499650505 " />
			<path d="M-50.00482441637129,-53.62563664371658 L-50.00482441637129,-49.94333817212329 " />
			<path d="M-48.85131071190875,-50.723668766908766 L-48.85131071190875,-54.40596723850206 " />
			<path d="M-48.85131071190875,-54.40596723850207 L-50.004824416371285,-53.62563664371658 " />
			<path d="M-38.64868928809127,-52.105339277973385 L-48.851310711908745,-54.40596723850207 " />
			<path d="M-39.80220299255381,-51.32500868318789 L-39.80220299255381,-47.6427102115946 " />
			<path d="M-39.802202992553816,-51.32500868318789 L-38.648689288091276,-52.10533927797338 " />
			<path d="M-28.933541852065765,-49.56669801040443 L-29.62929221945703,-49.66019500102095 L-30.32306227034083,-49.75591039482045 L-31.014805635594612,-49.85383779452645 L-31.704476081552208,-49.95397065501986 L-32.39202751309402,-50.05630228377643 L-33.07741397672782,-50.16082584131407 L-33.76058966366013,-50.26753434164996 L-34.441508912858026,-50.37642065276749 L-35.12012621410068,-50.48747749709289 L-35.79639621102129,-50.600697451981674 L-36.47027370413867,-50.71607295021477 L-37.141713653878014,-50.83359628050425 L-37.81067118358123,-50.953259588008706 L-38.477101582506364,-51.075054874858296 L-39.140960308815885,-51.19897400068922 L-39.802202992553084,-51.325008683187754 " />
			<path d="M-28.933541852065833,-49.56669801040443 L-28.933541852065833,-45.88439953881114 " />
			<path d="M-28.336439221062506,-46.7547452252691 L-28.336439221062506,-50.43704369686239 " />
			<path d="M-28.336439221062502,-50.43704369686241 L-28.93354185206583,-49.56669801040444 " />
			<path d="M-16.95689367187854,-49.246151033102024 L-28.336439221062502,-50.43704369686242 " />
			<path d="M-17.553996302881878,-48.375805346644036 L-17.553996302881878,-44.693506875050744 " />
			<path d="M-17.55399630288187,-48.37580534664405 L-16.956893671878543,-49.246151033102024 " />
			<path d="M-5.890486225480696,-47.77607832047024 L-6.624487648590689,-47.796058781003296 L-7.358046314508025,-47.81838223695398 L-8.09111319478057,-47.843047196301896 L-8.823639293825478,-47.870052010528894 L-9.555575652203636,-47.89939487472924 L-10.286873349892096,-47.931073827730245 L-11.01748350955388,-47.96508675222338 L-11.747357299804534,-48.001431374905735 L-12.476445938475907,-48.04010526663201 L-13.204700695876587,-48.081105842576825 L-13.93207289804883,-48.12443036240753 L-14.658513930021732,-48.1700759304673 L-15.383975239060499,-48.21803949596872 L-16.108408337911538,-48.268317853197665 L-16.831764808043157,-48.32090764172758 L-17.553996302881007,-48.37580534664398 " />
			<path d="M-5.890486225480835,-47.77607832047023 L-5.890486225480835,-44.09377984887694 " />
			<path d="M-5.890486225480837,-48.67712647838286 L-5.890486225480836,-47.77607832047025 " />
			<path d="M5.8904862254808865,-48.67712647838285 L-5.890486225480844,-48.67712647838285 " />
			<path d="M5.890486225480892,-47.77607832047024 L5.890486225480892,-44.09377984887695 " />
			<path d="M5.890486225480881,-47.77607832047023 L5.89048622548088,-48.677126478382846 " />
			<path d="M17.553996302881902,-48.37580534664405 L16.83176480804335,-48.320907641727594 L16.108408337911726,-48.268317853197686 L15.383975239060687,-48.21803949596873 L14.658513930021922,-48.170075930467306 L13.93207289804902,-48.12443036240754 L13.204700695876777,-48.08110584257684 L12.476445938476097,-48.04010526663202 L11.747357299804724,-48.00143137490574 L11.017483509554074,-47.965086752223385 L10.286873349892286,-47.93107382773025 L9.555575652203826,-47.899394874729246 L8.823639293825751,-47.87005201052891 L8.091113194780924,-47.84304719630191 L7.358046314508377,-47.81838223695399 L6.6244876485910416,-47.7960587810033 L5.890486225481765,-47.77607832047027 " />
			<path d="M17.553996302881927,-48.37580534664405 L17.553996302881927,-44.69350687505076 " />
			<path d="M16.956893671878607,-49.246151033102024 L17.553996302881934,-48.37580534664405 " />
			<path d="M28.33643922106254,-46.7547452252691 L28.33643922106254,-50.43704369686239 " />
			<path d="M28.336439221062562,-50.43704369686241 L16.956893671878607,-49.24615103310202 " />
			<path d="M28.933541852065865,-49.56669801040444 L28.933541852065865,-45.884399538811145 " />
			<path d="M28.933541852065872,-49.56669801040443 L28.336439221062548,-50.43704369686239 " />
			<path d="M39.80220299255376,-51.32500868318789 L39.14096030881591,-51.198974000689226 L38.47710158250639,-51.075054874858296 L37.810671183581256,-50.95325958800872 L37.14171365387797,-50.833596280504246 L36.470273704138556,-50.71607295021476 L35.79639621102117,-50.60069745198166 L35.120126214100566,-50.48747749709287 L34.441508912857984,-50.376420652767486 L33.76058966366016,-50.26753434164997 L33.07741397672785,-50.16082584131408 L32.39202751309405,-50.05630228377644 L31.70447608155224,-49.953970655019866 L31.014805635594644,-49.853837794526456 L30.323062270340866,-49.755910394820454 L29.629292219457067,-49.66019500102095 L28.933541852066554,-49.56669801040454 " />
			<path d="M39.802202992553845,-51.325008683187896 L39.802202992553845,-47.642710211594604 " />
			<path d="M38.648689288091305,-52.105339277973385 L39.802202992553845,-51.325008683187896 " />
			<path d="M48.85131071190877,-50.72366876690878 L48.85131071190877,-54.40596723850207 " />
			<path d="M48.85131071190879,-54.40596723850208 L38.64868928809131,-52.105339277973385 " />
			<path d="M50.00482441637132,-53.6256366437166 L48.85131071190878,-54.405967238502086 " />
			<path d="M90.0,-3.6822984715932936 L90.0,0.0 " />
			<path d="M-90.0,-3.6822984715932936 L-90.0,0.0 " />
			<path d="M29.999999999999996,-46.02873089491617 L29.999999999999996,-3.6822984715932936 " />
			<path d="M-29.999999999999996,-46.028730894916166 L-29.999999999999996,-3.6822984715932936 " />

       </g>
    </g>
    
</svg>
